<svg xmlns="http://www.w3.org/2000/svg" viewBox="0 0 600 900"><defs><style>.cls-1{fill:#1b2b45;}.cls-2{fill:#132430;}.cls-3{fill:#152838;}.cls-4,.cls-8{fill:#263e60;}.cls-5{fill:#b52452;}.cls-6{fill:#ee2d62;}.cls-7{fill:#ef467d;}.cls-8{opacity:0.2;}</style></defs><g id="basMixer"><path class="cls-1" d="M416.3,845.88h74.76a0,0,0,0,1,0,0v40.3a14.48,14.48,0,0,1-14.48,14.48H430.78a14.48,14.48,0,0,1-14.48-14.48v-40.3A0,0,0,0,1,416.3,845.88Z"/><path class="cls-1" d="M116.47,845.88h74.76a0,0,0,0,1,0,0v40.3a14.48,14.48,0,0,1-14.48,14.48H130.95a14.48,14.48,0,0,1-14.48-14.48v-40.3A0,0,0,0,1,116.47,845.88Z"/><rect class="cls-2" x="116.47" y="857.62" width="74.76" height="21.49"/><rect class="cls-2" x="416.3" y="857.62" width="74.76" height="21.49"/><path class="cls-1" d="M521.37,872.26H86.16c-7.52,0-13.14-6-11.61-12.38l41.08-171.31a48.88,48.88,0,0,1,10-19.83c11-13.36,29-21.82,49-21.82h258.3c19.91,0,37.92,8.46,48.95,21.82a49,49,0,0,1,10,19.83L533,859.88C534.5,866.26,528.88,872.26,521.37,872.26Z"/><path class="cls-3" d="M521.37,873H86.16c-7.52,0-13.14-6-11.61-12.38l15.38-64.11c33.19,21.06,116.09,36,213.1,36,98.26,0,182-15.29,214.37-36.78L533,860.65C534.5,867,528.88,873,521.37,873Z"/><path class="cls-4" d="M481.86,668.74c-24.47,18.51-94.95,31.89-178.1,31.89s-153.63-13.38-178.1-31.89c11-13.36,29-21.82,49-21.82h258.3C452.82,646.92,470.83,655.38,481.86,668.74Z"/></g><g id="Boutons"><rect class="cls-5" x="220.01" y="744.3" width="167.49" height="101.11" rx="24.69"/><path class="cls-6" d="M387.5,764.37v26.89a37.09,37.09,0,0,1-37.1,37.1H257.12a37.09,37.09,0,0,1-37.1-37.1V764.37a37.09,37.09,0,0,1,3.59-16,37.67,37.67,0,0,1,4-6.54,37.08,37.08,0,0,1,28.13-14.57c.45,0,.91,0,1.38,0H350.4c.45,0,.9,0,1.35,0a37.12,37.12,0,0,1,35.75,37.08Z"/><path class="cls-7" d="M379.39,741.23c-1,.59-2.17,1.16-3.38,1.71a79.5,79.5,0,0,1-11.57,4.11h0c-15.37,4.33-37.25,7-61.49,7-23.75,0-45.19-2.59-60.51-6.74a86,86,0,0,1-11.64-4c-1.13-.5-2.2-1-3.17-1.51a37.08,37.08,0,0,1,28.13-14.57c.45,0,.91,0,1.38,0H350.4c.45,0,.9,0,1.35,0A36.9,36.9,0,0,1,379.39,741.23Z"/></g><g id="Pots"><ellipse class="cls-8" cx="303.76" cy="60.57" rx="228.59" ry="60.53"/><path class="cls-8" d="M532.19,64,421.78,662.48c3.2,28.93-233.31,27.94-235.24,1.57L75.34,64a19.65,19.65,0,0,1,4.34-16.25c-3,3.9-4.51,7.91-4.51,12,0,33.43,102.34,60.53,228.59,60.53s228.59-27.1,228.59-60.53c0-4.12-1.55-8.13-4.51-12A19.69,19.69,0,0,1,532.19,64Z"/><path class="cls-1" d="M421.53,662.5c3.2,28.92-233.32,27.92-235.24,1.54,0-.08-1.16-6.27-3.21-17.35H424.44Z"/></g></svg>