<?xml version="1.0" encoding="UTF-8"?><svg id="Calque_2" xmlns="http://www.w3.org/2000/svg" xmlns:xlink="http://www.w3.org/1999/xlink" viewBox="0 0 2047.85 1082.09"><defs><style>.cls-1,.cls-2,.cls-3,.cls-4{stroke:#1b2b45;stroke-miterlimit:10;}.cls-1,.cls-2,.cls-4{stroke-width:3px;}.cls-1,.cls-3{fill:#070621;}.cls-2{fill:#09092b;}.cls-5{fill:#1b2b45;}.cls-6{fill:url(#Dégradé_sans_nom_147);}.cls-7{fill:url(#Dégradé_sans_nom_154);}.cls-4{fill:#040419;}</style><linearGradient id="Dégradé_sans_nom_147" x1="1099.29" y1="470.59" x2="64.29" y2="470.59" gradientUnits="userSpaceOnUse"><stop offset=".38" stop-color="#000" stop-opacity=".21"/><stop offset="1" stop-color="#000" stop-opacity=".8"/></linearGradient><linearGradient id="Dégradé_sans_nom_154" x1="1984.29" y1="470.59" x2="1099.29" y2="470.59" gradientUnits="userSpaceOnUse"><stop offset="0" stop-color="#000" stop-opacity=".8"/><stop offset=".66" stop-color="#000" stop-opacity=".21"/></linearGradient></defs><rect class="cls-3" x="64.29" y="1.09" width="1920" height="1080.5"/><rect class="cls-1" x="358.79" y="48.91" width="102.07" height="47.41"/><rect class="cls-1" x="460.86" y="48.91" width="102.07" height="47.41"/><rect class="cls-1" x="410.06" y="96.32" width="102.07" height="47.41"/><rect class="cls-1" x="512.14" y="96.32" width="102.07" height="47.41"/><rect class="cls-1" x="614.21" y="96.32" width="102.07" height="47.41"/><rect class="cls-1" x="563.42" y="143.73" width="102.07" height="47.41"/><rect class="cls-1" x="512.14" y="1.5" width="102.07" height="47.41"/><rect class="cls-1" x="614.21" y="1.5" width="102.07" height="47.41"/><rect class="cls-1" x="563.42" y="48.91" width="102.07" height="47.41"/><rect class="cls-1" x="358.79" y="143.73" width="102.07" height="47.41"/><rect class="cls-1" x="460.86" y="143.73" width="102.07" height="47.41"/><rect class="cls-4" x="410.06" y="191.13" width="102.07" height="47.41"/><rect class="cls-1" x="410.06" y="1.5" width="102.07" height="47.41"/><rect class="cls-1" x="665.07" y="49.14" width="102.07" height="47.41"/><rect class="cls-1" x="767.15" y="49.14" width="102.07" height="47.41"/><rect class="cls-2" x="716.35" y="96.54" width="102.07" height="47.41"/><rect class="cls-1" x="818.43" y="96.54" width="102.07" height="47.41"/><rect class="cls-1" x="920.5" y="96.54" width="102.07" height="47.41"/><rect class="cls-1" x="869.71" y="143.95" width="102.07" height="47.41"/><rect class="cls-1" x="818.43" y="1.73" width="102.07" height="47.41"/><rect class="cls-1" x="920.5" y="1.73" width="102.07" height="47.41"/><rect class="cls-4" x="869.71" y="49.14" width="102.07" height="47.41"/><rect class="cls-1" x="665.07" y="143.95" width="102.07" height="47.41"/><rect class="cls-1" x="767.15" y="143.95" width="102.07" height="47.41"/><rect class="cls-1" x="716.35" y="191.36" width="102.07" height="47.41"/><rect class="cls-1" x="716.35" y="1.73" width="102.07" height="47.41"/><rect class="cls-1" x="513.07" y="286.14" width="102.07" height="47.41"/><rect class="cls-4" x="615.15" y="286.14" width="102.07" height="47.41"/><rect class="cls-1" x="564.35" y="333.54" width="102.07" height="47.41"/><rect class="cls-1" x="666.43" y="333.54" width="102.07" height="47.41"/><polyline class="cls-1" points="819.78 428.36 717.71 428.36 717.71 380.95 819.78 380.95"/><rect class="cls-1" x="666.43" y="238.73" width="102.07" height="47.41"/><polyline class="cls-1" points="819.78 333.54 717.71 333.54 717.71 286.14 819.78 286.14"/><rect class="cls-1" x="513.07" y="380.95" width="102.07" height="47.41"/><rect class="cls-1" x="615.15" y="380.95" width="102.07" height="47.41"/><rect class="cls-1" x="564.35" y="428.36" width="102.07" height="47.41"/><rect class="cls-1" x="513.07" y="191.32" width="102.07" height="47.41"/><rect class="cls-1" x="615.15" y="191.32" width="102.07" height="47.41"/><rect class="cls-1" x="564.35" y="238.73" width="102.07" height="47.41"/><rect class="cls-1" x="207.07" y="286.14" width="102.07" height="47.41"/><rect class="cls-1" x="309.15" y="286.14" width="102.07" height="47.41"/><rect class="cls-1" x="258.35" y="333.54" width="102.07" height="47.41"/><rect class="cls-1" x="360.43" y="333.54" width="102.07" height="47.41"/><rect class="cls-1" x="462.5" y="333.54" width="102.07" height="47.41"/><rect class="cls-1" x="411.71" y="380.95" width="102.07" height="47.41"/><rect class="cls-1" x="360.43" y="238.73" width="102.07" height="47.41"/><rect class="cls-1" x="462.5" y="238.73" width="102.07" height="47.41"/><rect class="cls-1" x="411.71" y="286.14" width="102.07" height="47.41"/><rect class="cls-1" x="207.07" y="380.95" width="102.07" height="47.41"/><rect class="cls-1" x="309.15" y="380.95" width="102.07" height="47.41"/><rect class="cls-1" x="258.35" y="428.36" width="102.07" height="47.41"/><rect class="cls-1" x="207.07" y="191.32" width="102.07" height="47.41"/><rect class="cls-1" x="309.15" y="191.32" width="102.07" height="47.41"/><rect class="cls-1" x="258.35" y="238.73" width="102.07" height="47.41"/><rect class="cls-1" x="52.07" y="49.14" width="102.07" height="47.41"/><rect class="cls-1" x="154.15" y="49.14" width="102.07" height="47.41"/><rect class="cls-1" x="103.35" y="96.54" width="102.07" height="47.41"/><rect class="cls-1" x="205.43" y="96.54" width="102.07" height="47.41"/><rect class="cls-1" x="307.5" y="96.54" width="102.07" height="47.41"/><rect class="cls-1" x="256.71" y="143.95" width="102.07" height="47.41"/><rect class="cls-1" x="205.43" y="1.73" width="102.07" height="47.41"/><rect class="cls-1" x="307.5" y="1.73" width="102.07" height="47.41"/><rect class="cls-1" x="256.71" y="49.14" width="102.07" height="47.41"/><rect class="cls-1" x="52.07" y="143.95" width="102.07" height="47.41"/><rect class="cls-1" x="154.15" y="143.95" width="102.07" height="47.41"/><rect class="cls-1" x="103.35" y="191.36" width="102.07" height="47.41"/><rect class="cls-1" x="103.35" y="1.73" width="102.07" height="47.41"/><rect class="cls-1" x="3.15" y="286.14" width="102.07" height="47.41"/><rect class="cls-1" x="54.43" y="333.54" width="102.07" height="47.41"/><rect class="cls-1" x="156.5" y="333.54" width="102.07" height="47.41"/><rect class="cls-1" x="105.71" y="380.95" width="102.07" height="47.41"/><rect class="cls-1" x="54.43" y="238.73" width="102.07" height="47.41"/><rect class="cls-1" x="156.5" y="238.73" width="102.07" height="47.41"/><rect class="cls-4" x="105.71" y="286.14" width="102.07" height="47.41"/><rect class="cls-1" x="3.15" y="380.95" width="102.07" height="47.41"/><rect class="cls-1" x="3.15" y="191.32" width="102.07" height="47.41"/><rect class="cls-1" x="819.07" y="191.32" width="102.07" height="47.41"/><rect class="cls-1" x="1.5" y="96.54" width="102.07" height="47.41"/><rect class="cls-1" x="1.5" y="1.73" width="102.07" height="47.41"/><rect class="cls-4" x="360.36" y="523.25" width="102.07" height="47.41"/><rect class="cls-1" x="411.64" y="570.66" width="102.07" height="47.41"/><polyline class="cls-1" points="615.79 618.07 513.71 618.07 513.71 570.66 616.72 570.66"/><polyline class="cls-1" points="615.79 523.25 513.71 523.25 513.71 475.84 615.79 475.84"/><rect class="cls-1" x="360.36" y="618.07" width="102.07" height="47.41"/><rect class="cls-1" x="462.44" y="618.07" width="102.07" height="47.41"/><rect class="cls-1" x="411.64" y="665.48" width="102.07" height="47.41"/><rect class="cls-1" x="360.36" y="428.44" width="102.07" height="47.41"/><rect class="cls-1" x="462.44" y="428.44" width="102.07" height="47.41"/><rect class="cls-1" x="411.64" y="475.84" width="102.07" height="47.41"/><polyline class="cls-1" points="768.72 523.48 870.8 523.48 870.8 570.89 768.72 570.89"/><rect class="cls-1" x="820" y="570.89" width="102.07" height="47.41"/><rect class="cls-1" x="922.08" y="570.89" width="102.07" height="47.41"/><rect class="cls-1" x="871.28" y="618.3" width="102.07" height="47.41"/><rect class="cls-1" x="871.28" y="523.48" width="102.07" height="47.41"/><polyline class="cls-1" points="768.72 618.3 870.8 618.3 870.8 665.71 768.72 665.71"/><rect class="cls-1" x="717.93" y="665.71" width="102.07" height="47.41"/><rect class="cls-1" x="666.65" y="428.66" width="102.07" height="47.41"/><polyline class="cls-1" points="717.93 476.07 820 476.07 820 523.48 717.93 523.48"/><rect class="cls-1" x="514.65" y="760.48" width="102.07" height="47.41"/><rect class="cls-1" x="616.72" y="760.48" width="102.07" height="47.41"/><rect class="cls-1" x="565.93" y="807.89" width="102.07" height="47.41"/><rect class="cls-1" x="668" y="807.89" width="102.07" height="47.41"/><rect class="cls-1" x="770.08" y="807.89" width="102.07" height="47.41"/><rect class="cls-1" x="719.28" y="855.3" width="102.07" height="47.41"/><rect class="cls-1" x="668" y="713.07" width="102.07" height="47.41"/><rect class="cls-2" x="770.08" y="713.07" width="102.07" height="47.41"/><rect class="cls-1" x="719.28" y="760.48" width="102.07" height="47.41"/><rect class="cls-1" x="514.65" y="855.3" width="102.07" height="47.41"/><rect class="cls-1" x="616.72" y="855.3" width="102.07" height="47.41"/><rect class="cls-1" x="514.65" y="665.66" width="102.07" height="47.41"/><rect class="cls-2" x="565.93" y="713.07" width="102.07" height="47.41"/><rect class="cls-1" x="208.65" y="760.48" width="102.07" height="47.41"/><rect class="cls-1" x="310.72" y="760.48" width="102.07" height="47.41"/><rect class="cls-1" x="259.93" y="807.89" width="102.07" height="47.41"/><rect class="cls-1" x="362" y="807.89" width="102.07" height="47.41"/><rect class="cls-1" x="464.08" y="807.89" width="102.07" height="47.41"/><rect class="cls-1" x="413.28" y="855.3" width="102.07" height="47.41"/><rect class="cls-1" x="362" y="713.07" width="102.07" height="47.41"/><rect class="cls-1" x="464.08" y="713.07" width="102.07" height="47.41"/><rect class="cls-1" x="413.28" y="760.48" width="102.07" height="47.41"/><rect class="cls-1" x="208.65" y="855.3" width="102.07" height="47.41"/><rect class="cls-1" x="310.72" y="855.3" width="102.07" height="47.41"/><rect class="cls-4" x="208.65" y="665.66" width="102.07" height="47.41"/><rect class="cls-1" x="310.72" y="665.66" width="102.07" height="47.41"/><rect class="cls-1" x="259.93" y="713.07" width="102.07" height="47.41"/><rect class="cls-1" x="53.65" y="523.48" width="102.07" height="47.41"/><rect class="cls-1" x="155.72" y="523.48" width="102.07" height="47.41"/><rect class="cls-1" x="104.93" y="570.89" width="102.07" height="47.41"/><rect class="cls-1" x="207" y="570.89" width="102.07" height="47.41"/><rect class="cls-1" x="309.08" y="570.89" width="102.07" height="47.41"/><rect class="cls-1" x="258.28" y="618.3" width="102.07" height="47.41"/><rect class="cls-1" x="207" y="476.07" width="102.07" height="47.41"/><rect class="cls-1" x="309.08" y="476.07" width="102.07" height="47.41"/><rect class="cls-1" x="258.28" y="523.48" width="102.07" height="47.41"/><rect class="cls-1" x="53.65" y="618.3" width="102.07" height="47.41"/><rect class="cls-1" x="155.72" y="618.3" width="102.07" height="47.41"/><rect class="cls-1" x="104.93" y="665.71" width="102.07" height="47.41"/><rect class="cls-1" x="53.65" y="428.66" width="102.07" height="47.41"/><rect class="cls-1" x="155.72" y="428.66" width="102.07" height="47.41"/><rect class="cls-1" x="104.93" y="476.07" width="102.07" height="47.41"/><rect class="cls-1" x="4.72" y="760.48" width="102.07" height="47.41"/><rect class="cls-1" x="56" y="807.89" width="102.07" height="47.41"/><rect class="cls-1" x="158.08" y="807.89" width="102.07" height="47.41"/><rect class="cls-1" x="107.28" y="855.3" width="102.07" height="47.41"/><rect class="cls-1" x="56" y="713.07" width="102.07" height="47.41"/><rect class="cls-1" x="158.08" y="713.07" width="102.07" height="47.41"/><rect class="cls-1" x="107.28" y="760.48" width="102.07" height="47.41"/><rect class="cls-1" x="4.72" y="855.3" width="102.07" height="47.41"/><rect class="cls-1" x="4.72" y="665.66" width="102.07" height="47.41"/><rect class="cls-1" x="820.65" y="760.48" width="102.07" height="47.41"/><rect class="cls-1" x="922.72" y="760.48" width="102.07" height="47.41"/><rect class="cls-1" x="871.93" y="807.89" width="102.07" height="47.41"/><rect class="cls-1" x="974" y="807.89" width="102.07" height="47.41"/><rect class="cls-1" x="1076.08" y="807.89" width="102.07" height="47.41"/><rect class="cls-1" x="1025.28" y="855.3" width="102.07" height="47.41"/><rect class="cls-1" x="974" y="713.07" width="102.07" height="47.41"/><rect class="cls-1" x="1076.08" y="713.07" width="102.07" height="47.41"/><rect class="cls-4" x="1025.28" y="760.48" width="102.07" height="47.41"/><rect class="cls-1" x="820.65" y="855.3" width="102.07" height="47.41"/><rect class="cls-1" x="922.72" y="855.3" width="102.07" height="47.41"/><rect class="cls-1" x="820.65" y="665.66" width="102.07" height="47.41"/><rect class="cls-1" x="922.72" y="665.66" width="102.07" height="47.41"/><rect class="cls-4" x="871.93" y="713.07" width="102.07" height="47.41"/><rect class="cls-1" x="3.08" y="570.89" width="102.07" height="47.41"/><rect class="cls-1" x="3.08" y="476.07" width="102.07" height="47.41"/><rect class="cls-1" x="1585.36" y="523.25" width="102.07" height="47.41"/><rect class="cls-1" x="1687.44" y="523.25" width="102.07" height="47.41"/><rect class="cls-1" x="1636.64" y="570.66" width="102.07" height="47.41"/><rect class="cls-1" x="1738.71" y="570.66" width="102.07" height="47.41"/><rect class="cls-1" x="1840.79" y="570.66" width="102.07" height="47.41"/><rect class="cls-1" x="1789.99" y="618.07" width="102.07" height="47.41"/><rect class="cls-1" x="1738.71" y="475.84" width="102.07" height="47.41"/><rect class="cls-1" x="1840.79" y="475.84" width="102.07" height="47.41"/><rect class="cls-2" x="1789.99" y="523.25" width="102.07" height="47.41"/><rect class="cls-4" x="1585.36" y="618.07" width="102.07" height="47.41"/><rect class="cls-1" x="1687.44" y="618.07" width="102.07" height="47.41"/><rect class="cls-1" x="1636.64" y="665.48" width="102.07" height="47.41"/><rect class="cls-1" x="1585.36" y="428.44" width="102.07" height="47.41"/><rect class="cls-1" x="1687.44" y="428.44" width="102.07" height="47.41"/><rect class="cls-4" x="1636.64" y="475.84" width="102.07" height="47.41"/><rect class="cls-1" x="1891.65" y="523.48" width="102.07" height="47.41"/><rect class="cls-1" x="1942.93" y="570.89" width="102.07" height="47.41"/><rect class="cls-1" x="1891.65" y="618.3" width="102.07" height="47.41"/><rect class="cls-1" x="1942.93" y="665.71" width="102.07" height="47.41"/><rect class="cls-1" x="1891.65" y="428.66" width="102.07" height="47.41"/><rect class="cls-1" x="1942.93" y="476.07" width="102.07" height="47.41"/><rect class="cls-1" x="1739.65" y="760.48" width="102.07" height="47.41"/><rect class="cls-1" x="1841.72" y="760.48" width="102.07" height="47.41"/><rect class="cls-1" x="1790.93" y="807.89" width="102.07" height="47.41"/><rect class="cls-1" x="1893" y="807.89" width="102.07" height="47.41"/><rect class="cls-1" x="1944.28" y="855.3" width="102.07" height="47.41"/><rect class="cls-1" x="1893" y="713.07" width="102.07" height="47.41"/><rect class="cls-1" x="1944.28" y="760.48" width="102.07" height="47.41"/><rect class="cls-1" x="1739.65" y="855.3" width="102.07" height="47.41"/><rect class="cls-1" x="1841.72" y="855.3" width="102.07" height="47.41"/><rect class="cls-1" x="1739.65" y="665.66" width="102.07" height="47.41"/><rect class="cls-2" x="1841.72" y="665.66" width="102.07" height="47.41"/><rect class="cls-1" x="1790.93" y="713.07" width="102.07" height="47.41"/><rect class="cls-1" x="1433.65" y="760.48" width="102.07" height="47.41"/><rect class="cls-1" x="1535.72" y="760.48" width="102.07" height="47.41"/><rect class="cls-1" x="1484.93" y="807.89" width="102.07" height="47.41"/><rect class="cls-1" x="1587" y="807.89" width="102.07" height="47.41"/><rect class="cls-1" x="1689.08" y="807.89" width="102.07" height="47.41"/><rect class="cls-1" x="1638.28" y="855.3" width="102.07" height="47.41"/><rect class="cls-1" x="1689.08" y="713.07" width="102.07" height="47.41"/><rect class="cls-1" x="1638.28" y="760.48" width="102.07" height="47.41"/><rect class="cls-1" x="1433.65" y="855.3" width="102.07" height="47.41"/><rect class="cls-1" x="1535.72" y="855.3" width="102.07" height="47.41"/><rect class="cls-1" x="1278.65" y="523.48" width="102.07" height="47.41"/><rect class="cls-1" x="1380.72" y="523.48" width="102.07" height="47.41"/><rect class="cls-1" x="1329.93" y="570.89" width="102.07" height="47.41"/><rect class="cls-1" x="1432" y="570.89" width="102.07" height="47.41"/><rect class="cls-1" x="1534.08" y="570.89" width="102.07" height="47.41"/><rect class="cls-1" x="1432" y="476.07" width="102.07" height="47.41"/><rect class="cls-1" x="1534.08" y="476.07" width="102.07" height="47.41"/><rect class="cls-1" x="1483.28" y="523.48" width="102.07" height="47.41"/><rect class="cls-1" x="1278.65" y="618.3" width="102.07" height="47.41"/><rect class="cls-1" x="1329.93" y="665.71" width="102.07" height="47.41"/><rect class="cls-4" x="1278.65" y="428.66" width="102.07" height="47.41"/><rect class="cls-1" x="1380.72" y="428.66" width="102.07" height="47.41"/><rect class="cls-1" x="1329.93" y="476.07" width="102.07" height="47.41"/><rect class="cls-1" x="1127.65" y="760.48" width="102.07" height="47.41"/><rect class="cls-1" x="1229.72" y="760.48" width="102.07" height="47.41"/><rect class="cls-1" x="1178.93" y="807.89" width="102.07" height="47.41"/><rect class="cls-1" x="1281" y="807.89" width="102.07" height="47.41"/><rect class="cls-4" x="1383.08" y="807.89" width="102.07" height="47.41"/><rect class="cls-1" x="1332.28" y="855.3" width="102.07" height="47.41"/><rect class="cls-1" x="1281" y="713.07" width="102.07" height="47.41"/><rect class="cls-1" x="1383.08" y="713.07" width="102.07" height="47.41"/><rect class="cls-1" x="1332.28" y="760.48" width="102.07" height="47.41"/><rect class="cls-1" x="1127.65" y="855.3" width="102.07" height="47.41"/><rect class="cls-1" x="1229.72" y="855.3" width="102.07" height="47.41"/><rect class="cls-1" x="1127.65" y="665.66" width="102.07" height="47.41"/><rect class="cls-1" x="1229.72" y="665.66" width="102.07" height="47.41"/><rect class="cls-1" x="1178.93" y="713.07" width="102.07" height="47.41"/><rect class="cls-1" x="1074.72" y="523.48" width="102.07" height="47.41"/><rect class="cls-1" x="1023.93" y="570.89" width="102.07" height="47.41"/><rect class="cls-1" x="1126" y="570.89" width="102.07" height="47.41"/><rect class="cls-1" x="1228.08" y="570.89" width="102.07" height="47.41"/><rect class="cls-1" x="1177.28" y="618.3" width="102.07" height="47.41"/><rect class="cls-1" x="1126" y="476.07" width="102.07" height="47.41"/><rect class="cls-1" x="1228.08" y="476.07" width="102.07" height="47.41"/><rect class="cls-1" x="1177.28" y="523.48" width="102.07" height="47.41"/><rect class="cls-1" x="972.65" y="618.3" width="102.07" height="47.41"/><rect class="cls-1" x="1074.72" y="618.3" width="102.07" height="47.41"/><rect class="cls-1" x="1023.93" y="665.71" width="102.07" height="47.41"/><rect class="cls-1" x="1585.36" y="49.25" width="102.07" height="47.41"/><rect class="cls-1" x="1687.44" y="49.25" width="102.07" height="47.41"/><rect class="cls-1" x="1636.64" y="96.66" width="102.07" height="47.41"/><rect class="cls-1" x="1738.71" y="96.66" width="102.07" height="47.41"/><rect class="cls-1" x="1840.79" y="96.66" width="102.07" height="47.41"/><rect class="cls-1" x="1789.99" y="144.07" width="102.07" height="47.41"/><rect class="cls-1" x="1738.71" y="1.84" width="102.07" height="47.41"/><rect class="cls-1" x="1840.79" y="1.84" width="102.07" height="47.41"/><rect class="cls-1" x="1789.99" y="49.25" width="102.07" height="47.41"/><rect class="cls-1" x="1585.36" y="144.07" width="102.07" height="47.41"/><rect class="cls-1" x="1687.44" y="144.07" width="102.07" height="47.41"/><rect class="cls-1" x="1636.64" y="191.48" width="102.07" height="47.41"/><rect class="cls-1" x="1636.64" y="1.84" width="102.07" height="47.41"/><rect class="cls-1" x="1891.65" y="49.48" width="102.07" height="47.41"/><rect class="cls-1" x="1942.93" y="96.89" width="102.07" height="47.41"/><rect class="cls-1" x="1891.65" y="144.3" width="102.07" height="47.41"/><rect class="cls-1" x="1942.93" y="191.71" width="102.07" height="47.41"/><rect class="cls-1" x="1942.93" y="2.07" width="102.07" height="47.41"/><rect class="cls-1" x="1739.65" y="286.48" width="102.07" height="47.41"/><rect class="cls-1" x="1841.72" y="286.48" width="102.07" height="47.41"/><rect class="cls-1" x="1790.93" y="333.89" width="102.07" height="47.41"/><rect class="cls-1" x="1893" y="333.89" width="102.07" height="47.41"/><rect class="cls-1" x="1944.28" y="381.3" width="102.07" height="47.41"/><rect class="cls-1" x="1893" y="239.07" width="102.07" height="47.41"/><rect class="cls-1" x="1944.28" y="286.48" width="102.07" height="47.41"/><rect class="cls-1" x="1739.65" y="381.3" width="102.07" height="47.41"/><rect class="cls-1" x="1841.72" y="381.3" width="102.07" height="47.41"/><rect class="cls-1" x="1790.93" y="428.71" width="102.07" height="47.41"/><rect class="cls-1" x="1739.65" y="191.66" width="102.07" height="47.41"/><rect class="cls-1" x="1841.72" y="191.66" width="102.07" height="47.41"/><rect class="cls-1" x="1790.93" y="239.07" width="102.07" height="47.41"/><rect class="cls-1" x="1433.65" y="286.48" width="102.07" height="47.41"/><rect class="cls-1" x="1535.72" y="286.48" width="102.07" height="47.41"/><rect class="cls-1" x="1484.93" y="333.89" width="102.07" height="47.41"/><rect class="cls-1" x="1587" y="333.89" width="102.07" height="47.41"/><rect class="cls-1" x="1689.08" y="333.89" width="102.07" height="47.41"/><rect class="cls-1" x="1638.28" y="381.3" width="102.07" height="47.41"/><rect class="cls-1" x="1587" y="239.07" width="102.07" height="47.41"/><rect class="cls-1" x="1689.08" y="239.07" width="102.07" height="47.41"/><rect class="cls-1" x="1638.28" y="286.48" width="102.07" height="47.41"/><rect class="cls-1" x="1433.65" y="381.3" width="102.07" height="47.41"/><rect class="cls-1" x="1535.72" y="381.3" width="102.07" height="47.41"/><rect class="cls-2" x="1483.93" y="428.71" width="102.07" height="47.41"/><rect class="cls-2" x="1430.65" y="191.66" width="102.07" height="47.41"/><rect class="cls-1" x="1533.72" y="191.66" width="102.07" height="47.41"/><rect class="cls-4" x="1484.93" y="239.07" width="102.07" height="47.41"/><rect class="cls-1" x="1278.65" y="49.48" width="102.07" height="47.41"/><rect class="cls-1" x="1380.72" y="49.48" width="102.07" height="47.41"/><rect class="cls-1" x="1329.93" y="96.89" width="102.07" height="47.41"/><rect class="cls-1" x="1432" y="96.89" width="102.07" height="47.41"/><rect class="cls-1" x="1534.08" y="96.89" width="102.07" height="47.41"/><rect class="cls-1" x="1483.28" y="144.3" width="102.07" height="47.41"/><rect class="cls-1" x="1432" y="2.07" width="102.07" height="47.41"/><rect class="cls-1" x="1534.08" y="2.07" width="102.07" height="47.41"/><rect class="cls-1" x="1483.28" y="49.48" width="102.07" height="47.41"/><rect class="cls-1" x="1278.65" y="144.3" width="102.07" height="47.41"/><rect class="cls-1" x="1380.72" y="144.3" width="102.07" height="47.41"/><rect class="cls-1" x="1328.93" y="191.71" width="102.07" height="47.41"/><rect class="cls-1" x="1329.93" y="2.07" width="102.07" height="47.41"/><polyline class="cls-1" points="1280 333.89 1382.08 333.89 1382.08 381.3 1280 381.3"/><rect class="cls-1" x="1383.08" y="333.89" width="102.07" height="47.41"/><rect class="cls-1" x="1332.28" y="381.3" width="102.07" height="47.41"/><rect class="cls-1" x="1281" y="239.07" width="102.07" height="47.41"/><rect class="cls-1" x="1383.08" y="239.07" width="102.07" height="47.41"/><rect class="cls-1" x="1332.28" y="286.48" width="102.07" height="47.41"/><rect class="cls-1" x="1126.65" y="191.66" width="102.07" height="47.41"/><rect class="cls-4" x="1228.72" y="191.66" width="102.07" height="47.41"/><polyline class="cls-1" points="1177.93 239.07 1280 239.07 1280 286.48 1177.93 286.48"/><rect class="cls-1" x="972.65" y="49.48" width="102.07" height="47.41"/><rect class="cls-1" x="1074.72" y="49.48" width="102.07" height="47.41"/><rect class="cls-1" x="1023.93" y="96.89" width="102.07" height="47.41"/><rect class="cls-4" x="1126" y="96.89" width="102.07" height="47.41"/><rect class="cls-1" x="1228.08" y="96.89" width="102.07" height="47.41"/><rect class="cls-1" x="1177.28" y="144.3" width="102.07" height="47.41"/><rect class="cls-1" x="1126" y="2.07" width="102.07" height="47.41"/><rect class="cls-1" x="1228.08" y="2.07" width="102.07" height="47.41"/><rect class="cls-1" x="1177.28" y="49.48" width="102.07" height="47.41"/><rect class="cls-1" x="972.65" y="144.3" width="102.07" height="47.41"/><rect class="cls-1" x="1074.72" y="144.3" width="102.07" height="47.41"/><rect class="cls-1" x="1023.93" y="2.07" width="102.07" height="47.41"/><rect class="cls-6" x="64.29" y="1.59" width="1035" height="938"/><rect class="cls-7" x="1099.29" y="1.59" width="885" height="938"/><rect class="cls-5" x="64.29" y="870.59" width="1920" height="211"/></svg>