<?xml version="1.0" encoding="UTF-8"?><svg id="Calque_1" xmlns="http://www.w3.org/2000/svg" viewBox="0 0 324.44 101"><defs><style>.cls-1{fill:#ff94c0;}.cls-2{fill:#fca677;}.cls-3{fill:#f7548f;}</style></defs><rect class="cls-1" width="324.44" height="90" rx="34.25" ry="34.25"/><rect class="cls-3" y="11" width="324.44" height="90" rx="34.25" ry="34.25"/><path class="cls-2" d="m126.03,47.12v6.48h28.03l-7.56,7.61h-20.47v4.66h30.34v7.61h-37.95v-33.97h37.95v7.61h-30.34Z"/><path class="cls-2" d="m89.85,48.85l18.71-9.33v33.97h-7.43v-21.74l-11.23,4.62-11.19-4.62v21.74h-7.52l-.05-33.97,18.71,9.33Z"/><path class="cls-2" d="m196.41,40.08h7.61v34.01h-7.61v-14.58l-22.96-8.79v23.37h-7.65l-.09-35.19,30.71,12.95v-11.78Z"/><path class="cls-2" d="m246.48,39.53h7.73v34.52h-38.57v-34.52h7.73v26.78h23.1v-26.78Z"/></svg>