<?xml version="1.0" encoding="UTF-8"?><svg id="Calque_1" xmlns="http://www.w3.org/2000/svg" viewBox="0 0 324.44 94"><defs><style>.cls-1{fill:#c11b57;}.cls-2{fill:#f4457b;}.cls-3{fill:#c66028;}</style></defs><rect class="cls-2" width="324.44" height="90" rx="34.25" ry="34.25"/><rect class="cls-1" y="4" width="324.44" height="90" rx="34.25" ry="34.25"/><path class="cls-3" d="m125.58,37.44v6.48h28.03l-7.56,7.61h-20.47v4.66h30.34v7.61h-37.95V29.83h37.95v7.61h-30.34Z"/><path class="cls-3" d="m89.39,39.16l18.71-9.33v33.97h-7.43v-21.74l-11.23,4.62-11.19-4.62v21.74h-7.52l-.05-33.97,18.71,9.33Z"/><path class="cls-3" d="m195.96,30.39h7.61v34.01h-7.61v-14.58l-22.96-8.79v23.37h-7.65l-.09-35.19,30.71,12.95v-11.78Z"/><path class="cls-3" d="m246.02,29.84h7.73v34.52h-38.57V29.84h7.73v26.78h23.1v-26.78Z"/></svg>