<?xml version="1.0" encoding="utf-8"?>
<!-- Generator: Adobe Illustrator 27.3.1, SVG Export Plug-In . SVG Version: 6.00 Build 0)  -->
<svg version="1.1" id="Layer_2_00000029766856444754516930000001243642912749197497_"
	 xmlns="http://www.w3.org/2000/svg" xmlns:xlink="http://www.w3.org/1999/xlink" x="0px" y="0px" viewBox="0 0 1921.9 1084.8"
	 style="enable-background:new 0 0 1921.9 1084.8;" xml:space="preserve">
<style type="text/css">
	.st0{fill:#0D1728;}
	.st1{fill:#11151C;}
	.st2{fill:none;stroke:#1C2C45;stroke-width:3;stroke-miterlimit:10;}
	.st3{fill:none;stroke:#1C2C45;stroke-width:3.01;stroke-miterlimit:10;}
	.st4{fill:none;stroke:#0F131B;stroke-width:9;stroke-miterlimit:10;}
	.st5{fill:#531326;}
	.st6{fill:#461323;}
	.st7{fill:#7D3B24;}
	.st8{fill:#2A1018;}
	.st9{fill:#47281C;}
	.st10{fill:#281712;}
	.st11{clip-path:url(#SVGID_00000016792156579728259920000015990341403638651054_);}
	.st12{clip-path:url(#SVGID_00000024713031368652579990000005477888049993632914_);}
	.st13{fill:#3E595A;}
	.st14{fill:#D7ABD0;}
	.st15{fill:#AD89A9;}
	.st16{fill:#286F75;}
	.st17{fill:none;}
	.st18{fill:none;stroke:#1D9AAA;stroke-width:3.55;stroke-miterlimit:10;}
	.st19{fill:#1C9AAA;}
	.st20{fill:#1C4E4F;}
	.st21{opacity:0.48;fill:#1D6790;enable-background:new    ;}
	.st22{fill:#F06842;}
	.st23{fill:#F79557;}
	.st24{fill:#48BDE8;}
	.st25{fill:#5E2C1E;}
	.st26{fill:#1BA5C9;}
	.st27{fill:#B1E1ED;}
	.st28{fill:#D2EDF2;}
	.st29{fill:#2C6977;}
	.st30{fill:#C6E1E5;}
	.st31{fill:#288289;}
	.st32{fill:#5D3089;}
	.st33{opacity:0.28;fill:#020D0F;}
	.st34{font-family:'Industry-Demi';}
	.st35{font-size:37px;}
	.st36{fill:#EE2D62;}
</style>
<rect x="1.9" class="st0" width="1919.2" height="1082.1"/>
<rect x="31.7" y="787.2" class="st1" width="1312.3" height="298.6"/>
<rect x="1106.9" y="37.9" transform="matrix(1.745326e-03 -1 1 1.745326e-03 1039.7683 1219.3813)" class="st2" width="47.4" height="102.1"/>
<rect x="1207.6" y="37.2" transform="matrix(1.745326e-03 -1 1 1.745326e-03 1140.9581 1319.3794)" class="st2" width="47.4" height="102.1"/>
<rect x="1156.1" y="-10.2" transform="matrix(1.745326e-03 -1 1 1.745326e-03 1136.495 1220.9485)" class="st3" width="47.4" height="102.8"/>
<rect x="1417.7" y="584.4" transform="matrix(1.745326e-03 -1 1 1.745326e-03 803.4905 2075.7356)" class="st2" width="47.4" height="102.1"/>
<rect x="1518.4" y="583.7" transform="matrix(1.745326e-03 -1 1 1.745326e-03 904.6902 2175.7236)" class="st2" width="47.4" height="102.1"/>
<rect x="1466.9" y="536.4" transform="matrix(1.745326e-03 -1 1 1.745326e-03 900.2271 2077.2927)" class="st3" width="47.4" height="102.8"/>
<rect x="452.1" y="517.1" transform="matrix(3.141444e-03 -1 1 3.141444e-03 -93.7925 1042.0931)" class="st2" width="47.4" height="102.1"/>
<rect x="351.4" y="517.6" transform="matrix(3.141444e-03 -1 1 3.141444e-03 -194.7207 941.9599)" class="st2" width="47.4" height="102.1"/>
<rect x="404.2" y="564.3" transform="matrix(3.141444e-03 -1 1 3.141444e-03 -189.1177 1041.7286)" class="st3" width="47.4" height="102.8"/>
<rect x="376" y="688.9" class="st2" width="102.1" height="47.4"/>
<rect x="476.7" y="688.1" class="st2" width="102.1" height="47.4"/>
<rect x="424.7" y="641.2" class="st3" width="102.8" height="47.4"/>
<rect x="1732.2" y="165" transform="matrix(3.141444e-03 -1 1 3.141444e-03 1534.3998 1971.2253)" class="st2" width="47.4" height="102.1"/>
<rect x="1631.5" y="165.5" transform="matrix(3.141444e-03 -1 1 3.141444e-03 1433.4717 1871.0923)" class="st2" width="47.4" height="102.1"/>
<rect x="1684.4" y="212.2" transform="matrix(3.141444e-03 -1 1 3.141444e-03 1439.0748 1970.861)" class="st3" width="47.4" height="102.8"/>
<rect x="1656.1" y="336.8" class="st2" width="102.1" height="47.4"/>
<rect x="1756.8" y="336" class="st2" width="102.1" height="47.4"/>
<rect x="1704.9" y="289.1" class="st3" width="102.8" height="47.4"/>
<rect x="1480.7" y="117.3" transform="matrix(1.745326e-03 -1 1 1.745326e-03 1333.5352 1672.4462)" class="st2" width="47.4" height="102.1"/>
<rect x="1581.4" y="116.6" transform="matrix(1.745326e-03 -1 1 1.745326e-03 1434.7347 1772.4541)" class="st2" width="47.4" height="102.1"/>
<rect x="1421.2" y="257.3" transform="matrix(1.570730e-03 -1 1 1.570730e-03 1134.3645 1752.7786)" class="st2" width="47.4" height="102.1"/>
<rect x="1529.9" y="69.2" transform="matrix(1.745326e-03 -1 1 1.745326e-03 1430.2616 1674.0132)" class="st3" width="47.4" height="102.8"/>
<rect x="1320.6" y="258" transform="matrix(1.570730e-03 -1 1 1.570730e-03 1033.1359 1652.787)" class="st2" width="47.4" height="102.1"/>
<rect x="1372.1" y="304.6" transform="matrix(1.570730e-03 -1 1 1.570730e-03 1037.6246 1751.2609)" class="st3" width="47.4" height="102.8"/>
<rect x="886.9" y="532.8" transform="matrix(1.745326e-03 -1 1 1.745326e-03 325.1635 1493.3401)" class="st2" width="47.4" height="102.1"/>
<rect x="987.5" y="532.1" transform="matrix(1.745326e-03 -1 1 1.745326e-03 426.3633 1593.328)" class="st2" width="47.4" height="102.1"/>
<rect x="936" y="484.7" transform="matrix(1.745326e-03 -1 1 1.745326e-03 421.9001 1494.8972)" class="st3" width="47.4" height="102.8"/>
<rect x="980" y="626.8" transform="matrix(1.745326e-03 -1 1 1.745326e-03 324.1344 1680.3544)" class="st2" width="47.4" height="102.1"/>
<rect x="1080.7" y="626.1" transform="matrix(1.745326e-03 -1 1 1.745326e-03 425.3341 1780.3623)" class="st2" width="47.4" height="102.1"/>
<rect x="1029.2" y="578.8" transform="matrix(1.745326e-03 -1 1 1.745326e-03 420.881 1681.9015)" class="st3" width="47.4" height="102.8"/>
<rect x="1091" y="531.4" transform="matrix(1.745326e-03 -1 1 1.745326e-03 530.2834 1696.0908)" class="st2" width="47.4" height="102.1"/>
<rect x="1191.6" y="530.7" transform="matrix(1.745326e-03 -1 1 1.745326e-03 631.4632 1796.0786)" class="st2" width="47.4" height="102.1"/>
<rect x="1140.1" y="483.4" transform="matrix(1.745326e-03 -1 1 1.745326e-03 627.0002 1697.6279)" class="st3" width="47.4" height="102.8"/>
<line class="st4" x1="0" y1="790.3" x2="1920.6" y2="787.5"/>
<path class="st5" d="M1920.6,569.6c-213.1-25.8-544-55.5-840.7-31.3c-91.6,7.5-212.7,22.7-258.4,106.8
	c-24,44.2-26.9,106.9,2.7,143.8c53.9,67.2,198.3,27.3,272-6.8c65-30.1,62.3-49.7,118.9-82.2c131.6-75.5,290.3-52.5,444.3-30.1
	c147.7,21.4,224.8,54.8,259.7,13.7c0.5-0.5,0.9-1.1,1.3-1.7L1920.6,569.6L1920.6,569.6z"/>
<path class="st6" d="M911,738.2c0-43.2,172.2-78.1,384.9-78.1"/>
<polygon class="st7" points="790.3,681.7 809.6,673.5 974,740.6 959.2,740.6 "/>
<path class="st8" d="M966.6,817l181.4-53.4l27.4-49.3c-30.2,3.3-64.3,8.7-101.4,17.8c-39,9.5-73.4,21.2-102.7,32.9
	C969.7,782.3,968.1,799.6,966.6,817z"/>
<path class="st6" d="M1542,673.3c0.6-2-7.2-4.1-14.2-10.1c-28.3-24.2-13.5-86.5-14.2-86.5c-0.7,0-12.6,51.7-13.6,72.9
	c-0.1,1.2-0.2,4.4-2.4,7.1c-6,7.4-21.2,3.2-21.3,4.2C1475.9,662.8,1540.3,678.9,1542,673.3L1542,673.3z"/>
<path class="st9" d="M0,1089l150.7,2.8c89.5-125,84.5-275.8,8.2-352.6C103.1,683,26.8,682.8,0,683.4"/>
<polygon class="st10" points="784.9,745.1 790.4,894.8 972.6,969.7 1060.3,915.7 1112.3,782.5 1097.3,778.4 952.1,821.3 "/>
<path class="st6" d="M1733.8,681.6c0.6-2-7.2-4.1-14.2-10.1c-28.3-24.2-13.5-86.5-14.2-86.5c-0.7,0-12.6,51.7-13.6,72.9
	c-0.1,1.2-0.2,4.4-2.4,7.1c-6,7.4-21.2,3.2-21.3,4.2C1667.6,671.1,1732.1,687.2,1733.8,681.6L1733.8,681.6z"/>
<path class="st9" d="M1924.3,649c-242.6-8-432.4-1.6-551.5-1.4c-30.2,0-103,5-177.8,43c-59.2,30.1-87.8,70.5-93.8,79.1
	c-30.3,44.2-36.7,87.1-40,111c-4.8,35,2.9,89.7,44,134.6c49.9,54.4,131.7,64.9,148.4,73.8l669.7,2.6L1924.3,649L1924.3,649z"/>
<g>
	<defs>
		<rect id="SVGID_1_" x="1315.1" y="558.8" width="146.6" height="183.2"/>
	</defs>
	<clipPath id="SVGID_00000053546157975299792790000008813378003065030797_">
		<use xlink:href="#SVGID_1_"  style="overflow:visible;"/>
	</clipPath>
	<g style="clip-path:url(#SVGID_00000053546157975299792790000008813378003065030797_);">
		<g>
			<defs>
				<rect id="SVGID_00000121255608546802812610000015603200535298307763_" x="1315.1" y="558.8" width="146.6" height="183.2"/>
			</defs>
			<clipPath id="SVGID_00000029735402696682954730000000951633118789040307_">
				<use xlink:href="#SVGID_00000121255608546802812610000015603200535298307763_"  style="overflow:visible;"/>
			</clipPath>
			<g style="clip-path:url(#SVGID_00000029735402696682954730000000951633118789040307_);">
				<path class="st13" d="M1358.2,639.4c0,1.4-1.1,2.6-2.3,2.6s-2.3-1.2-2.3-2.6s1.1-2.6,2.3-2.6S1358.2,638,1358.2,639.4"/>
				<path class="st13" d="M1344.1,730.4c0,1.4-1.1,2.6-2.3,2.6s-2.3-1.2-2.3-2.6s1.1-2.6,2.3-2.6S1344.1,729,1344.1,730.4"/>
				<path class="st14" d="M1321.7,596.1c-2-3-4.8-9.4-2.8-12.1c1.8-2.4,6.3-0.3,8-2.9c1.9-2.8-2.2-6.8-0.4-10.3
					c1.8-3.5,8.4-4.5,11-2c1.7,1.7,0.9,4.2,2.8,5.2c1.6,0.8,4.1-0.1,4.9-1.8c0.8-1.7-0.9-2.9-0.4-5.2c0.5-2.5,3.1-4.9,5.3-4.7
					c3.2,0.3,4.4,6,6.3,5.6c1.6-0.3,1.4-4.8,3.2-5.2c1.4-0.3,1.9,2.3,5.1,3.8c2.4,1.2,3.2,0.2,4.7,1.3c2.3,1.8,1.2,4.7,3.4,6.3
					c1.7,1.2,4.5,1.2,5.7-0.2c1.4-1.7-0.6-3.9,0.6-7.2c0.8-2.1,2.8-4.5,5.5-4.5c2.3,0,4.5,1.8,5.3,3.8c1.1,2.9-0.9,5.3,0.2,6.3
					c1,0.9,4-0.2,4.9-2.2c0.9-2.2-1.4-4.2-0.4-5.8c0.8-1.3,3.2-1.8,4.7-0.9c1.3,0.8,1.1,2.2,2.8,4.9c0,0,1.1,1.8,2.8,3.4
					c3.7,3.5,6.7,2,8,4.3c1.9,3.2-2.7,8.4-0.6,11c0.7,1,1.7,0.2,3.4,1.1c2.5,1.4,4.2,5,3.4,6.9c-1,2.3-5.6,2.1-7.2,2
					C1387.5,596.2,1335.2,616.4,1321.7,596.1"/>
				<path class="st15" d="M1321.7,595.8c-2.3-2.2-3.6-5.5-2.8-6.3c1.1-1.1,4.8,3.3,10.7,2.6c2.5-0.3,3.8-1.3,6.8-0.9
					c0.3,0,0.9,0.2,4.1,1.3c3.6,1.3,5.4,1.9,5.4,2.2C1346,596.6,1329.1,602.7,1321.7,595.8"/>
				<path class="st16" d="M1412.9,736.4h-87.4c-2.5,0-4.6-2.1-4.6-4.6V599.6c0-2.5,2.1-4.6,4.6-4.6h87.4c2.5,0,4.6,2.1,4.6,4.6
					v132.2C1417.5,734.3,1415.5,736.4,1412.9,736.4"/>
				<line class="st17" x1="1348.5" y1="594.5" x2="1347.6" y2="736.1"/>
				<line class="st18" x1="1348.5" y1="594.5" x2="1347.6" y2="736.1"/>
				<path class="st19" d="M1419,633.5h-98.3c-2.7,0-4.8-2.2-4.8-4.8v-4c0-2.7,2.2-4.8,4.8-4.8h98.3c2.7,0,4.8,2.2,4.8,4.8v4
					C1423.8,631.4,1421.6,633.5,1419,633.5"/>
				<path class="st19" d="M1433.8,607l-13.4,10.5c-1.8,1.5-2.9,3.7-2.9,6v25.6c0,2.3,1.1,4.6,2.9,6l13.4,10.5c2.8,2.2,6.7,2.2,9.5,0
					l13.4-10.5c1.8-1.5,2.9-3.7,2.9-6v-25.6c0-2.3-1.1-4.6-2.9-6l-13.4-10.5C1440.4,604.8,1436.5,604.8,1433.8,607 M1451.7,647.5
					l-13.3,10.4l-13.3-10.4v-20.8l13.3-10.4l13.3,10.4V647.5z"/>
				<path class="st19" d="M1356.4,730.4c0,1.4-1.1,2.6-2.3,2.6s-2.3-1.2-2.3-2.6s1.1-2.6,2.3-2.6S1356.4,729,1356.4,730.4"/>
				<path class="st19" d="M1413.3,730.4c0,1.4-1.1,2.6-2.3,2.6s-2.3-1.2-2.3-2.6s1.1-2.6,2.3-2.6S1413.3,729,1413.3,730.4"/>
				<path class="st19" d="M1414.6,639.4c0,1.4-1.1,2.6-2.3,2.6s-2.3-1.2-2.3-2.6s1.1-2.6,2.3-2.6S1414.6,638,1414.6,639.4"/>
				<path class="st19" d="M1357.3,600.9c0,1.4-1.1,2.6-2.3,2.6s-2.3-1.2-2.3-2.6s1.1-2.6,2.3-2.6S1357.3,599.4,1357.3,600.9"/>
				<path class="st19" d="M1357.3,615.8c0,1.4-1.1,2.6-2.3,2.6s-2.3-1.2-2.3-2.6s1.1-2.6,2.3-2.6S1357.3,614.4,1357.3,615.8"/>
				<path class="st19" d="M1414.2,615.8c0,1.4-1.1,2.6-2.3,2.6s-2.3-1.2-2.3-2.6s1.1-2.6,2.3-2.6S1414.2,614.4,1414.2,615.8"/>
				<path class="st13" d="M1414.4,600.9c0,1.4-1.1,2.6-2.3,2.6s-2.3-1.2-2.3-2.6s1.1-2.6,2.3-2.6S1414.4,599.4,1414.4,600.9"/>
				<path class="st19" d="M1342.9,639.4c0,1.4-1.1,2.6-2.3,2.6s-2.3-1.2-2.3-2.6s1.1-2.6,2.3-2.6S1342.9,638,1342.9,639.4"/>
				<path class="st19" d="M1343.8,615.8c0,1.4-1.1,2.6-2.3,2.6s-2.3-1.2-2.3-2.6s1.1-2.6,2.3-2.6S1343.8,614.4,1343.8,615.8"/>
				<path class="st19" d="M1344.1,600.9c0,1.4-1.1,2.6-2.3,2.6s-2.3-1.2-2.3-2.6s1.1-2.6,2.3-2.6S1344.1,599.4,1344.1,600.9"/>
				<path class="st14" d="M1365.9,591.9c-0.6,0.7-2.1,2.7-1.5,4.6c0.5,1.7,2.7,2.9,4.6,2.8c2.3,0,3.1-1.8,4.4-1.3
					c0.9,0.4,0.9,1.6,1.7,4.6c0.9,3.1,1.3,4.6,2.2,5.5c2.2,2.1,7.1,2.3,9.6,0.2c1.7-1.4,1.7-3.3,3.7-3.9c1.4-0.4,2.7,0.2,2.8,0.2
					c1.8,0.8,1.5,2.5,3.1,3.5c1.8,1.1,4.9,0.5,6.3-1.1c1-1.2,0.5-2.2,2-4.1c0.7-0.9,1.3-1.7,2.2-1.7c1.4-0.1,1.6,1.8,3.5,2.6
					c2.2,0.9,4.6-0.5,5.2-0.9c0.4-0.2,2.7-1.6,3.5-4.4c0,0,0.5-1.8,0-3.7C1417.1,587.4,1372.8,583.1,1365.9,591.9"/>
				<path class="st14" d="M1356.6,601.6c2.2,1.2,6.8-0.4,9.3-3.5c3-3.8,1.3-8,1-8.8c-1.3-3.3-4.4-4.3-6.6-5
					c-2.4-0.8-4.6-1.5-7.2-0.3c-3.8,1.7-5.3,5.7-5.6,6.4c-1.2,3.1-1.2,7.2,0.6,7.7c1.7,0.4,3.7-2.7,5.6-2.3
					C1355.7,596.2,1354.3,600.3,1356.6,601.6"/>
				<path class="st14" d="M1355.7,599.8c-0.2,2,0.5,5.1,2.1,11.2c0.2,1,0.6,2.3,1.4,2.5c1,0.2,2.2-1.8,2.3-2c0.5-0.9,0.7-1.7,0.9-4
					c0.3-3.8,0-4,0.5-5.4c0.7-2.2,1.7-2.2,1.8-3.6c0.2-2.8-3.8-6.3-6.2-5.6C1356.3,593.5,1356,597.1,1355.7,599.8"/>
				<path class="st14" d="M1397.6,620.5c0.9,0.9,2.8,1.1,3.8,0.3c1.2-1.1,0.1-3,0.3-7.5c0.1-1.5,0.2-4.5,1.5-7.8
					c1.4-3.3,2.7-3.5,2.6-5.2c-0.2-2.8-4.1-5.2-7.4-5.7c-0.7-0.1-4.7-0.7-5.9,1.3c-0.3,0.5-0.6,1.3,2.8,9.8c0.8,1.9,1.3,3.1,1.5,4.9
					c0.2,1.3,0.2,2.5,0.3,4.7C1397.2,619.1,1396.9,619.8,1397.6,620.5"/>
				<path class="st15" d="M1325.6,581.9c0,1.9,8.4,4.9,10.2,2.6c1.6-2-2-8.5-6.5-10c-0.3-0.1-2.2-0.8-2.8,0c-0.8,1,1.6,3.2,0.7,5.5
					C1326.6,581.2,1325.6,581.2,1325.6,581.9"/>
				<path class="st15" d="M1345.4,585.2c1.2-2.8,5.6-4.5,8.1-2.8c1.9,1.3,2.3,4.2,1.7,4.6c-0.6,0.4-2-2.6-4.4-2.6
					c-2.8,0-4.5,4.4-5.4,3.9C1344.9,588,1344.9,586.4,1345.4,585.2"/>
				<path class="st15" d="M1380.5,587.1c-0.6,0.6-10.6-7.7-9.6-9.4c0.4-0.7,3.3-1,3.7-1.1c0,0,0.1,0,0.1,0s0.7,0,1.3,0
					c0.7,0,1.1,0.1,1.4,0.2c1.1,0.5,1.7,2.1,1.3,2.6c-0.6,0.7-2.8-1-3.3-0.4C1374.6,580,1381,586.6,1380.5,587.1"/>
				<path class="st15" d="M1391.1,596c0.9,2.6,3.2,4.5,3.8,4c0.7-0.5-0.2-4.3-2-6.9c-0.1-0.2-0.4-0.6-1-1.2
					c-2.4-2.5-5.2-3.2-5.3-2.8c-0.1,0.4,2.9,1.4,4,4.7C1391,594.8,1390.8,595,1391.1,596"/>
				<path class="st15" d="M1396.2,580.4c0,1.9,7.4,4.4,8.7,2.6c0.6-0.8-0.5-2.7-2.6-6.5c-0.8-1.3-1.4-2.4-4.4-6.8
					c-2.8-4.1-3.3-4.8-3.4-4.7c-0.4,0.2,0.7,4.1,2.6,7.8c1.1,2.2,2,3.4,1.5,4.8C1398,579.2,1396.2,579.4,1396.2,580.4"/>
				<path class="st15" d="M1353.4,595.7c1.6-2.8,2.4-2.9,2.7-2.8c1.2,0.3,1.4,4.3,1.5,5.8c0.1,1.3,0,1.6,0.1,3.2
					c0.2,1.8,0.3,1.8,0.5,3.6c0.2,2.1,0,2.4,0.3,3.6c0.2,0.5,0.4,1.3,0.7,2c0.2,0.6,0.6,1.5,0.6,1.5c-0.2,0.6-0.5,1.3-0.8,1.3
					c-0.5,0-0.8-1.5-1.2-3c-0.3-1.4-0.9-3.3-1.8-5.5"/>
				<path class="st15" d="M1346.4,563.8c1.4-0.1,1.6,3,4,3.9c1.6,0.5,2.7-0.5,3.4,0.2c0.8,0.8,0.4,3.3-1.1,4.1
					c-0.9,0.5-2,0.1-2.7-0.1c-1.6-0.5-1.5-1.3-3.6-2.5c-1-0.5-1.4-0.6-1.8-1.2c-0.5-0.9-0.1-2,0-2.3
					C1344.8,565.8,1345.4,563.9,1346.4,563.8"/>
				<path class="st15" d="M1359.3,577.4c0.4,0.1,3.7-4.7,1.8-6.7c-1.6-1.5-5.3,0-5.3,0.3c0,0.2,2.1-0.3,3.3,0.8
					C1360.7,573.6,1359,577.3,1359.3,577.4"/>
				<path class="st15" d="M1363.3,589.3c1.3-0.2,1.7,4,4.4,4.9c2.1,0.7,3.8-1.2,4.8-0.2c0.4,0.4,0.4,1,0.5,1.4
					c0.1,1.2-0.5,2-0.7,2.2c-1.3,1.7-3.6,1.6-3.7,1.6c-1.3-0.1-2.2-0.7-2.9-1.2c-0.7-0.5-4-2.9-3.6-6.2
					C1362.1,591,1362.5,589.4,1363.3,589.3"/>
				<path class="st15" d="M1377.6,600.6c3,0.4,5.9,0.2,5.8,2.8c-0.1,3.3-3.7,5.7-5.6,5.1c-1.1-0.4-1.6-1.8-2.5-4.1
					c-0.7-2-1-3.8-1.2-5.1"/>
				<path class="st20" d="M1315.7,628.3c0,0.2-0.4,2.4,1.2,4.1c1.8,1.8,4.2,1.3,4.3,1.3c32.1-0.1,64.2-0.2,96.3-0.2l0.2-5.5
					L1315.7,628.3L1315.7,628.3z"/>
				<polygon class="st20" points="1417.7,628 1419.1,628.3 1418.8,649.8 1417.2,649.9 				"/>
				<path class="st20" d="M1418.2,647.7l20.1,15.1l21.3-13.7c0,0.8-0.1,2.3-1.1,3.8c-0.4,0.7-0.9,1.2-1.3,1.5
					c-4.9,3.9-9.7,7.8-14.6,11.7c-0.6,0.4-2,1.1-4,1.2c-2.2,0-3.8-0.9-4.4-1.3c-4.9-3.9-9.9-7.9-14.8-11.8c-0.4-0.4-0.8-0.9-1.2-1.5
					c-0.6-1.1-0.9-2.1-1-2.8C1417.5,649.2,1417.8,648.5,1418.2,647.7"/>
				<path class="st20" d="M1425,626.5l-0.4-2.3l13.3-10.3l14.5,10.8l-0.7,2l-13.5-9.4L1425,626.5
					C1425.1,626.6,1425,626.6,1425,626.5"/>
			</g>
		</g>
	</g>
</g>
<path class="st21" d="M1524.8,684.4l14.3,121l4.3,0l6.1,0l55.4-0.3c0,0,18.8-117.6,19.1-118.3c0.1-0.3-25.5-11.8-51.3-11.9
	C1546.6,674.6,1524.8,684.4,1524.8,684.4L1524.8,684.4z"/>
<polyline class="st22" points="1542.4,798.7 1599.5,798.9 1617.4,701.3 1531.2,700 "/>
<path class="st23" d="M1531.2,699.3c-0.9-6.6,4.5-15.4,9.9-16.8c8.2-2.1,12.6,13.4,24.6,13.3c0.2,0,0.3,0,0.5,0
	c9.4-0.6,11.1-4.6,17.3-4.6c2.9,0,4,0.9,7.5,0.4c1.9-0.3,4.4-0.7,4.9-2.3c0.7-2.1-2.3-4.8-1.7-5.6c0.5-0.7,3.1,0.4,5,1.8
	c1.7,1.3,1.7,2,3.9,3.8c0.3,0.2,0.9,0.8,3.1,2.1c3.2,2,3.8,2.3,5.5,3.3c3,2,5.7,3.8,5.8,5.8c0,2.9-5.8,4.7-7,5.7
	C1592.2,721.2,1533.8,719.1,1531.2,699.3L1531.2,699.3L1531.2,699.3z"/>
<path class="st23" d="M1558.4,685.6c0.2,4.4,4.1,6.9,5,7.4c5.3,3.2,11.7,0.3,11.8,0.8c0.1,0.7-15.5,6.1-18.5,11.7c0,0,0,0.2-0.2,0.3
	c-1.5,1.4-13.2,0.8-16.4-3.7c-1.5-2.1,0-3.4-1.8-9.1c-0.8-2.7-1.3-2.8-1.4-4.4c-0.1-1.9,1.5-6.1,3.7-8.8c3.1-3.8,10.2-8,19.9-10.8
	c4.7-0.9,8.9,0.7,10.9,4.1c1.9,3.2,1.7,8,0.5,8.5c-1.4,0.7-3-4.8-6.5-5C1562.2,676.3,1558.1,680.9,1558.4,685.6L1558.4,685.6z"/>
<path class="st24" d="M1550.9,700.1l5.2-5.2c1.4-1.4,3.7-1.4,5.1,0l5,5c1.4,1.4,1.4,3.7,0,5.1l-5.2,5.2c-1.4,1.4-3.7,1.4-5.1,0l-5-5
	C1549.5,703.8,1549.5,701.5,1550.9,700.1z"/>
<path class="st23" d="M1588,671.3c-0.4,1.4,2.6,3,2.4,5.6c-0.2,1.8-1.8,2.6-1.6,2.9c0.3,0.5,4.1-0.2,4.7-3.7
	c0.4-2.1-0.4-4.6-2.1-5.4C1590.2,670,1588.3,670.3,1588,671.3L1588,671.3L1588,671.3z"/>
<path class="st24" d="M1568.6,741.7l5.2-5.2c1.4-1.4,3.7-1.4,5.1,0l5,5c1.4,1.4,1.4,3.7,0,5.1l-5.2,5.2c-1.4,1.4-3.7,1.4-5.1,0l-5-5
	C1567.2,745.4,1567.2,743.1,1568.6,741.7z"/>
<path class="st24" d="M1556.7,766.1l4.6-1.1c1.9-0.5,3.9,0.7,4.3,2.7l2.4,10.1c0.5,1.9-0.7,3.9-2.7,4.3l-4.6,1.1
	c-1.9,0.5-3.9-0.7-4.3-2.7l-2.4-10.1C1553.5,768.5,1554.7,766.6,1556.7,766.1z"/>
<path class="st24" d="M1591.7,721.4l3.2-3.2c1.1-1.1,2.8-1.1,3.8,0l3.8,3.8c1.1,1.1,1.1,2.8,0,3.8l-3.2,3.2c-1.1,1.1-2.8,1.1-3.8,0
	l-3.8-3.8C1590.7,724.2,1590.7,722.5,1591.7,721.4z"/>
<path class="st21" d="M1526.8,684.4l14.3,121l65.8-0.4c0,0,18.8-117.6,19.1-118.3c0.1-0.1-5.1,9.2-24.6,14
	c-18.5,4.5-43.1,1.5-44.2,1.3C1530.6,697.1,1526.8,684.4,1526.8,684.4z"/>
<polygon class="st10" points="949.5,825.9 784.9,750.6 790.3,680.7 960.3,742.3 "/>
<polygon class="st25" points="966.6,815.1 974,741.3 959.2,741.3 950.7,823.2 "/>
<path class="st6" d="M985.7,695.1c-0.6-2,7.2-4.1,14.2-10.1c28.3-24.2,13.5-86.5,14.2-86.5c0.7,0,12.6,51.7,13.6,72.9
	c0.1,1.2,0.2,4.4,2.4,7.1c6,7.4,21.2,3.2,21.3,4.2C1051.8,684.5,987.4,700.7,985.7,695.1L985.7,695.1z"/>
<path class="st6" d="M1133.7,680.4c-0.6-2,7.2-4.1,14.2-10.1c28.3-24.2,13.5-86.5,14.2-86.5c0.7,0,12.6,51.7,13.6,72.9
	c0.1,1.2,0.2,4.4,2.4,7.1c6,7.4,21.2,3.2,21.3,4.2C1199.8,669.9,1135.4,686,1133.7,680.4L1133.7,680.4z"/>
<polygon class="st26" points="76.8,608.4 76.8,706.9 37.6,728.4 42.7,874.9 85.6,898.9 147.5,887.5 147.5,729.7 115.9,706.9 
	114.7,608.4 "/>
<polygon class="st27" points="92.6,740.9 92.3,747.3 85.6,898.9 42.7,874.9 37.6,728.4 "/>
<polygon class="st28" points="76.8,706.9 99.5,709.1 92.6,740.9 37.6,728.4 "/>
<polygon class="st26" points="85.6,898.9 147.5,887.5 147.5,729.7 92.6,740.9 "/>
<polygon class="st29" points="99.5,709.1 115.9,706.9 114.7,608.4 92.6,608.4 "/>
<polygon class="st26" points="1186.1,769.9 1200.5,823 1220,830.2 1220,867.2 1203.1,891 1234.3,904.5 1262,891 1243.6,870.2 
	1237.4,831.3 1256.1,821 1268.2,764.6 1227.2,755.4 "/>
<polygon class="st30" points="1227.2,835.4 1227.2,777.2 1186.1,769.9 1200.5,823 "/>
<polygon class="st31" points="1268.2,764.4 1256.1,825.3 1227.2,835.2 1227.2,778 "/>
<polygon class="st26" points="18.3,920.2 34.6,980.8 56.8,988.9 56.8,1031 37.6,1058.2 73.2,1073.5 104.7,1058.2 83.7,1034.5 
	76.7,990.1 98,978.4 111.7,914.2 65,903.7 "/>
<polygon class="st30" points="65,994.8 65,928.5 18.3,920.2 34.6,980.8 "/>
<polygon class="st31" points="112.1,913.4 98.4,983.1 65.4,994.5 65.4,929 "/>
<polygon class="st26" points="1885.8,606.7 1875.6,648.5 1861.8,654.1 1861.8,683.1 1873.8,701.9 1851.5,712.4 1831.8,701.9 
	1844.9,685.5 1849.3,654.9 1836,646.9 1827.4,602.6 1856.6,595.3 "/>
<polygon class="st30" points="1856.6,658.1 1856.6,612.5 1885.8,606.7 1875.6,648.5 "/>
<polygon class="st31" points="1827.4,604.4 1836,648.7 1856.6,656 1856.6,614.3 "/>
<polygon class="st32" points="1247.7,770.8 1227.2,766.2 1206.7,773.5 1227.2,777.2 "/>
<polygon class="st32" points="1876.1,609.8 1856.3,602.9 1835.1,608 1855.1,613.9 "/>
<polygon class="st32" points="100.1,918.1 67.4,909.9 34.7,922.9 67.4,929.3 "/>
<rect x="696.5" y="126.2" transform="matrix(3.141444e-03 -1 1 3.141444e-03 540.6678 896.9141)" class="st2" width="47.4" height="102.1"/>
<rect x="595.8" y="126.8" transform="matrix(3.141444e-03 -1 1 3.141444e-03 439.7396 796.7809)" class="st2" width="47.4" height="102.1"/>
<rect x="648.7" y="173.5" transform="matrix(3.141444e-03 -1 1 3.141444e-03 445.3427 896.5496)" class="st3" width="47.4" height="102.8"/>
<rect x="620.4" y="298.1" class="st2" width="102.1" height="47.4"/>
<rect x="721.1" y="297.3" class="st2" width="102.1" height="47.4"/>
<rect x="669.2" y="250.4" class="st3" width="102.8" height="47.4"/>
<rect x="443.2" y="174.7" transform="matrix(1.745326e-03 -1 1 1.745326e-03 240.3467 692.1863)" class="st2" width="47.4" height="102.1"/>
<rect x="543.8" y="174" transform="matrix(1.745326e-03 -1 1 1.745326e-03 341.5365 792.1843)" class="st2" width="47.4" height="102.1"/>
<rect x="492.3" y="126.7" transform="matrix(1.745326e-03 -1 1 1.745326e-03 337.0634 693.7434)" class="st3" width="47.4" height="102.8"/>
<rect x="596.7" y="80.6" transform="matrix(1.745326e-03 -1 1 1.745326e-03 487.6846 751.8923)" class="st2" width="47.4" height="102.1"/>
<rect x="697.4" y="79.9" transform="matrix(1.745326e-03 -1 1 1.745326e-03 588.8844 851.8803)" class="st2" width="47.4" height="102.1"/>
<rect x="645.9" y="32.6" transform="matrix(1.745326e-03 -1 1 1.745326e-03 584.4113 753.4395)" class="st3" width="47.4" height="102.8"/>
<rect x="101.5" y="308" transform="matrix(1.745326e-03 -1 1 1.745326e-03 -234.0631 483.6151)" class="st2" width="47.4" height="102.1"/>
<rect x="202.2" y="307.3" transform="matrix(1.745326e-03 -1 1 1.745326e-03 -132.8534 583.5931)" class="st2" width="47.4" height="102.1"/>
<rect x="150.6" y="260" transform="matrix(1.745326e-03 -1 1 1.745326e-03 -137.3265 485.1522)" class="st3" width="47.4" height="102.8"/>
<rect x="131.3" y="85.4" transform="matrix(1.745326e-03 -1 1 1.745326e-03 18.2712 291.1541)" class="st2" width="47.4" height="102.1"/>
<rect x="421.2" y="391.8" transform="matrix(1.745326e-03 -1 1 1.745326e-03 1.2746 887.04)" class="st2" width="47.4" height="102.1"/>
<rect x="180.4" y="37.4" transform="matrix(1.745326e-03 -1 1 1.745326e-03 115.0178 292.7012)" class="st3" width="47.4" height="102.8"/>
<rect x="59.8" y="150.1" class="st33" width="965.5" height="369"/>
<rect x="72.9" y="164.4" class="st17" width="1097.6" height="383.3"/>
<text transform="matrix(1 0 0 1 72.8647 191.4383)"><tspan x="0" y="0" class="st28 st34 st35">Developers: faku99, Daxid</tspan><tspan x="0" y="51" class="st28 st34 st35">Graphic design: heaspery, Thanaterosa, sleepy_seaslug</tspan><tspan x="0" y="102" class="st28 st34 st35">Sound design: astonedf</tspan><tspan x="0" y="153" class="st28 st34 st35">Head cook: ludelafo</tspan><tspan x="0" y="204" class="st28 st34 st35">Game design: everyone included</tspan><tspan x="0" y="292.8" class="st28 st34 st35">The game was made with love using Godot 4.0</tspan></text>
<g>
	<path class="st36" d="M134.2,82.8v-12H90.1v36.4h44.1v-8.3L149,84.1v37.8H75.3V56H149v12L134.2,82.8z"/>
	<path class="st36" d="M230.9,98.1l5.4,23.8h-14.8l-5.4-23.8h-39.7v23.8h-14.7V56h73.6v42.1H230.9z M220.6,70.7h-44.1v12.6h44.1
		V70.7z"/>
	<path class="st36" d="M263.8,70.7v12.6h54.4l-14.7,14.8h-39.7v9.1h58.9v14.8H249V56h73.6v14.8H263.8z"/>
	<path class="st36" d="M336.6,56h73.6v50l-16.2,15.9h-57.5V56z M351.4,107.1H387l8.4-8.2V70.7h-44.1V107.1z"/>
	<path class="st36" d="M441,121.9h-14.1V56H441V121.9z"/>
	<path class="st36" d="M450.5,56h73.6v14.8h-29.4v51.1H480V70.7h-29.4V56z"/>
	<path class="st36" d="M538.2,56h71.9v10.9l-14.4,14.8V70.7h-43.1v11.2h57.5v40h-71.9v-10.5l14.4-14.7v10.5h43.1V96.7h-57.5V56z"/>
</g>
</svg>
