<?xml version="1.0" encoding="UTF-8"?><svg id="Calque_1" xmlns="http://www.w3.org/2000/svg" viewBox="0 0 394 474.16"><defs><style>.cls-1{fill:#4d6587;}.cls-2{fill:#597291;}.cls-3{fill:#f02b61;}</style></defs><rect class="cls-1" x="9.5" y="9.5" width="375" height="455.16" rx="27.43" ry="27.43"/><path class="cls-3" d="m357.07,19c9.89,0,17.93,8.04,17.93,17.93v400.3c0,9.89-8.04,17.93-17.93,17.93H36.93c-9.89,0-17.93-8.04-17.93-17.93V36.93c0-9.89,8.04-17.93,17.93-17.93h320.14m0-19H36.93C16.53,0,0,16.53,0,36.93v400.3c0,20.4,16.53,36.93,36.93,36.93h320.14c20.4,0,36.93-16.53,36.93-36.93V36.93c0-20.4-16.53-36.93-36.93-36.93h0Z"/><rect class="cls-2" x="20" y="96.33" width="354" height="67"/><rect class="cls-2" x="20" y="238.33" width="354" height="47"/><rect class="cls-2" x="20" y="311" width="355" height="36.92"/><rect class="cls-2" x="20" y="147.65" width="355" height="36.92"/><rect class="cls-2" x="20" y="369.33" width="354" height="67"/></svg>