<?xml version="1.0" encoding="UTF-8"?>
<svg id="Layer_1" data-name="Layer 1" xmlns="http://www.w3.org/2000/svg" viewBox="0 0 1933.62 1114.42">
  <defs>
    <style>
      .cls-1 {
        fill: #936145;
      }

      .cls-2 {
        fill: #351609;
      }

      .cls-3 {
        fill: #21100b;
      }

      .cls-4 {
        fill: #587fb7;
      }

      .cls-5 {
        fill: #40597c;
      }

      .cls-6 {
        fill: #30a530;
      }

      .cls-7 {
        fill: #262423;
      }

      .cls-8 {
        stroke-width: .26px;
      }

      .cls-8, .cls-9, .cls-10 {
        fill: #1b2b45;
      }

      .cls-8, .cls-10 {
        stroke: #1b2b45;
        stroke-linejoin: round;
      }

      .cls-11, .cls-12 {
        stroke-width: 3.01px;
      }

      .cls-11, .cls-12, .cls-13, .cls-14, .cls-15, .cls-16, .cls-17, .cls-18, .cls-19 {
        fill: none;
      }

      .cls-11, .cls-12, .cls-13, .cls-14, .cls-15, .cls-17, .cls-18, .cls-19 {
        stroke-miterlimit: 10;
      }

      .cls-11, .cls-13 {
        stroke: #3d516d;
      }

      .cls-20 {
        fill: #f47d62;
      }

      .cls-12, .cls-15, .cls-17, .cls-19 {
        stroke: #385682;
      }

      .cls-21 {
        fill: #ee2d62;
      }

      .cls-22 {
        fill: #d18cd1;
      }

      .cls-23 {
        fill: #0c0907;
      }

      .cls-24 {
        letter-spacing: 0em;
      }

      .cls-25 {
        fill: #fed404;
      }

      .cls-26 {
        fill: #f69455;
      }

      .cls-13, .cls-19 {
        stroke-width: 3px;
      }

      .cls-27 {
        fill: #d68a45;
      }

      .cls-28 {
        fill: #7c5c40;
      }

      .cls-14 {
        stroke-width: 1.29px;
      }

      .cls-14, .cls-18 {
        stroke: #101021;
      }

      .cls-29 {
        fill: #d2edf2;
        font-family: Industry-Demi, Industry;
        font-size: 38.3px;
        font-weight: 300;
      }

      .cls-30 {
        fill: #bad9e8;
      }

      .cls-15 {
        stroke-width: 3px;
      }

      .cls-31 {
        fill: #0f844b;
      }

      .cls-32 {
        fill: #874b7a;
      }

      .cls-10 {
        stroke-width: .33px;
      }

      .cls-33 {
        fill: #bddaf2;
      }

      .cls-34 {
        letter-spacing: 0em;
      }

      .cls-35 {
        fill: #101021;
      }

      .cls-36 {
        fill: #253f66;
      }

      .cls-37 {
        fill: #fdd300;
      }

      .cls-38 {
        fill: #179859;
      }

      .cls-39 {
        letter-spacing: -.01em;
      }

      .cls-40 {
        fill: #b28362;
      }

      .cls-41 {
        fill: #11613c;
      }

      .cls-42 {
        fill: #10623c;
      }

      .cls-43 {
        opacity: .56;
      }

      .cls-43, .cls-44 {
        fill: #050d16;
      }

      .cls-45 {
        fill: #a05f24;
      }

      .cls-46 {
        fill: #88abc3;
      }

      .cls-47 {
        fill: #0e141d;
      }

      .cls-48 {
        fill: #a55897;
      }

      .cls-49 {
        letter-spacing: -.01em;
      }

      .cls-50 {
        letter-spacing: 0em;
      }

      .cls-51 {
        fill: #a07555;
      }

      .cls-17 {
        stroke-width: 2.75px;
      }

      .cls-52 {
        fill: #0b1524;
      }

      .cls-53 {
        letter-spacing: -.02em;
      }

      .cls-54 {
        letter-spacing: 0em;
      }

      .cls-44 {
        opacity: .37;
      }

      .cls-55 {
        letter-spacing: 0em;
      }

      .cls-18 {
        stroke-width: .96px;
      }
    </style>
  </defs>
  <rect class="cls-5" y="18.73" width="1933.62" height="1078.57"/>
  <path class="cls-4" d="m11.62,566.4l1047.13-137.58c5.37-408.65,5.37-411.15,5.37-411.15L15.11,18.92l-3.49,551.25"/>
  <g>
    <rect class="cls-17" x="986.13" y="185.27" width="85.24" height="47.41" transform="translate(2073.53 311.19) rotate(174.11)"/>
    <rect class="cls-17" x="950.73" y="237.66" width="85.24" height="47.41" transform="translate(2008.3 419.33) rotate(174.11)"/>
    <rect class="cls-17" x="1035.44" y="229.42" width="85.24" height="47.41" transform="translate(2176.41 394.21) rotate(174.11)"/>
  </g>
  <path class="cls-44" d="m1037.66,468.06c-3.19.09-29.87.86-32.01,10.01-2.09,8.94,19.77,23.86,41.33,28.13,25.29,5,55.12-3.68,55.73-13.53.67-10.91-34.37-25.49-65.05-24.61Z"/>
  <path class="cls-44" d="m659.97,656.79c-1.14-.87-10.9-8.08-23.11-4.74-9.56,2.61-16.91,10.67-18.96,20.74.84,2.76,3.22,9.21,9.48,13.04,4.3,2.63,8.41,2.8,14.22,2.96,5.19.15,13.05-.21,22.52-2.96,11.7-1.48,23.76-3.24,36.15-5.33,19.59-3.31,38.17-7.12,55.7-11.26,51.36-7.7,102.72-15.41,154.07-23.11,15.95-3.89,35.21-6.55,56.89-5.33,4.51.25,8.86.66,13.04,1.19,3.75,1.36,7.51,2.93,11.26,4.74,42.43,20.49,63.45,61.79,73.48,88.3,18.17-16.2,36.35-32.4,54.52-48.59l-100.74-97.19-280.3,62.22-78.22,5.33Z"/>
  <g>
    <path class="cls-42" d="m1041.84,451.18c3.73-4.21-2.95-10.54.07-14.97,2.56-3.74,12.25-9.59,15.31-6.92.58.51,6.05-3.24,9.7-1.31,5.24,2.78,8.7-1.07,9.88-1.08.31,0,2.72.04,3.63,2.17.94,2.21.44,3.4,1.5,4.05.88.55.92.09,2.99.3,1.7.17,3.28,1.45,3.6,3.05.26,1.33-.48,2.26.14,2.79.61.52,1.58-.15,2.91-.09,2.35.1,3.56,2.34,4.13,3.4.51.94,1.9,3.5.62,6.07-.7,1.41,6.9,6.99,7.51,8.28.58,1.22,1.18,1.84,1.2,3.02,0,.2,0,2.87-1.96,4.48-1.09.9-2.5,2.76-2.41,3.83.29.17,2.91,1.72,2.39,3.88-.28,1.17-1.41,2.23-2.14,2.93-1.54,1.45-2.37,3.67-2.03,5.25.12.56.64,2.95-.91,4.72-1.26,1.44-3.26,1.73-4.08,1.85-.51.07-2.05.25-3.57-.42-2.66-1.17-7.1-2.77-7.98-2.69-1.8.17-3.3.18-5.39.14-1.29-.02-3.09.69-3.09.69-.7.36-2.34,1.11-4.32,1.06-.7-.02-2.96-.06-4.04-1.54-.41-.56-.37-.94-.53-4.21-.17-3.44-.25-3.78-.53-4.21-1.15-1.79-3.67-1.98-4.06-2-1.21-.08-1.46.25-3,.39-1.05.1-3.97.37-5.79-1.05-1.98-1.55-1.81-4.44-1.74-5.53.17-2.74,1.41-3.5.88-5.18-.38-1.21-1.35-1.81-3.28-3.03-1.37-.86-1.78-.86-4.06-2-4.27-2.14-2.7-4.86-1.56-6.14Z"/>
    <polygon class="cls-38" points="1052.02 437.54 1045.24 462.18 1022.98 480.74 1030.16 492.57 1057.55 479.98 1084.99 480.52 1084.73 476.16 1066.96 472.57 1083.12 469.11 1082.57 465.41 1063.74 467.54 1077.98 450.44 1073.44 446.77 1060.85 460.46 1064.18 447.51 1062.22 446.13 1056.33 456.1 1057.64 436.6 1052.02 437.54"/>
    <path class="cls-42" d="m1088.42,453.2c-2.38,1.53-5.41.24-9.59-1.54-4.4-1.87-7.18-3.05-8.23-6.1-1.18-3.44.13-8.43,3.18-9.91,2.08-1.01,4.22,0,7.97,1.75,4.53,2.11,8.23,3.84,9.12,7.76.59,2.6.01,6.46-2.46,8.05Z"/>
    <path class="cls-42" d="m1081.74,456.23c-.74,1.06-2.92,4.46-2.25,8.36.64,3.7,3.49,5.8,5.05,6.94,3.28,2.41,6.47,2.77,6.32,3.34-.09.35-1.38.63-6.49.4"/>
    <ellipse class="cls-42" cx="1055.22" cy="436.73" rx="3.55" ry="4.49" transform="translate(-61.14 677.46) rotate(-34.65)"/>
    <path class="cls-42" d="m1050.91,445.46l.11-.08-.11.08-.11.08.11-.08Z"/>
    <ellipse class="cls-42" cx="1063.71" cy="444.87" rx="3.75" ry="3.88" transform="translate(-64.27 683.73) rotate(-34.65)"/>
    <ellipse class="cls-42" cx="1088.84" cy="476.99" rx="5.9" ry="7.83" transform="translate(-78.07 703.71) rotate(-34.65)"/>
    <polygon class="cls-31" points="1051.75 437.95 1045.2 462.68 1047.77 465.92 1051.75 437.95"/>
    <polygon class="cls-31" points="1061.24 447.91 1051.89 462.92 1050.82 465.14 1054.22 465.59 1061.24 447.91"/>
    <polygon class="cls-31" points="1047.77 465.92 1027.2 487.81 1022.98 480.74 1045.24 462.18 1047.77 465.92"/>
    <polygon class="cls-31" points="1063.74 467.54 1079.78 465.77 1080.85 468 1054.78 472.29 1063.74 467.54"/>
    <polygon class="cls-31" points="1030.88 483.35 1057.55 479.98 1030.16 492.57 1027.2 487.81 1030.88 483.35"/>
    <polygon class="cls-31" points="1072.46 480.42 1084.05 480.44 1082.29 475.66 1076.03 474.38 1072.46 480.42"/>
    <polygon class="cls-31" points="1072.1 448 1077.55 451.01 1060.83 460.26 1072.1 448"/>
  </g>
  <path class="cls-2" d="m868.27,647.31c-1.75-.59-95.82,14.22-95.82,14.22l3.51-11.26-.58-16.59-2.34-16.59-3.51-14.81-15.19-11.85-11.68-.59,158.91-19.56,101.66-65.78,102.83-11.85,21.62,14.81-3.51,240-118.6-138.67-63.1,29.04-71.99,8.3-5.13.59"/>
  <polygon class="cls-9" points="1055.37 755.17 1422.87 1097.67 1931.62 1097.67 1932.87 16.42 1067.87 17.67 1055.37 755.17"/>
  <polygon class="cls-23" points="734.49 629.83 729.45 614.72 738.93 598.42 743.38 589.53 752.27 588.94 768.27 608.2 770.04 624.79 766.04 623.9 734.49 629.83"/>
  <path class="cls-7" d="m762.22,661.83l4.88-7.7,1.46-18.37-7.41-35.56-17.05-9.64c-.39-.19-.26-.77.17-.79l6.51-1.42,8.99,1.78,12.69,11.85,4.39,25.48.98,22.52-2.93,11.26-12.69.59Z"/>
  <path class="cls-44" d="m536.34,954.41c-1.28,1.03-12.01,9.68-9.96,19.05,2.01,9.16,15.79,16.94,26.03,14.62,12.01-2.72,21.5-19.85,18.59-29.44-3.22-10.62-22.32-14.16-34.66-4.22Z"/>
  <path class="cls-44" d="m646.69,903.16c-1.39.88-12.96,8.23-11.47,15.3,1.46,6.92,15.1,11.99,25.77,9.54,12.51-2.88,23.37-16.67,21.01-23.86-2.62-7.96-21.99-9.44-35.31-.99Z"/>
  <path class="cls-44" d="m549.07,1007.84c-1.86,1.08-17.42,10.12-15.71,18.35,1.67,8.05,19.48,13.48,33.65,10.21,16.61-3.84,31.47-20.41,28.62-28.73-3.15-9.22-28.67-10.23-46.56.17Z"/>
  <polygon class="cls-28" points="626.97 612.35 623.08 641.39 637.45 655.02 653.91 666.28 698.81 665.98 763.85 660.65 769.16 647.02 741.62 648.2 719.77 631.9 706.3 627.16 693.72 616.2 682.65 619.46 690.13 628.35 698.51 635.76 703.3 644.65 691.63 646.72 657.8 649.09 642.84 642.87 635.95 637.24 635.95 619.76 626.97 612.35"/>
  <path class="cls-44" d="m725.54,889.94c-3.22,1.55-30.13,14.54-28.14,24.7,1.95,9.94,31.11,14.91,55.09,9.32,28.13-6.56,54.65-28.93,50.77-39.1-4.3-11.26-46.78-9.86-77.73,5.08Z"/>
  <polygon class="cls-51" points="645.77 637.53 658.14 642.57 700.06 639.9 703.67 644.65 691.91 646.72 657.84 649.09 642.76 642.87 635.82 637.24 635.82 619.76 638.84 624.5 639.14 634.57 645.77 637.53"/>
  <polygon class="cls-40" points="661.6 633.76 659.03 642.94 701.01 641.53 698.64 636.13 693.45 631.31 661.9 626.65 661.6 632.57 661.6 633.76"/>
  <polygon class="cls-51" points="693.01 616.2 696.92 615.9 705.95 624.2 717.39 627.76 721.9 628.35 741.16 641.68 769.16 641.39 768.85 647.02 741.16 648.2 719.19 631.9 705.65 627.16 693.01 616.2"/>
  <polygon class="cls-40" points="725.6 631.31 766.34 624.79 769.16 634.57 769.16 641.39 740.01 641.68 725.6 631.31"/>
  <path class="cls-44" d="m177.92,812.8c-1.79,1-16.8,9.4-16.14,21.13.64,11.47,16.13,23.52,29.25,22.68,15.4-.98,30.57-19.89,28.9-32.04-1.86-13.46-24.76-21.42-42.01-11.76Z"/>
  <g>
    <ellipse class="cls-35" cx="1054.82" cy="1032.75" rx="8.86" ry="30.71" transform="translate(-411.76 1201.14) rotate(-50.94)"/>
    <path class="cls-20" d="m1021.33,1020.43c-10.1-.31-10.11,2.93-15.06,5.82-7.66,4.49-13.26,4.18-13.06,6.43.36,4,4.48,2.1,13.56,7.61,4.59,2.78,8.07,7.14,15.6,7.73,7.54.6,9.06-1.32,14.14-.94-.95,5.44-1.5,14.02,5.26,15.92,13.21,6.19,16.33,27.31,23.43,28.06,2.1.2-2.35-13.86,2.42-16.43,4.77-2.57,5.82-7.65,2.62-14.44-3.2-6.79,1.29-6.51-.82-9.96-6-9.87-15.24-16.25-22.59-16.25-2.32-6.86-13.12-13.17-25.5-13.55Z"/>
    <path class="cls-35" d="m1024.53,1021.66c-8.82-.27-8.83,2.56-13.13,5.09-6.69,3.91-11.57,3.64-11.4,5.6.31,3.49,3.91,1.83,11.84,6.65,3.98,2.42,7.04,6.23,13.62,6.75,6.57.53,7.9-1.17,12.33-.84-.84,4.74-1.32,12.24,4.59,13.9,11.53,5.4,14.26,23.84,20.44,24.48,1.84.19-2.04-12.09,2.12-14.33,4.16-2.25,5.08-6.67,2.29-12.6s1.13-5.68-.73-8.71c-5.23-8.61-13.3-14.19-19.7-14.17-2.03-5.97-11.45-11.48-22.26-11.8Z"/>
    <path class="cls-21" d="m1062.26,1048.35c1.34,2.2-1.51,2.02.52,6.33,2.03,4.31,1.36,7.52-1.68,9.14-3.04,1.62-.18,10.57-1.53,10.43-4.49-.47-6.47-13.86-14.85-17.79-2.23-.63-5.77-5.75-.42-5.02,5.35.73,7.29,8.11,10.29,7.25,4.52-1.29,6.57-12.15,7.67-10.34Z"/>
    <path class="cls-25" d="m1010.18,1030.87c1.93.15,3.58,1.27,3.68,2.51.1,1.24-1.39,2.13-3.32,1.98s-8.28-1.29-8.45-2.62c-.17-1.33,6.16-2.01,8.09-1.87Z"/>
    <path class="cls-41" d="m1036.15,1029.85c-.79,6.63-5.58,6.7-9.47,2.56s-12.63-.65-13.01-3.12,6.75-7.2,12.39-4.91c5.64,2.28,10.82-.54,10.09,5.48Z"/>
    <path class="cls-41" d="m1023.62,1033.27c1.56,1.7-.97,3.17,2.77,5.32,3.75,2.15,10.72,3.06,9.6,3.51-1.03.4-10.11,1.01-10.11,1.01-4.57-.47-7.87-2.17-9.22-5.72-.61-1.92-.1-3.01,1.17-4.31,1.27-1.3,4.22-1.52,5.78.19Z"/>
    <path class="cls-41" d="m1035.47,1036.39c.8-1.14,2.73.34,3.16-2.23.44-2.56-1.06-7.04-.37-6.37.63.61,3.96,6.29,3.96,6.29,1.08,2.93.83,5.15-1.43,6.32-1.26.56-2.25.33-3.64-.35s-2.48-2.53-1.68-3.66Z"/>
    <path class="cls-21" d="m1052.13,1036.94c6.36,1.99,11.85,9.1,7.62,7.42-4.24-1.69-.72,10.94-5.91,9.95-1.81-.13-4.34-4.26-6.52-5.8-2.18-1.55-5.3,1.68-6.74-1.78s1.56-3.35,4.94-4.89c3.38-1.54.25-6.88,6.61-4.89Z"/>
    <path class="cls-20" d="m1035.86,1002.52c-2.38-9.82.78-10.5,2.59-15.93,2.82-8.42,1.36-13.84,3.6-14.11,3.98-.47,2.97,3.95,10.24,11.7,3.66,3.92,8.64,6.43,10.78,13.68,2.14,7.25.58,9.14,2,14.03,5.13-2.05,13.41-4.36,16.66,1.87,8.78,11.65,30.09,10.35,32.28,17.15.65,2.02-14.03.57-15.56,5.76s-6.29,7.27-13.59,5.54-6.12,2.59-9.94,1.24c-10.89-3.83-19.05-11.57-20.55-18.75-7.19-.86-15.59-10.12-18.52-22.16Z"/>
    <path class="cls-35" d="m1037.73,1005.4c-2.08-8.57.69-9.17,2.28-13.9,2.45-7.35,1.18-12.07,3.13-12.31,3.48-.42,2.6,3.45,8.94,10.22,3.19,3.4,7.54,5.61,9.41,11.93,1.87,6.33.48,7.97,1.72,12.24,4.46-1.8,11.71-3.81,14.55,1.63,7.66,10.17,26.26,9.04,28.16,14.95.56,1.76-12.25.5-13.59,5.03s-5.48,6.35-11.86,4.83c-6.38-1.51-5.32,2.27-8.68,1.08-9.51-3.35-16.62-10.09-17.92-16.36-6.26-.75-13.59-8.84-16.14-19.35Z"/>
    <path class="cls-21" d="m1071.62,1036.82c2.43.86,1.67-1.89,6.3-.79s7.64-.22,8.62-3.51c.98-3.3,10.28-2.37,9.87-3.66-1.38-4.3-14.9-3.48-20.46-10.87-1.07-2.05-6.82-4.46-5,.63,1.82,5.09,9.44,5.46,9.22,8.57-.33,4.7-10.54,8.94-8.54,9.64Z"/>
    <path class="cls-25" d="m1043.79,989.45c.54,1.86,1.98,3.24,3.22,3.08s1.79-1.8,1.25-3.66-2.97-7.83-4.31-7.73c-1.34.11-.7,6.44-.16,8.3Z"/>
    <path class="cls-41" d="m1048.14,1015.08c6.32-2.14,5.4-6.84.55-9.79s-3.24-12.22-5.74-12.08-5.65,8.08-2.26,13.13c3.4,5.05,1.72,10.68,7.44,8.74Z"/>
    <path class="cls-41" d="m1048.9,1002.11c1.99,1.18,2.91-1.61,5.78,1.62,2.87,3.22,5.2,9.86,5.41,8.67.18-1.09-1.09-10.11-1.09-10.11-1.41-4.38-3.75-7.25-7.49-7.84-2.01-.2-2.97.53-3.98,2.04-1.01,1.51-.61,4.45,1.37,5.62Z"/>
    <path class="cls-41" d="m1054.39,1013.07c-.95,1.01.89,2.6-1.53,3.55-2.42.96-7.1.41-6.31.95.72.49,6.97,2.58,6.97,2.58,3.09.46,5.21-.25,5.89-2.7.29-1.35-.14-2.27-1.09-3.49-.95-1.22-2.98-1.9-3.93-.89Z"/>
    <path class="cls-21" d="m1058.36,1029.26c3.25,5.82,11.35,9.72,8.83,5.92s10.56-2.96,8.51-7.83c-.5-1.74-5.06-3.37-7.01-5.2s.56-5.54-3.13-6.22c-3.68-.69-2.95,2.21-3.77,5.84s-6.69,1.68-3.44,7.49Z"/>
    <path class="cls-35" d="m1017.52,1011.98c1.02.87,1.23,1.96.26,2.26-.88.27-1.46.59-2.26.21-1.46-.67-1.19-1.63-.26-2.26.74-.5,1.58-.79,2.27-.21Z"/>
    <path class="cls-35" d="m1025.28,1000.17c-.61-1.15-.32-2.16.76-2.01.98.14,1.7.13,2.3.76,1.11,1.17.42,1.87-.75,2.01-.94.11-1.88,0-2.3-.77Z"/>
    <path class="cls-14" d="m1039.42,1024.29s-22.35-21.79-23.24-10.6"/>
    <path class="cls-14" d="m1043.15,1019.7s-25.93-17.39-15.15-20.57"/>
  </g>
  <polygon class="cls-40" points="661.01 635.22 648.34 629.03 647.01 616.87 640.12 621.87 640.12 634.03 659.67 643.09 661.01 635.22"/>
  <polygon class="cls-40" points="661.67 635.09 662.12 626.75 657.45 624.44 659.23 614.25 652.12 613.09 650.34 628.37 661.67 635.09"/>
  <polygon class="cls-40" points="680.12 629.76 672.79 623.09 675.67 612.65 669.67 610.65 666.34 622.65 670.12 628.2 680.12 629.76"/>
  <polygon class="cls-51" points="669.67 610.65 666.56 609.31 663.67 622.2 666.56 627.09 670.12 628.2 666.34 622.65 669.67 610.65"/>
  <polygon class="cls-51" points="652.12 613.09 649.23 612.2 647.9 624.87 648.34 629.03 661.01 635.22 650.34 628.37 652.12 613.09"/>
  <polyline class="cls-28" points="639.14 634.57 638.84 624.5 640.12 621.87 640.12 634.03 659.03 642.94"/>
  <polygon class="cls-3" points="1005.57 608.79 1057.01 629.98 1057.01 669.09 1005.57 608.79"/>
  <polygon class="cls-3" points="774.91 661.24 779.23 647.76 862.79 636.2 934.34 626.42 1005.01 593.09 1017.9 613.53 1005.57 608.79 942.47 637.83 861.45 649.09 774.91 661.24"/>
  <polygon class="cls-3" points="989.9 600.65 1009.01 573.53 1017.9 613.53 989.9 600.65"/>
  <polyline class="cls-3" points="937.45 628.65 920.12 599.31 929.9 628.2 939.67 629.53"/>
  <path class="cls-44" d="m560.89,900.58c-3.01,1.5-28.13,14.06-26.11,24.22,1.97,9.93,29.47,15.3,51.94,10.07,26.36-6.14,50.98-28.06,47.19-38.24-4.2-11.28-44.13-10.49-73.02,3.95Z"/>
  <g>
    <path class="cls-52" d="m612.85,921.44l-.23.18-4.46,3.6c-2.19,1.77-5.13,2.83-7.7,2.79l-27.91-.44c-2.58-.04-4.41-1.18-4.82-2.99l-4.35-19.31c-.42-1.84.71-4.1,2.94-5.9l6.96-5.61,14.22,18.54,25.35,9.15Z"/>
    <path class="cls-52" d="m611.22,908.96l6.39-4.76c1.23-.95,1.88-2.17,1.7-3.18l-1.93-10.57c-.18-.99-1.14-1.63-2.52-1.69l-14.94-.58c-1.38-.05-2.97.49-4.18,1.43l-5.78,4.1,11.91-10.31,20.21.08,3.36,9.91-.93,8.45-8.09,7.94-5.2-.82Z"/>
    <path class="cls-9" d="m612.85,921.63l23.51-18.91c2.25-1.81,3.37-4.07,2.95-5.92l-4.43-19.36c-.42-1.82-2.27-2.96-4.86-3l-28.11-.45c-2.6-.04-5.55,1.02-7.75,2.8l-23.51,18.91c-2.25,1.81-3.37,4.07-2.95,5.92l4.43,19.36c.42,1.82,2.27,2.96,4.86,3l28.11.45c2.6.04,5.55-1.02,7.75-2.8Zm-9.05-8.7l-14.94-.58c-1.38-.05-2.34-.7-2.52-1.69l-1.93-10.57c-.18-1.01.46-2.22,1.7-3.18l12.91-9.99c1.21-.94,2.8-1.48,4.18-1.43l14.94.58c1.38.05,2.34.7,2.52,1.69l1.93,10.57c.18,1.01-.46,2.22-1.7,3.18l-12.91,9.99c-1.21.94-2.8,1.48-4.18,1.43Z"/>
  </g>
  <g>
    <path class="cls-52" d="m677.12,919.57l-.14.12-2.81,2.26c-1.38,1.11-3.23,1.78-4.85,1.76l-17.57-.28c-1.62-.03-2.78-.74-3.04-1.88l-2.74-12.16c-.26-1.16.45-2.58,1.85-3.72l4.38-3.53,8.96,11.68,15.96,5.76Z"/>
    <path class="cls-52" d="m676.09,911.71l4.02-3c.78-.6,1.18-1.37,1.07-2l-1.22-6.65c-.11-.62-.72-1.03-1.59-1.06l-9.4-.37c-.87-.03-1.87.31-2.63.9l-3.64,2.58,7.5-6.49,12.72.05,2.11,6.24-.58,5.32-5.09,5-3.27-.52Z"/>
    <path class="cls-9" d="m677.12,919.68l14.8-11.91c1.41-1.14,2.12-2.56,1.86-3.73l-2.79-12.19c-.26-1.14-1.43-1.86-3.06-1.89l-17.7-.28c-1.63-.03-3.49.64-4.88,1.76l-14.8,11.91c-1.41,1.14-2.12,2.56-1.86,3.73l2.79,12.19c.26,1.14,1.43,1.86,3.06,1.89l17.7.28c1.63.03,3.49-.64,4.88-1.76Zm-5.7-5.48l-9.4-.37c-.87-.03-1.47-.44-1.59-1.06l-1.22-6.65c-.12-.64.29-1.4,1.07-2l8.13-6.29c.76-.59,1.77-.93,2.63-.9l9.4.37c.87.03,1.47.44,1.59,1.06l1.22,6.65c.12.64-.29,1.4-1.07,2l-8.13,6.29c-.76.59-1.77.93-2.63.9Z"/>
  </g>
  <g>
    <path class="cls-52" d="m1260.99,1029.95l.31.23,6.07,4.43c2.99,2.18,5.09,5.28,5.51,8.15l4.63,31.03c.43,2.87-.88,5.07-3.44,5.78l-27.24,7.62c-2.6.73-6.09-.2-9.13-2.41l-9.47-6.91,24.26-18.46,8.5-29.45Z"/>
    <path class="cls-52" d="m1243.15,1033.57l-8.13-6.4c-1.62-1.23-3.51-1.78-4.94-1.43l-14.99,3.67c-1.41.34-2.16,1.5-1.98,3.04l1.98,16.66c.18,1.54,1.27,3.23,2.86,4.44l7.05,5.82-17.23-11.73-3.7-22.44,13.76-5.15,12.46-.19,13.07,7.83-.21,5.89Z"/>
    <path class="cls-9" d="m1261.26,1029.92l-31.93-23.36c-3.05-2.23-6.55-3.16-9.16-2.42l-27.3,7.71c-2.56.72-3.87,2.94-3.44,5.83l4.66,31.26c.43,2.89,2.54,6.01,5.53,8.2l31.93,23.36c3.05,2.23,6.55,3.16,9.16,2.42l27.3-7.71c2.56-.72,3.87-2.94,3.44-5.83l-4.66-31.26c-.43-2.89-2.54-6.01-5.53-8.2Zm-10.94,11.3l1.98,16.66c.18,1.54-.57,2.7-1.98,3.04l-14.99,3.67c-1.43.35-3.32-.19-4.94-1.43l-16.95-12.89c-1.59-1.21-2.68-2.9-2.86-4.44l-1.98-16.66c-.18-1.54.57-2.7,1.98-3.04l14.99-3.67c1.43-.35,3.32.19,4.94,1.43l16.95,12.89c1.59,1.21,2.68,2.9,2.86,4.44Z"/>
  </g>
  <g>
    <path class="cls-52" d="m552.59,1023.5l-.14.26-2.77,5.01c-1.36,2.47-1.9,5.54-1.42,8.07l5.27,27.41c.49,2.53,1.93,4.14,3.78,4.23l19.77.95c1.89.09,3.92-1.41,5.3-3.92l4.33-7.82-20.72-10.8-13.39-23.38Z"/>
    <path class="cls-52" d="m565.17,1022.95l3.59-7.12c.73-1.38,1.81-2.23,2.84-2.22l10.74.08c1.01,0,1.81.84,2.1,2.19l3.16,14.61c.29,1.35.03,3.01-.68,4.37l-3.04,6.4,8.09-13.52-3.58-19.89-10.34-1.59-8.16,2.38-6.42,9.34,1.71,4.98Z"/>
    <path class="cls-9" d="m550.99,1031.65l5.3,27.61c.49,2.55,1.93,4.18,3.8,4.27l19.83,1.02c1.89.1,3.93-1.41,5.32-3.93l14.56-26.43c1.37-2.48,1.91-5.57,1.42-8.12l-5.3-27.61c-.49-2.55-1.93-4.18-3.8-4.27l-19.83-1.02c-1.89-.1-3.93,1.41-5.32,3.93l-14.56,26.43c-1.37,2.48-1.91,5.57-1.42,8.12Zm12.24-5.08l7.6-14.44c.73-1.38,1.81-2.23,2.84-2.22l10.74.08c1.01,0,1.81.84,2.1,2.19l3.16,14.61c.29,1.35.03,3.01-.68,4.37l-7.6,14.44c-.73,1.38-1.81,2.23-2.84,2.22l-10.74-.08c-1.01,0-1.81-.84-2.1-2.19l-3.16-14.61c-.29-1.35-.03-3.01.68-4.37Z"/>
  </g>
  <g>
    <path class="cls-52" d="m543.32,959.87l-.09.16-1.75,3.16c-.86,1.55-1.2,3.49-.89,5.08l3.32,17.26c.31,1.59,1.21,2.61,2.38,2.66l12.45.6c1.19.06,2.47-.89,3.34-2.47l2.72-4.93-13.05-6.8-8.43-14.72Z"/>
    <path class="cls-52" d="m551.24,959.53l2.26-4.48c.46-.87,1.14-1.4,1.79-1.4l6.76.05c.63,0,1.14.53,1.32,1.38l1.99,9.2c.18.85.02,1.9-.43,2.75l-1.91,4.03,5.09-8.51-2.25-12.52-6.51-1-5.14,1.5-4.04,5.88,1.07,3.13Z"/>
    <path class="cls-9" d="m542.31,965l3.34,17.38c.31,1.61,1.22,2.63,2.39,2.69l12.49.64c1.19.06,2.47-.88,3.35-2.47l9.17-16.64c.86-1.56,1.2-3.51.89-5.11l-3.34-17.38c-.31-1.61-1.22-2.63-2.39-2.69l-12.49-.64c-1.19-.06-2.47.88-3.35,2.47l-9.17,16.64c-.86,1.56-1.2,3.51-.89,5.11Zm7.7-3.2l4.79-9.09c.46-.87,1.14-1.4,1.79-1.4l6.76.05c.63,0,1.14.53,1.32,1.38l1.99,9.2c.18.85.02,1.9-.43,2.75l-4.79,9.09c-.46.87-1.14,1.4-1.79,1.4l-6.76-.05c-.63,0-1.14-.53-1.32-1.38l-1.99-9.2c-.18-.85-.02-1.9.43-2.75Z"/>
  </g>
  <rect class="cls-26" x="248.38" y="695.28" width="26.45" height="3.97" rx="1.99" ry="1.99" transform="translate(-333.48 1145.03) rotate(-106.39)"/>
  <path class="cls-44" d="m184.14,719.3c-3.01,1.5-28.13,14.06-26.11,24.22,1.97,9.93,29.47,15.3,51.94,10.07,26.36-6.14,50.98-28.06,47.19-38.24-4.2-11.28-44.13-10.49-73.02,3.95Z"/>
  <path class="cls-33" d="m231.36,689.18c-2.34-2.2-7.03-6.01-14.07-8.13-8.37-2.51-15.46-1.24-18.64-.47-2.14.5-14.55,3.6-21.94,16.03-7.3,12.29-4.25,24.5-3.67,26.66.66,2.1,4.81,14.57,18.04,20.87,11.76,5.59,22.64,2.49,25.12,1.71,3.05-.84,9.41-3.03,15.24-8.8,6.49-6.42,8.62-13.64,9.35-16.71,5.67-1.67,11.33-3.34,17-5.01.29-.13,1.4-.69,2-2.01.59-1.29.3-2.47.22-2.78-2.36-7.89-4.73-15.78-7.09-23.67-.18-.37-.76-1.44-2.05-2.12-1.41-.75-2.75-.54-3.14-.46-5.45,1.63-10.91,3.25-16.36,4.88Z"/>
  <rect class="cls-26" x="244.56" y="696.39" width="26.45" height="3.99" rx="2" ry="2" transform="translate(-339.45 1142.81) rotate(-106.39)"/>
  <rect class="cls-26" x="252.21" y="694.21" width="26.45" height="3.97" rx="1.99" ry="1.99" transform="translate(-327.55 1147.34) rotate(-106.39)"/>
  <path class="cls-1" d="m254.84,685.64c.16-.02.49-.04.86.12.32.14.5.35.59.46.22.26.32.52.36.67,2.11,7.3,4.21,14.61,6.32,21.91.02.24.01.44,0,.59-.02.2-.03.38-.12.6-.04.1-.11.28-.28.48-.15.17-.3.27-.41.33-2.44-8.38-4.88-16.76-7.33-25.15Z"/>
  <path class="cls-1" d="m260.92,711.18c-.1,0-.26,0-.43-.04-.2-.05-.35-.14-.44-.21-2.41-8.1-4.82-16.2-7.23-24.3.06-.1.15-.21.26-.33.14-.14.27-.25.39-.32,2.49,8.4,4.97,16.8,7.46,25.2Z"/>
  <path class="cls-1" d="m268.54,708.92c-.16.02-.49.05-.86-.11-.32-.14-.51-.35-.59-.45-.22-.26-.32-.52-.36-.67-2.14-7.29-4.28-14.59-6.42-21.88-.02-.24-.02-.44,0-.59.02-.2.03-.38.12-.6.04-.1.11-.29.28-.48.15-.17.3-.27.41-.33,2.48,8.37,4.96,16.74,7.44,25.11Z"/>
  <path class="cls-1" d="m264.69,710c-.16.02-.49.05-.86-.11-.32-.14-.51-.35-.59-.45-.22-.26-.32-.52-.36-.67-2.14-7.29-4.28-14.59-6.42-21.88-.02-.24-.02-.44,0-.59.02-.2.03-.38.12-.6.04-.1.11-.29.28-.48.15-.17.3-.27.41-.33,2.48,8.37,4.96,16.74,7.44,25.11Z"/>
  <path class="cls-1" d="m258.68,684.47c.16-.02.49-.04.86.12.32.14.5.35.59.46.22.26.32.52.36.67,2.11,7.3,4.21,14.61,6.32,21.91.02.24.01.44,0,.59-.02.2-.03.38-.12.6-.04.1-.11.28-.28.48-.15.17-.3.27-.41.33-2.44-8.38-4.88-16.76-7.33-25.15Z"/>
  <path class="cls-46" d="m209.91,747.06c13.96-7.84,21.07-24.04,16.46-39.5-4.58-15.37-18.99-25.41-34.88-24.44,2.95-1.39,12.33-5.71,24.05-2.7,7.74,1.99,12.94,6.16,15.49,8.53,3.17,10.5,6.34,20.99,9.52,31.49-.74,3.09-3.11,11.23-10.62,18.11-7.83,7.17-16.91,8.13-20.01,8.51Z"/>
  <path class="cls-46" d="m240.59,720.59l-9.52-31.49,16.64-4.81c.41-.07,2.02-.28,3.55.73.94.62,1.42,1.42,1.64,1.85,2.36,7.89,4.73,15.78,7.09,23.67.08.35.34,1.71-.44,3.09-.57,1.02-1.41,1.52-1.77,1.71-5.73,1.76-11.46,3.51-17.18,5.27Z"/>
  <g>
    <polygon class="cls-37" points="245.07 707.33 201.29 734.45 200.21 733.86 243.77 707.33 245.07 707.33"/>
    <polygon class="cls-37" points="242.25 697.75 190.76 698.66 190.17 699.74 241.16 698.45 242.25 697.75"/>
  </g>
  <path class="cls-37" d="m200.28,733.84c.8-2.87,2.33-9.88-.09-18.28-2.49-8.66-7.74-13.86-9.95-15.84.58-.21,1.16-.42,1.73-.63,2.35,2.43,6.89,7.77,9.27,16.03,2.34,8.15,1.39,15,.7,18.3-.56.14-1.11.28-1.67.41Z"/>
  <rect class="cls-26" x="941.8" y="1033.6" width="26.45" height="3.97" rx="1.99" ry="1.99" transform="translate(956.15 2444.31) rotate(-137.36)"/>
  <path class="cls-33" d="m943.92,1097.27c2.06-2.79,4.39-6.81,5.72-12.04,2.26-8.85.37-16.14-.59-19.14,4-4.35,8-8.7,12-13.05.18-.26.84-1.31.68-2.75-.16-1.41-1.01-2.27-1.25-2.5-6.09-5.55-12.17-11.09-18.26-16.64-.35-.23-1.4-.84-2.84-.76-1.6.09-2.63.95-2.93,1.22-3.84,4.2-7.68,8.4-11.52,12.6-3.14-.68-9.13-1.54-16.25.27-8.47,2.15-13.89,6.89-16.23,9.19-1.58,1.53-10.62,10.57-10.56,25.04.03,8.12,2.92,14.51,5.71,18.79"/>
  <rect class="cls-26" x="939.11" y="1036.52" width="26.45" height="3.99" rx="2" ry="2" transform="translate(949.49 2447.57) rotate(-137.36)"/>
  <rect class="cls-26" x="944.54" y="1030.71" width="26.45" height="3.97" rx="1.99" ry="1.99" transform="translate(962.86 2441.16) rotate(-137.36)"/>
  <path class="cls-1" d="m943.25,1029.1c.13-.1.4-.29.8-.34.35-.04.61.04.74.09.32.11.54.28.65.39,5.56,5.18,11.13,10.36,16.69,15.54.14.19.24.37.3.5.09.18.16.34.21.58.02.1.05.3,0,.55-.04.22-.12.39-.18.49-6.41-5.93-12.81-11.86-19.22-17.79Z"/>
  <path class="cls-1" d="m961.61,1047.86c-.08.06-.22.14-.39.19-.2.06-.37.06-.48.05-6.24-5.71-12.47-11.41-18.71-17.12,0-.12.02-.26.05-.41.04-.19.11-.35.17-.48,6.45,5.92,12.91,11.85,19.36,17.77Z"/>
  <path class="cls-1" d="m966.98,1042.01c-.13.1-.4.29-.8.35-.35.05-.61-.04-.74-.08-.32-.11-.54-.28-.66-.39-5.59-5.15-11.18-10.31-16.76-15.46-.14-.19-.24-.37-.31-.5-.09-.18-.17-.34-.21-.57-.02-.1-.05-.3,0-.55.04-.22.12-.39.18-.49,6.43,5.9,12.87,11.8,19.3,17.7Z"/>
  <path class="cls-1" d="m964.23,1044.91c-.13.1-.4.29-.8.35-.35.05-.61-.04-.74-.08-.32-.11-.54-.28-.66-.39-5.59-5.15-11.18-10.31-16.76-15.46-.14-.19-.24-.37-.31-.5-.09-.18-.17-.34-.21-.57-.02-.1-.05-.3,0-.55.04-.22.12-.39.18-.49,6.43,5.9,12.87,11.8,19.3,17.7Z"/>
  <path class="cls-1" d="m945.94,1026.12c.13-.1.4-.29.8-.34.35-.04.61.04.74.09.32.11.54.28.65.39,5.56,5.18,11.13,10.36,16.69,15.54.14.19.24.37.3.5.09.18.16.34.21.58.02.1.05.3,0,.55-.04.22-.12.39-.18.49-6.41-5.93-12.81-11.86-19.22-17.79Z"/>
  <path class="cls-46" d="m939.47,1097.62c3.77-12.35.56-26.02-9.35-35.08-11.84-10.82-29.36-12.01-42.49-3.01,1.81-2.71,7.63-11.24,19.23-14.69,7.66-2.28,14.26-1.38,17.67-.66,8.12,7.37,16.24,14.74,24.36,22.1.96,3.03,3.11,11.23.21,20.99-1.21,4.08-3.11,7.41-5.11,10.06"/>
  <path class="cls-46" d="m949.01,1066.4l-24.36-22.1,11.79-12.69c.32-.27,1.59-1.28,3.42-1.2,1.12.05,1.95.49,2.36.74,6.09,5.55,12.17,11.09,18.26,16.64.24.26,1.17,1.29,1.21,2.87.03,1.17-.43,2.03-.64,2.37-4.01,4.45-8.02,8.91-12.02,13.36Z"/>
  <g>
    <polygon class="cls-37" points="946.04 1052.72 922.45 1098.51 921.22 1098.56 944.92 1053.39 946.04 1052.72"/>
    <polygon class="cls-37" points="938.68 1045.96 895 1073.24 895.05 1074.46 938.12 1047.12 938.68 1045.96"/>
  </g>
  <path class="cls-37" d="m921.27,1098.5c-.79-2.87-3.09-9.66-9.48-15.63-6.59-6.14-13.77-7.91-16.68-8.46.39-.48.78-.95,1.17-1.43,3.26.87,9.91,3.11,16.2,8.98,6.2,5.78,8.91,12.15,10.02,15.33-.41.4-.81.81-1.22,1.21Z"/>
  <g>
    <rect class="cls-10" x="642.02" y="998.82" width="28.85" height="59.68" rx="5.52" ry="5.52" transform="translate(-529.72 1315.18) rotate(-71.04)"/>
    <path class="cls-47" d="m677.81,1050.51c-.09,0-.23.02-.4.05-.14.02-.24.04-.27.05-.31.06-.64.06-.8.06-.38,0-1.1-.1-1.96-.43.91-4.58,1.81-9.16,2.72-13.74l6.6-13.86c.47.1,1.24.33,2.02.91.49.37.83.76,1.06,1.07-2.98,8.63-5.97,17.25-8.95,25.88Z"/>
    <path class="cls-47" d="m684.03,1022.77c.53.35-3.35,5.31-6.05,13.23-1.86,5.43-2.82,10.35-3.33,14.34-15.44-5.34-30.89-10.67-46.33-16.01,0,0,0,0,0,0,0,0,.32.08.32.08.6.15,33.12,3.52,39.09,3.42,1.03-.02,2.8-.07,4.36-1.21,1.3-.95,1.86-2.21,2.06-2.65,2.26-4.88,9.23-11.64,9.88-11.2Z"/>
    <g>
      <polygon class="cls-37" points="640.56 1020.1 652.16 1033.36 654.96 1028.97 640.56 1020.1"/>
      <polygon class="cls-37" points="666.32 1035.72 654.43 1022.63 651.77 1027.11 666.32 1035.72"/>
    </g>
    <path class="cls-47" d="m674.58,1050.26c.63.05.62-6.25,3.35-14.16,1.87-5.43,4.14-9.9,6.19-13.36-15.51-5.3-31.03-10.6-46.54-15.9,0,0,0,0,0,0,0,0,.3.13.3.13.57.25,28.39,17.62,33.06,21.38.8.65,2.17,1.78,2.71,3.64.45,1.55.11,2.89,0,3.36-1.21,5.24.15,14.86.93,14.92Z"/>
    <path class="cls-36" d="m635.25,1006.79c-.18-.05-1.33.22-2.3.94s-1.76,1.92-1.8,1.99c0,0,0,0,0,0l-6.23,17.48c-.13.47-.28,1.83.09,3.37.33,1.4.92,2.08,1.21,2.31.27-.09.6-.18,1.02-.54.45-.39.81-.88,1.39-1.99.43-.83.65-1.35,1.46-3.28.92-2.18.91-2.16,1.1-2.62.53-1.33.91-2.36,1.17-3.07.55-1.52.93-2.67,1.24-3.6.4-1.22.6-1.82.87-2.73.12-.41.45-1.54.81-3.05.22-.91.35-1.58.47-2.34.2-1.31.16-1.85-.03-2.28-.14-.31-.33-.49-.46-.59Z"/>
    <rect class="cls-37" x="621.22" y="1015.78" width="12.42" height="5.37" rx="1.61" ry="1.61" transform="translate(-539.65 1280.86) rotate(-71.04)"/>
    <path class="cls-26" d="m624.09,1023.9l2.53.87c.11.04.56.16,1.04-.05.42-.18.62-.5.68-.61,1.08-3.13,2.15-6.26,3.23-9.39.03-.16.05-.45-.06-.79-.17-.52-.56-.81-.69-.9-.94-.3-1.89-.59-2.83-.89.46.37,1.2,1.08,1.63,2.2.15.38.23.74.28,1.05-.77,2.32-1.54,4.64-2.31,6.96-.19.26-.46.56-.84.83-1.06.75-2.22.73-2.66.7Z"/>
  </g>
  <g>
    <ellipse class="cls-35" cx="205.24" cy="813.68" rx="24.21" ry="6.26" transform="translate(-515.08 383.18) rotate(-44.98)"/>
    <path class="cls-20" d="m218.32,789.08c1.42-7.55-.97-7.68-2.53-11.48-2.42-5.9-1.53-10.08-3.21-10.01-3,.12-2.08,3.27-7.23,9.86-2.6,3.33-6.23,5.77-7.56,11.38-1.33,5.61-.1,6.83-.98,10.61-3.91-.92-10.19-1.65-12.4,3.34-6.14,9.65-22.13,11.2-23.52,16.48-.4,1.56,10.53-1.24,11.87,2.42,1.34,3.66,4.97,4.64,10.37,2.5,5.4-2.14,4.66,1.21,7.47-.24,8.01-4.12,13.82-10.8,14.69-16.29,5.35-1.48,11.29-9.32,13.04-18.57Z"/>
    <path class="cls-35" d="m217.03,791.43c1.24-6.58-.85-6.7-2.21-10.01-2.1-5.15-1.33-8.79-2.8-8.74-2.62.1-1.82,2.86-6.31,8.61-2.26,2.89-5.44,5.04-6.6,9.93-1.17,4.9-.07,5.95-.83,9.25-3.4-.81-8.9-1.44-10.82,2.92-5.36,8.42-19.32,9.78-20.52,14.38-.36,1.37,9.18-1.07,10.35,2.12s4.33,4.05,9.05,2.18,4.07,1.05,6.53-.22c6.99-3.59,12.07-9.42,12.81-14.21,4.66-1.3,9.84-8.14,11.36-16.21Z"/>
    <path class="cls-21" d="m192.83,818.66c-1.79.92-1.32-1.2-4.74.15s-5.72.74-6.56-1.6-7.8-.53-7.53-1.53c.88-3.34,11.02-4.33,14.91-10.45.73-1.65,4.94-4.1,3.77-.12s-6.86,5.15-6.58,7.42c.42,3.43,8.21,5.37,6.74,6.12Z"/>
    <path class="cls-41" d="m209.6,799.82c-4.81-.84-4.29-4.43-.78-7.18,3.52-2.75,1.98-9.43,3.85-9.61s4.53,5.31,2.17,9.45-.88,8.12-5.24,7.34Z"/>
    <path class="cls-41" d="m208.55,790.31c-1.44,1.1-2.23-.85-4.26,1.88s-3.53,7.9-3.73,7.05c-.18-.78.45-7.6.45-7.6.89-3.4,2.54-5.8,5.32-6.68,1.49-.38,2.24.04,3.05,1.04s.62,3.22-.82,4.32Z"/>
    <path class="cls-41" d="m204.84,799.07c.75.64-.57,2.03,1.27,2.45s5.33-.53,4.75-.04c-.52.45-5.12,2.73-5.12,2.73-2.29.7-3.91.43-4.51-1.3-.26-.97.02-1.7.69-2.71s2.16-1.76,2.91-1.12Z"/>
    <path class="cls-21" d="m202.47,811.51c-2.22,4.68-8.13,8.53-6.39,5.42s-8.01-.95-6.66-4.79c.31-1.35,3.66-3.09,5.06-4.66s-.62-4.03,2.11-4.97,2.29,1.29,3.03,3.88c.74,2.59,5.06.45,2.84,5.13Z"/>
    <path class="cls-20" d="m229.85,800.62c7.55-1.42,7.67.98,11.48,2.53,5.9,2.42,10.08,1.53,10.01,3.22-.12,3-3.27,2.08-9.87,7.23-3.33,2.59-5.77,6.23-11.39,7.56-5.62,1.33-6.83.09-10.61.97.91,3.91,1.64,10.2-3.35,12.39-9.65,6.13-11.21,22.12-16.5,23.51-1.57.41,1.23-10.51-2.42-11.86-3.66-1.34-4.64-4.97-2.49-10.37s-1.2-4.67.26-7.48c4.12-8,10.81-13.82,16.3-14.67,1.48-5.34,9.33-11.28,18.58-13.02Z"/>
    <path class="cls-35" d="m227.5,801.91c6.59-1.24,6.7.86,10.01,2.22,5.15,2.1,8.79,1.33,8.74,2.8-.1,2.62-2.86,1.82-8.61,6.31-2.89,2.26-5.04,5.43-9.94,6.6-4.9,1.16-5.95.06-9.25.83.8,3.4,1.44,8.9-2.92,10.82-8.43,5.35-9.79,19.31-14.39,20.51-1.37.35,1.08-9.18-2.11-10.35s-4.05-4.34-2.17-9.05c1.87-4.72-1.05-4.07.22-6.53,3.6-6.99,9.43-12.06,14.22-12.8,1.3-4.66,8.14-9.84,16.22-11.35Z"/>
    <path class="cls-21" d="m200.25,826.09c-.92,1.78,1.2,1.32-.16,4.74s-.74,5.72,1.58,6.58.54,7.78,1.54,7.52c3.34-.87,4.33-11.02,10.46-14.9,1.65-.73,4.11-4.93.13-3.77s-5.16,6.86-7.42,6.58c-3.44-.42-5.37-8.22-6.12-6.75Z"/>
    <path class="cls-25" d="m238.57,807.04c-1.44.33-2.63,1.36-2.66,2.29s1.12,1.41,2.56,1.07,6.14-1.93,6.22-2.93-4.68-.77-6.12-.43Z"/>
    <path class="cls-41" d="m219.1,809.33c.84,4.81,4.42,4.3,7.18.78s9.43-1.97,9.62-3.84-5.31-4.53-9.45-2.18c-4.14,2.35-8.1.89-7.35,5.24Z"/>
    <path class="cls-41" d="m228.61,810.39c-1.1,1.44.85,2.23-1.88,4.26s-7.9,3.52-7.05,3.72c.78.18,7.6-.44,7.6-.44,3.41-.89,5.8-2.53,6.68-5.31.38-1.49-.04-2.24-1.04-3.05s-3.22-.62-4.32.82Z"/>
    <path class="cls-41" d="m219.85,814.09c-.64-.75-2.03.57-2.45-1.28s.53-5.33.04-4.75c-.45.52-2.73,5.11-2.73,5.11-.7,2.29-.43,3.91,1.3,4.51.97.26,1.7-.02,2.71-.69s1.76-2.16,1.12-2.91Z"/>
    <path class="cls-21" d="m207.41,816.46c-4.69,2.22-8.53,8.13-5.43,6.38,3.11-1.74.94,8.01,4.79,6.66,1.35-.31,3.09-3.66,4.68-5.05s4.03.62,4.97-2.11-1.29-2.29-3.87-3.04-.45-5.07-5.14-2.85Z"/>
    <path class="cls-35" d="m232.83,792.79c.92-.41,1.63-.16,1.39.64-.22.72-.29,1.26-.84,1.69-1,.79-1.44.24-1.4-.64.03-.71.23-1.4.84-1.69Z"/>
    <path class="cls-18" d="m213.32,802.47s18.76-15.91,10.59-16.99"/>
    <path class="cls-18" d="m216.28,805.43s15.92-18.75,17-10.57"/>
  </g>
  <polygon class="cls-44" points="1056.54 755.17 1424.04 1097.67 455.29 1096.42 1056.54 755.17"/>
  <rect class="cls-26" x="722.71" y="911.38" width="26.45" height="3.97" rx="1.99" ry="1.99" transform="translate(997.1 -230.15) rotate(51.72)"/>
  <path class="cls-33" d="m767.01,909.59c3,1.17,8.77,2.96,16.09,2.3,8.7-.79,14.81-4.61,17.47-6.51,1.8-1.26,12.16-8.76,14.39-23.05,2.2-14.12-5.19-24.32-6.53-26.11-1.4-1.7-9.9-11.73-24.52-12.64-12.99-.81-21.94,6.13-23.95,7.77-2.52,1.91-7.61,6.32-10.86,13.84-3.62,8.38-2.92,15.88-2.44,18.99-4.64,3.66-9.27,7.33-13.91,10.99-.22.23-1.04,1.16-1.1,2.61-.06,1.42.64,2.4.84,2.66,5.13,6.44,10.27,12.88,15.4,19.32.31.28,1.25,1.05,2.69,1.2,1.59.17,2.75-.53,3.08-.74,4.45-3.54,8.91-7.08,13.36-10.62Z"/>
  <rect class="cls-26" x="725.84" y="908.91" width="26.45" height="3.99" rx="2" ry="2" transform="translate(996.35 -233.54) rotate(51.72)"/>
  <rect class="cls-26" x="719.55" y="913.8" width="26.45" height="3.97" rx="1.99" ry="1.99" transform="translate(997.79 -226.75) rotate(51.72)"/>
  <path class="cls-1" d="m746.54,921.63c-.14.08-.44.23-.84.21-.35-.01-.6-.14-.72-.2-.3-.16-.49-.36-.58-.49-4.68-5.99-9.35-11.99-14.03-17.98-.11-.21-.18-.4-.22-.54-.06-.19-.11-.36-.11-.6,0-.11,0-.31.08-.55.07-.21.18-.36.26-.46,5.39,6.87,10.78,13.74,16.17,20.6Z"/>
  <path class="cls-1" d="m731.38,900.2c.09-.04.23-.1.42-.12.21-.03.38,0,.48.03,5.26,6.62,10.51,13.24,15.77,19.86-.02.12-.06.25-.12.4-.07.18-.16.33-.24.44-5.44-6.87-10.87-13.74-16.31-20.61Z"/>
  <path class="cls-1" d="m725.15,905.13c.14-.08.44-.23.84-.22.35.01.6.14.72.2.3.16.49.36.59.48,4.7,5.97,9.41,11.94,14.11,17.92.11.21.18.4.22.54.06.19.11.36.12.6,0,.11,0,.31-.08.55-.07.21-.18.36-.25.46-5.42-6.84-10.84-13.69-16.26-20.53Z"/>
  <path class="cls-1" d="m728.32,902.7c.14-.08.44-.23.84-.22.35.01.6.14.72.2.3.16.49.36.59.48,4.7,5.97,9.41,11.94,14.11,17.92.11.21.18.4.22.54.06.19.11.36.12.6,0,.11,0,.31-.08.55-.07.21-.18.36-.25.46-5.42-6.84-10.84-13.69-16.26-20.53Z"/>
  <path class="cls-1" d="m743.41,924.15c-.14.08-.44.23-.84.21-.35-.01-.6-.14-.72-.2-.3-.16-.49-.36-.58-.49-4.68-5.99-9.35-11.99-14.03-17.98-.11-.21-.18-.4-.22-.54-.06-.19-.11-.36-.11-.6,0-.11,0-.31.08-.55.07-.21.18-.36.26-.46,5.39,6.87,10.78,13.74,16.17,20.6Z"/>
  <path class="cls-46" d="m765.34,847.9c-10.03,12.48-10.59,30.16-.55,42.79,9.98,12.55,27.09,16.5,41.48,9.68-2.22,2.39-9.31,9.89-21.31,11.47-7.92,1.04-14.3-.89-17.55-2.14-6.86-8.56-13.71-17.12-20.57-25.67-.47-3.15-1.3-11.58,3.11-20.76,4.59-9.57,12.66-13.85,15.4-15.36Z"/>
  <path class="cls-46" d="m746.74,883.89l20.57,25.67-13.65,10.67c-.36.22-1.77,1.02-3.56.65-1.1-.23-1.85-.79-2.21-1.11-5.13-6.44-10.27-12.88-15.4-19.32-.2-.29-.95-1.46-.74-3.03.15-1.16.74-1.93,1.01-2.24,4.66-3.76,9.32-7.53,13.98-11.29Z"/>
  <g>
    <polygon class="cls-37" points="747.52 897.86 778.04 856.38 779.26 856.53 748.72 897.39 747.52 897.86"/>
    <polygon class="cls-37" points="753.71 905.71 801.15 885.67 801.3 884.45 754.45 904.65 753.71 905.71"/>
  </g>
  <path class="cls-44" d="m872.18,510.42c-1.47.36-13.75,3.39-13.93,8.3-.17,4.8,11.27,10.31,21.63,10.37,12.15.07,25.19-7.33,24.59-12.44-.66-5.67-18.18-9.7-32.3-6.22Z"/>
  <path class="cls-37" d="m779.21,856.57c.33,2.96,1.52,10.03,6.89,16.93,5.53,7.11,12.35,9.98,15.14,10.99-.46.41-.92.82-1.38,1.23-3.08-1.38-9.29-4.64-14.58-11.42-5.21-6.69-6.88-13.41-7.48-16.72.47-.34.93-.67,1.4-1.01Z"/>
  <path class="cls-26" d="m922.43,501.15l-2.23,11.97c-.11.58-.66.98-1.24.88h0c-.57-.1-.95-.65-.84-1.24l2.23-11.97c.11-.58.66-.98,1.24-.88h0c.57.1.95.65.84,1.24Z"/>
  <path class="cls-33" d="m907.89,495.86c-.58-1.62-1.88-4.59-4.7-7.28-3.36-3.2-7.03-4.27-8.73-4.65-1.14-.27-7.77-1.7-14.3,2.59-6.45,4.24-7.96,10.89-8.21,12.08-.2,1.18-1.26,8.22,3.49,14.41,4.22,5.5,10.13,6.58,11.5,6.79,1.65.32,5.2.76,9.36-.66,4.64-1.58,7.4-4.58,8.49-5.9,3.09.53,6.19,1.06,9.28,1.59.17,0,.83,0,1.43-.5.59-.49.74-1.13.78-1.3.79-4.39,1.59-8.78,2.38-13.17,0-.23-.01-.88-.46-1.51-.49-.7-1.17-.91-1.38-.97-2.98-.5-5.96-1.01-8.94-1.51Z"/>
  <path class="cls-26" d="m920.35,500.8l-2.22,11.97c-.11.59-.67.98-1.24.88h0c-.58-.1-.96-.66-.85-1.24l2.22-11.97c.11-.59.67-.98,1.24-.88h0c.58.1.96.66.85,1.24Z"/>
  <path class="cls-26" d="m924.5,501.54l-2.23,11.97c-.11.58-.66.98-1.24.88h0c-.57-.1-.95-.65-.84-1.24l2.23-11.97c.11-.58.66-.98,1.24-.88h0c.57.1.95.65.84,1.24Z"/>
  <path class="cls-1" d="m919.89,499.71c.08.03.25.1.38.26.12.14.15.29.17.36.04.18.02.33,0,.41-.77,4.05-1.55,8.09-2.32,12.14-.05.12-.1.22-.14.28-.06.09-.11.17-.2.26-.04.04-.12.11-.25.17-.11.05-.21.06-.27.06.88-4.65,1.75-9.3,2.63-13.95Z"/>
  <path class="cls-1" d="m916.58,513.56c-.05-.02-.12-.06-.19-.12-.08-.07-.13-.15-.16-.2.82-4.51,1.65-9.01,2.47-13.52.05-.03.12-.07.2-.1.1-.04.19-.06.26-.07l-2.58,14.01Z"/>
  <path class="cls-1" d="m920.73,514.27c-.08-.03-.25-.09-.38-.26-.12-.14-.15-.29-.17-.36-.04-.18-.03-.33-.01-.41.76-4.05,1.51-8.1,2.27-12.15.05-.12.1-.22.14-.29.06-.09.11-.18.2-.26.04-.04.12-.11.25-.17.11-.05.21-.06.27-.06-.86,4.65-1.71,9.31-2.57,13.96Z"/>
  <path class="cls-1" d="m918.65,513.88c-.08-.03-.25-.09-.38-.26-.12-.14-.15-.29-.17-.36-.04-.18-.03-.33-.01-.41.76-4.05,1.51-8.1,2.27-12.15.05-.12.1-.22.14-.29.06-.09.11-.18.2-.26.04-.04.12-.11.25-.17.11-.05.21-.06.27-.06-.86,4.65-1.71,9.31-2.57,13.96Z"/>
  <path class="cls-1" d="m922,500.05c.08.03.25.1.38.26.12.14.15.29.17.36.04.18.02.33,0,.41-.77,4.05-1.55,8.09-2.32,12.14-.05.12-.1.22-.14.28-.06.09-.11.17-.2.26-.04.04-.12.11-.25.17-.11.05-.21.06-.27.06.88-4.65,1.75-9.3,2.63-13.95Z"/>
  <path class="cls-46" d="m883.67,518.89c8.52-.5,15.83-6.68,17.39-15.28,1.56-8.55-2.84-16.84-10.61-20.14,1.73.02,7.23.15,12.06,4.39,3.19,2.8,4.64,6.06,5.27,7.81-1.04,5.85-2.09,11.7-3.13,17.55-1.1,1.33-4.2,4.71-9.43,6.28-5.45,1.63-10-.06-11.56-.61Z"/>
  <path class="cls-46" d="m904.65,513.31l3.13-17.55,9.06,1.61c.21.06,1.03.34,1.51,1.19.29.52.33,1.03.33,1.29-.79,4.39-1.59,8.78-2.38,13.17-.05.19-.25.91-.96,1.39-.52.36-1.04.4-1.25.41-3.14-.51-6.29-1.01-9.43-1.52Z"/>
  <g>
    <polygon class="cls-37" points="909.99 507.93 882.64 510.72 882.28 510.18 909.38 507.62 909.99 507.93"/>
    <polygon class="cls-37" points="910.98 502.61 886.34 490.84 885.8 491.23 910.29 502.69 910.98 502.61"/>
  </g>
  <path class="cls-37" d="m882.31,510.19c1.07-1.21,3.5-4.24,4.4-8.9.92-4.79-.3-8.57-.87-10.05.32.04.65.07.97.11.52,1.73,1.38,5.41.5,9.98-.87,4.51-2.99,7.62-4.11,9.06-.3-.07-.59-.13-.89-.2Z"/>
  <path class="cls-44" d="m120.52,1034.73c-3.19.09-29.87.86-32.01,10.01-2.09,8.94,19.77,23.86,41.33,28.13,25.29,5,55.12-3.68,55.73-13.53.67-10.91-34.37-25.49-65.05-24.61Z"/>
  <g>
    <path class="cls-42" d="m143.86,1047.02c-6.22-3.47-10.76,5.47-16.94,2.86-5.23-2.21-15.63-12.22-13.81-16.27.34-.77-6.03-6.33-5.27-10.92,1.09-6.58-4.61-9.81-5.09-11.16-.12-.35-1.02-3.14,1.04-4.6,2.13-1.51,3.67-1.18,3.99-2.53.27-1.13-.26-1.08-.83-3.51-.47-1.99.36-4.06,2.04-4.74,1.4-.56,2.74.11,3.1-.71.35-.8-.78-1.79-1.24-3.34-.8-2.72,1.25-4.56,2.22-5.43.86-.77,3.21-2.87,6.61-1.91,1.87.53,5.2-9.31,6.42-10.27,1.15-.9,1.62-1.72,2.95-1.97.22-.04,3.25-.56,5.83,1.38,1.45,1.08,4.1,2.34,5.27,2.02.08-.37.8-3.69,3.46-3.51,1.43.09,3.08,1.19,4.15,1.89,2.24,1.49,5.07,2,6.73,1.3.58-.25,3.09-1.31,5.68.12,2.12,1.17,3.23,3.41,3.69,4.33.29.58,1.08,2.32.92,4.19-.29,3.29-.36,8.72.08,9.72.9,2.03,1.49,3.77,2.26,6.17.48,1.49,1.99,3.42,1.99,3.42.68.74,2.17,2.48,2.89,4.77.26.81,1.09,3.42-.16,4.95-.47.58-.92.61-4.55,1.43-3.82.87-4.18,1.04-4.55,1.43-1.57,1.67-.8,4.62-.67,5.07.39,1.41.85,1.63,1.62,3.38.52,1.19,1.97,4.5,1.07,6.87-.97,2.59-4.31,2.95-5.57,3.09-3.16.35-4.51-.94-6.2,0-1.21.67-1.52,1.91-2.13,4.37-.43,1.74-.27,2.22-.67,5.07-.75,5.33-4.44,4.06-6.32,3.01Z"/>
    <polygon class="cls-38" points="124.46 1037.97 154.96 1040.94 184.64 1062.92 195.2 1052.34 170.26 1023.27 160.13 991.57 155.31 992.72 158.2 1013.89 147.97 995.97 144.01 997.33 153.78 1018.59 128.88 1005.55 126.51 1011.5 146.91 1023.31 130.97 1022.02 130.18 1024.54 143.75 1029.36 121.2 1031.69 124.46 1037.97"/>
    <path class="cls-42" d="m127.93,992.99c2.65,2.44,2.38,6.19,2.01,11.34-.39,5.43-.64,8.87-3.68,10.67-3.42,2.03-9.58,1.51-12.44-1.71-1.95-2.2-1.66-4.86-1.15-9.52.62-5.63,1.12-10.23,5.2-12.03,2.7-1.19,7.3-1.28,10.06,1.25Z"/>
    <path class="cls-42" d="m133.96,1000.09c1.49.64,6.18,2.48,10.32.94,3.94-1.46,5.19-5.16,5.87-7.18,1.44-4.25.6-7.99,1.3-7.93.43.04,1.25,1.47,2.99,7.39"/>
    <ellipse class="cls-42" cx="122.29" cy="1034.45" rx="4.85" ry="4.53" transform="translate(-739.61 449.5) rotate(-49.09)"/>
    <path class="cls-42" d="m133.85,1037.7l-.13-.11.13.11.13.11-.13-.11Z"/>
    <ellipse class="cls-42" cx="128.18" cy="1023.08" rx="4.19" ry="4.79" transform="translate(-728.99 450.03) rotate(-49.09)"/>
    <ellipse class="cls-42" cx="154.64" cy="987.83" rx="8.45" ry="7.53" transform="translate(-693.22 457.86) rotate(-49.09)"/>
    <polygon class="cls-31" points="125.03 1038.21 155.54 1040.89 158.2 1037.29 125.03 1038.21"/>
    <polygon class="cls-31" points="132.57 1025.32 153.2 1033.14 156.12 1033.94 155.3 1029.93 132.57 1025.32"/>
    <polygon class="cls-31" points="158.2 1037.29 190.98 1056.68 184.64 1062.92 154.96 1040.94 158.2 1037.29"/>
    <polygon class="cls-31" points="153.78 1018.59 145.51 1000.47 147.6 998.8 162.65 1027.98 153.78 1018.59"/>
    <polygon class="cls-31" points="184.49 1053.32 170.26 1023.27 195.2 1052.34 190.98 1056.68 184.49 1053.32"/>
    <polygon class="cls-31" points="164.92 1006.02 160.42 992.66 155.7 995.63 156.7 1003.1 164.92 1006.02"/>
    <polygon class="cls-31" points="128.42 1012.8 129.7 1005.93 146.69 1023.37 128.42 1012.8"/>
  </g>
  <rect id="_Slice_" data-name="&amp;lt;Slice&amp;gt;" class="cls-16" x="886.12" y="1097.42" width="61" height="17"/>
  <path class="cls-44" d="m397.49,698.63c13.6-3.03,27.2-6.06,40.8-9.09l16.67,11.77,11.2,7.76,6.47,31.82,7.71,41.18c-8.04.45-16.09.89-24.13,1.34-2.35.23-5.87.27-9.95-.8-3.68-.97-6.54-2.5-8.46-3.74-.78-1.99-1.53-4.04-2.24-6.15-5.06-15.02-6.93-29.4-7.21-41.99-8.56-1.98-15.55-2.26-20.4-2.14-9.11.22-12.92,1.92-19.41.53-7.45-1.59-12.94-6.07-16.42-9.63-.33-.41-2.47-3.11-1.99-6.95.56-4.47,4.16-6.51,4.48-6.69,7.63-2.41,15.26-4.81,22.89-7.22Z"/>
  <path class="cls-27" d="m491,657.13c4.53,20.26-9.48,40.64-31.3,45.53-6.96,1.56-16.89-.07-23.57-2.41-4.52-1.58-8.29-3.86-8.6-4.05-1.91-1.17-4.47-2.75-7.19-5.57-.9-.93-2.6-2.81-4.26-5.52,0,0-3.06-4.62-4.09-10.3-3.05-16.85,9.08-40.56,31.3-45.53,21.82-4.88,43.18,7.59,47.72,27.85Z"/>
  <ellipse class="cls-45" cx="457.15" cy="676.34" rx="33.19" ry="30.81" transform="translate(-136.65 116.14) rotate(-12.61)"/>
  <path class="cls-48" d="m498.49,762.06c13.08-.98,26.71,3.44,27.56,8.89.69,4.44-7.37,7.89-6.22,11.11,1.62,4.55,18.13-1.15,23.11,5.33,3.92,5.1.44,17.4-7.11,24.89-17.18,17.06-47.75,1.61-56,15.56-3.49,5.91-1.51,14.6,2.22,19.56,9.29,12.31,31.9,4.77,34.22,11.56,1.83,5.36-9.83,17.11-24,21.78-16.46,5.43-24.43-2.61-44.44,3.56-3.89,1.2-17.96,5.53-18.22,12-.33,7.93,20.42,10.26,20.89,18.67.5,8.93-22.15,20.26-43.11,19.11-3.19-.17-23.24-1.27-28-12.44-2.9-6.81,2.48-11.26-.44-19.56-3.53-10.04-15.25-14.44-18.22-15.56-16.08-6.03-23.59,3.51-37.78-2.67-8.37-3.64-17.07-11.89-16-18.67.49-3.11,3-5.58,24.89-16.89,16.16-8.35,20.01-9.7,20.89-13.78,1.68-7.79-10.4-11.99-9.78-22.67.39-6.73,5.7-13.9,12-15.56,8-2.1,11.33,6.33,24.89,8.89,2.36.45,18.28,3.21,27.11-5.33,7.17-6.94,2.74-14.65,10.67-21.78,5.35-4.82,12.1-5.55,18.22-6.22,12.12-1.32,14.85,2.58,24.89,2.67,17.08.15,19.17-11.04,37.78-12.44Z"/>
  <path class="cls-30" d="m453.24,760.67c-5.63-27.93-11.27-55.87-16.9-83.8.21-1.88,1.04-6.91,5.11-11.33,5.84-6.35,13.76-6.45,15.11-6.44,1.76-.4,5.76-1.05,10.44.44,4.26,1.36,6.97,3.82,8.22,5.11l54.35,70.19-76.34,25.83Z"/>
  <ellipse class="cls-46" cx="491.41" cy="747.76" rx="40.3" ry="32.1" transform="translate(-213.76 196.98) rotate(-18.7)"/>
  <polygon class="cls-48" points="469.12 770.97 462.07 775.35 480.44 781.46 496.31 781.04 511.19 775.07 518.8 769.54 521.44 766.13 519.61 763.46 469.12 770.97"/>
  <path class="cls-32" d="m519.61,763.46c-6.95-16.05-12.76-30.47-19.71-46.52-3.5-.19-9.07-.47-15.49,1.55-5.85,1.84-10.22,4.55-12.99,6.57-2.72,1.81-7.18,5.26-10.96,10.96-3.39,5.11-4.17,10.11-4.84,13.15.06,2.36.14,5.2.64,9.47.39,3.4,2.98,5.42,3.62,7.98,3.84,3.84,2.43,2.32,3.94,3.83,1.92,1.92,4.19,2.74,5.42,3.19,1.84,1.09,3.59,1.37,6.49,2.34,3.12,1.04,5.61,1.39,7.87,1.38,9.92-.01,6.19.21,10-.53,3.95-.77,6.86-1.38,9.36-2.45,3.32-1.58,7.02-2.76,10.99-5.6,2.43-1.74,3.82-3.64,5.67-5.32Z"/>
  <path class="cls-43" d="m441.79,704.31c-1.81-.58-3.01-1.37-3.78-2-1.32-1.07-1.25-1.55-2.44-2.22-1.36-.76-1.84-.36-3.67-1.33-.53-.28-.56-.35-1.89-1.11-1.15-.66-1.19-.64-1.78-1-1-.62-1.01-.75-2.11-1.44-.83-.52-.95-.53-1.67-1-.74-.48-1.3-.92-1.67-1.23-2.31-1.73-3.77-3.44-4.67-4.66-.84-1.14-1.57-2.38-2.05-3.19-.39-.66-1.11-1.88-1.78-3.3-.68-1.43-1.52-3.49-2.17-6.17-.09-.52-.21-1.24-.33-2.11-.2-1.43-.3-2.6-.33-3.06-.2-2.79.31-5.48.67-7.72.24-1.5.6-3.13,1.11-4.85,1.2-4.02,2.89-7.26,4.44-9.7.79,2.21,2.08,5.11,4.22,8.16,1.9,2.71,3.9,4.73,5.56,6.18,1.27,1.07,3.18,2.45,5.78,3.53,2.24.93,4.26,1.35,5.78,1.54,7.85,20,16.04,40.71,23.89,60.7-2.14,2.15-4.98,5.13-7.33,9.78-2.61,5.15-3.6,11.63-4,14.78-3.26-15.59-6.52-32.97-9.78-48.56Z"/>
  <polygon class="cls-6" points="443.67 632.82 445.53 639.76 457.45 638.89 455.86 631.09 443.67 632.82"/>
  <path class="cls-44" d="m108.69,772.53c-1.83.57-17.1,5.37-16.88,11.27.21,5.77,15.2,11.27,28.33,10.36,15.39-1.07,31.23-11.19,30.01-17.26-1.35-6.73-23.89-9.89-41.46-4.37Z"/>
  <g>
    <path class="cls-8" d="m106.96,767.64l1.69-14.71c.29-2.52,2.34-4,4.58-3.31l35.75,11.01c2.24.69,3.82,3.29,3.53,5.81l-1.69,14.71c-.29,2.52-2.34,4-4.58,3.31l-35.75-11.01c-2.24-.69-3.82-3.29-3.53-5.81Z"/>
    <path class="cls-47" d="m110.97,749.53c.07-.01.17-.03.29-.06.1-.03.17-.05.19-.06.22-.07.45-.09.57-.1.28-.02.82.03,1.49.26.02,3.96.05,7.93.07,11.89l-2.72,12.2c-.35-.06-.95-.21-1.6-.67-.41-.29-.72-.61-.93-.86.88-7.54,1.76-15.07,2.64-22.61Z"/>
    <path class="cls-47" d="m110.59,773.58c-.44-.27,1.64-4.73,2.42-11.64.54-4.75.5-9,.28-12.44,12.01,3.72,24.02,7.44,36.02,11.17,0,0,0,0,0,0,0,0-.24-.05-.24-.05-.46-.1-24.57-1.21-28.89-.79-.74.07-2.02.21-2.99,1.27-.8.88-1.02,1.99-1.1,2.38-.91,4.29-4.97,10.45-5.51,10.11Z"/>
    <g>
      <polygon class="cls-37" points="142.55 773.49 132.15 762.79 130.77 766.7 142.55 773.49"/>
      <polygon class="cls-37" points="121.51 761.54 132.09 772.09 133.36 768.12 121.51 761.54"/>
    </g>
    <path class="cls-47" d="m113.35,749.57c-.47,0,.48,5.38-.32,12.29-.55,4.74-1.53,8.69-2.5,11.76,12.05,3.69,24.11,7.38,36.16,11.07,0,0,0,0,0,0,0,0-.24-.1-.24-.1-.45-.18-23.23-13.52-27.19-16.48-.68-.51-1.84-1.4-2.51-2.96-.56-1.3-.51-2.47-.5-2.87.1-4.54-2.32-12.7-2.9-12.7Z"/>
    <path class="cls-36" d="m148.38,784.58c.14.03.94-.26,1.53-.93s.99-1.74,1.01-1.8c0,0,0,0,0,0l1.91-15.28c.03-.41-.07-1.58-.57-2.88-.45-1.18-.98-1.73-1.22-1.91-.18.09-.41.18-.66.51-.27.35-.46.79-.71,1.78-.19.73-.27,1.19-.57,2.88-.34,1.92-.34,1.9-.41,2.3-.19,1.17-.31,2.06-.39,2.69-.17,1.33-.28,2.34-.36,3.15-.11,1.06-.17,1.59-.22,2.38-.03.35-.1,1.34-.13,2.65-.02.79-.02,1.37,0,2.02.05,1.13.16,1.59.36,1.95.15.26.31.4.42.48Z"/>
    <path class="cls-37" d="m149.91,777.38l.87-7.61c.08-.73.68-1.17,1.33-.96l1.58.49c.65.2,1.11.96,1.03,1.69l-.87,7.61c-.08.73-.68,1.17-1.33.96l-1.58-.49c-.65-.2-1.11-.96-1.03-1.69Z"/>
    <path class="cls-26" d="m153.94,769.36l-1.97-.61c-.09-.02-.43-.11-.75.1-.28.18-.37.46-.4.56-.31,2.73-.63,5.47-.94,8.2,0,.14.03.39.16.67.2.44.53.66.64.73.73.2,1.46.4,2.19.61-.39-.29-1.03-.86-1.51-1.8-.16-.32-.28-.62-.36-.89.21-2.03.43-4.05.64-6.08.1-.23.25-.51.49-.76.65-.7,1.5-.75,1.82-.75Z"/>
  </g>
  <path class="cls-25" d="m211.91,780.35c-.34,1.44-1.36,2.63-2.29,2.66s-1.41-1.12-1.07-2.56,1.93-6.14,2.94-6.22c1.01-.08.76,4.68.43,6.12Z"/>
  <path class="cls-35" d="m225.02,786.55c-.76.73-1.59.84-1.7.11-.1-.67-.26-1.12.11-1.7.67-1.06,1.35-.83,1.7-.11.28.57.4,1.21-.11,1.7Z"/>
  <polygon class="cls-22" points="534.79 789.24 535.97 797.24 533.3 803.46 521.45 811.16 502.79 812.35 489.16 814.42 499.82 814.72 513.16 814.72 523.23 814.13 528.56 810.87 535.08 805.53 538.04 799.9 539.23 796.05 534.79 789.24"/>
  <polygon class="cls-22" points="482.93 815.61 475.23 820.94 473.45 827.46 473.16 836.94 475.23 846.42 479.38 851.46 486.79 855.02 498.04 857.39 482.93 856.2 475.23 852.65 471.67 847.61 470.49 840.5 469.3 832.79 470.19 826.57 471.97 819.76 482.93 815.61"/>
  <polygon class="cls-22" points="468.41 876.05 478.49 877.53 488.86 876.05 497.45 871.61 503.38 867.46 507.82 863.02 504.86 868.65 498.04 873.98 489.75 877.83 484.41 879.61 476.12 879.31 468.41 876.05"/>
  <polygon class="cls-22" points="518.8 769.54 521.16 771.16 519.08 775.02 516.41 778.28 515.53 781.83 518.19 785.09 517.3 781.24 518.79 778.57 521.75 775.02 523.53 771.76 522.04 768.2 518.19 766.13 516.41 768.2 518.8 769.54"/>
  <path class="cls-22" d="m450.04,874.57l-20.44,5.93-6.22,7.41-3.26,8.3,3.56,5.63,8.3,6.81,7.7,4.74,3.56,2.96-2.07-4.44-6.81-4.15-3.26-3.85-3.56-4.44-1.48-5.04,2.37-4.44,3.26-3.85,4.44-2.37,5.04-3.56s6.22-2.07,7.11-2.07,5.04-.3,5.04-.3h5.33l3.56.3-12.15-3.56Z"/>
  <path class="cls-22" d="m386.64,922.87l5.33,2.67,11.85,2.67,8.3-.89,12.44-1.48,10.96-2.07,4.15-4.74,3.26-4.15-1.19,5.33-2.96,3.85-7.11,2.37s-7.11,1.78-8,1.78-8.3.89-8.3.89l-8.89.89-5.93.3-6.81-1.78-7.11-5.63Z"/>
  <path class="cls-21" d="m1361.05,237.92l.63-25.43-53.45-39.65-1.89,76.85,53.45,39.65.29-11.69-13.84-10.27,18.66-17.92,13.84,10.27-1.82,74.07-89.23-66.18,3.43-139.22,89.23,66.18-.63,25.43-18.66,17.92Z"/>
  <path class="cls-21" d="m1410.63,361.85l-17.61-13.06,3.49-141.99,87.85,65.16-3.49,141.99-17.61-13.06,1.23-49.79-52.63-39.04-1.23,49.79Zm2.01-81.6l52.63,39.04.7-28.59-52.63-39.04-.7,28.59Z"/>
  <path class="cls-21" d="m1543.73,355.71l44.26-6.88-3.49,141.99-17.19-12.75,2.24-90.87-26.47.03-25.42-38.52-2.24,90.87-17.4-12.91,3.39-142.07,42.34,71.12Z"/>
  <path class="cls-21" d="m1631.24,413.29l-.67,27.07,64.9,48.13-18.29,18.82-47.39-35.15-.48,19.5,70.24,52.1-.78,31.81-87.85-65.16,3.49-141.99,87.85,65.16-.78,31.81-70.24-52.1Z"/>
  <path class="cls-21" d="m1288.07,328.32l87.85,65.16-3.49,141.99-87.85-65.16,3.49-141.99Zm14.9,123.25l52.63,39.04,1.93-78.38-52.63-39.04-1.93,78.38Z"/>
  <path class="cls-21" d="m1463.47,460.06l17.61,13.06-2.64,107.34-19.83,20.57-68.88-51.09,3.49-141.99,17.61,13.06-2.71,110.18,42.77,31.73,10.3-10.67,2.27-92.2Z"/>
  <path class="cls-21" d="m1516.85,532.04l-.67,27.07,64.9,48.13-18.29,18.82-47.39-35.15-.48,19.5,70.24,52.1-.78,31.81-87.85-65.16,3.49-141.99,87.85,65.16-.78,31.81-70.24-52.1Z"/>
  <path class="cls-21" d="m1697.78,722.01l5.13,56.05-17.72-13.14-5.13-56.05-47.39-35.15-1.26,51.3-17.51-12.99,3.49-141.99,87.85,65.16-2.23,90.68-5.24-3.89Zm-10.92-68.05l-52.63-39.04-.67,27.07,52.63,39.04.67-27.07Z"/>
  <polygon class="cls-13" points="1350.49 823 1445.66 913.81 1441.76 960.93 1346.59 870.12 1350.49 823"/>
  <polygon class="cls-13" points="1256.54 734.28 1351.71 825.09 1347.81 872.22 1252.64 781.41 1256.54 734.28"/>
  <polygon class="cls-11" points="1301.77 827.75 1397.6 919.18 1393.7 966.31 1297.87 874.87 1301.77 827.75"/>
  <polygon class="cls-13" points="1384.92 1061.68 1289.73 971.13 1293.51 923.9 1388.7 1014.44 1384.92 1061.68"/>
  <polygon class="cls-11" points="1434.81 1057.92 1338.96 966.75 1342.74 919.51 1438.59 1010.68 1434.81 1057.92"/>
  <polygon class="cls-13" points="1295.67 873.13 1200.49 782.46 1204.32 735.28 1299.51 825.94 1295.67 873.13"/>
  <polygon class="cls-11" points="1251.65 780.91 1155.81 689.62 1159.65 642.43 1255.49 733.72 1251.65 780.91"/>
  <polygon class="cls-13" points="1352.4 826.95 1257.21 736.29 1261.05 689.1 1356.23 779.77 1352.4 826.95"/>
  <polygon class="cls-13" points="1446.35 915.53 1351.17 824.86 1355.01 777.67 1450.19 868.34 1446.35 915.53"/>
  <rect class="cls-19" x="719.67" y="67.51" width="102.07" height="47.41" transform="translate(-5.28 78.54) rotate(-5.81)"/>
  <rect class="cls-19" x="280.65" y="332.37" width="102.07" height="47.41" transform="translate(701.87 671.93) rotate(173.44)"/>
  <rect class="cls-12" x="338.3" y="372.92" width="102.78" height="47.41" transform="translate(822.14 746.14) rotate(173.44)"/>
  <rect class="cls-12" x="349.13" y="469.21" width="102.07" height="47.41" transform="translate(-54.84 50.11) rotate(-6.71)"/>
  <rect class="cls-12" x="449.02" y="456.59" width="102.07" height="47.41" transform="translate(-52.68 61.7) rotate(-6.71)"/>
  <rect class="cls-12" x="391.92" y="416.05" width="102.78" height="47.41" transform="translate(-48.33 54.79) rotate(-6.71)"/>
  <rect class="cls-19" x="234.6" y="385.29" width="102.07" height="47.41" transform="translate(-45.37 35.77) rotate(-6.64)"/>
  <rect class="cls-12" x="177.54" y="344.68" width="102.78" height="47.41" transform="translate(-41.05 28.94) rotate(-6.64)"/>
  <rect class="cls-19" x="870.64" y="100.21" width="102.07" height="47.41" transform="translate(1851.21 152.53) rotate(174.11)"/>
  <rect class="cls-19" x="770.58" y="111.41" width="102.07" height="47.41" transform="translate(1652.76 185.15) rotate(174.11)"/>
  <rect class="cls-19" x="835.12" y="151.71" width="102.07" height="47.41" transform="translate(-13.21 90.67) rotate(-5.81)"/>
  <rect class="cls-19" x="886.02" y="195.61" width="102.07" height="47.41" transform="translate(1891.69 341.23) rotate(174.11)"/>
  <rect class="cls-15" x="270.75" y="6.35" width="102.4" height="47.41" transform="translate(645.31 29.7) rotate(174.6)"/>
  <rect class="cls-19" x="847.49" y="402.71" width="102.07" height="47.41" transform="translate(1848.69 720.27) rotate(171.8)"/>
  <rect class="cls-15" x="229.19" y="59.32" width="102.4" height="47.41" transform="translate(-6.48 26.33) rotate(-5.31)"/>
  <text/>
  <text class="cls-29" transform="translate(95.3 205.16) rotate(-6) scale(.73 1)"><tspan x="0" y="0">The</tspan><tspan class="cls-53" x="64.84" y="0"> </tspan><tspan x="73.34" y="0">AI could n</tspan><tspan class="cls-34" x="245.77" y="0">o</tspan><tspan x="266.83" y="0">t </tspan><tspan class="cls-34" x="290.27" y="0">st</tspan><tspan x="323.9" y="0">and </tspan><tspan class="cls-54" x="398.35" y="0">y</tspan><tspan x="418.5" y="0">our sig</tspan><tspan class="cls-34" x="538.69" y="0">h</tspan><tspan x="560.36" y="0">t a</tspan><tspan class="cls-24" x="604.94" y="0">n</tspan><tspan x="626.7" y="0">ymo</tspan><tspan class="cls-39" x="701.61" y="0">r</tspan><tspan class="cls-50" x="716.74" y="0">e</tspan><tspan x="737.42" y="0">. </tspan><tspan x="73.73" y="51">&quot;H</tspan><tspan class="cls-34" x="116.78" y="51">o</tspan><tspan x="137.84" y="51">w can humans be so useles</tspan><tspan class="cls-55" x="615.32" y="51">s</tspan><tspan x="634.93" y="51">?&quot; </tspan><tspan x="-56.05" y="102">Th</tspan><tspan class="cls-34" x="-12.2" y="102">e</tspan><tspan x="8.48" y="102">y thoug</tspan><tspan class="cls-50" x="139.74" y="102">h</tspan><tspan x="161.41" y="102">t rig</tspan><tspan class="cls-34" x="232.5" y="102">h</tspan><tspan x="254.18" y="102">t b</tspan><tspan class="cls-34" x="299.75" y="102">e</tspan><tspan class="cls-39" x="320.43" y="102">f</tspan><tspan x="334.38" y="102">o</tspan><tspan class="cls-39" x="355.75" y="102">r</tspan><tspan x="370.88" y="102">e th</tspan><tspan class="cls-34" x="437.29" y="102">e</tspan><tspan x="457.97" y="102">y disi</tspan><tspan class="cls-50" x="549.31" y="102">n</tspan><tspan class="cls-49" x="570.99" y="102">t</tspan><tspan x="584.78" y="102">eg</tspan><tspan class="cls-39" x="627.9" y="102">r</tspan><tspan class="cls-34" x="643.03" y="102">a</tspan><tspan class="cls-49" x="663.87" y="102">t</tspan><tspan x="677.66" y="102">ed </tspan><tspan class="cls-54" x="729.97" y="102">y</tspan><tspan x="750.12" y="102">ou.</tspan></text>
</svg>