<?xml version="1.0" encoding="UTF-8"?>
<svg id="Layer_2" data-name="Layer 2" xmlns="http://www.w3.org/2000/svg" xmlns:xlink="http://www.w3.org/1999/xlink" viewBox="0 0 1921.92 1084.81">
  <defs>
    <style>
      .cls-1 {
        fill: #1c9aaa;
      }

      .cls-2 {
        fill: #281712;
      }

      .cls-3 {
        letter-spacing: -.08em;
      }

      .cls-4 {
        stroke: #0f131b;
        stroke-width: 9px;
      }

      .cls-4, .cls-5, .cls-6, .cls-7, .cls-8, .cls-9 {
        fill: none;
      }

      .cls-4, .cls-5, .cls-6, .cls-7, .cls-9 {
        stroke-miterlimit: 10;
      }

      .cls-10 {
        fill: #f79557;
      }

      .cls-11 {
        fill: #2a1018;
      }

      .cls-12 {
        fill: #0d1728;
      }

      .cls-13 {
        fill: #d2edf2;
      }

      .cls-5 {
        stroke: #fff;
        stroke-width: 3.72px;
      }

      .cls-6 {
        stroke-width: 3.01px;
      }

      .cls-6, .cls-9 {
        stroke: #1c2c45;
      }

      .cls-14 {
        letter-spacing: -.01em;
      }

      .cls-15 {
        letter-spacing: 0em;
      }

      .cls-16 {
        fill: #48bde8;
      }

      .cls-17 {
        fill: #5e2c1e;
      }

      .cls-18 {
        fill: #1d6790;
        isolation: isolate;
        opacity: .48;
      }

      .cls-19 {
        fill: #461323;
      }

      .cls-20 {
        fill: #ad89a9;
      }

      .cls-21 {
        fill: #286f75;
      }

      .cls-22 {
        clip-path: url(#clippath-1);
      }

      .cls-23 {
        fill: #d7abd0;
      }

      .cls-24 {
        fill: #1c4e4f;
      }

      .cls-25 {
        letter-spacing: 0em;
      }

      .cls-26 {
        letter-spacing: -.02em;
      }

      .cls-27 {
        fill: #c6e1e5;
      }

      .cls-28 {
        fill: #ef477c;
      }

      .cls-29 {
        fill: #f06842;
      }

      .cls-30 {
        fill: #47281c;
      }

      .cls-31 {
        clip-path: url(#clippath);
      }

      .cls-7 {
        stroke: #1d9aaa;
        stroke-width: 3.55px;
      }

      .cls-32 {
        fill: #b1e1ed;
      }

      .cls-33 {
        font-family: Industry-Demi, Industry;
        font-size: 44.63px;
        font-weight: 300;
      }

      .cls-33, .cls-34 {
        fill: #f79456;
      }

      .cls-35 {
        fill: #ee2e62;
      }

      .cls-36 {
        fill: #1ba5c9;
      }

      .cls-37 {
        fill: #7d3b24;
      }

      .cls-9 {
        stroke-width: 3px;
      }

      .cls-38 {
        fill: #288289;
      }

      .cls-39 {
        fill: #2c6977;
      }

      .cls-40 {
        fill: #3e595a;
      }

      .cls-41 {
        fill: #11151c;
      }

      .cls-42 {
        fill: #531326;
      }

      .cls-43 {
        fill: #ee2f63;
      }

      .cls-44 {
        fill: #5d3089;
      }
    </style>
    <clipPath id="clippath">
      <rect class="cls-8" x="1315.07" y="558.78" width="146.58" height="183.22"/>
    </clipPath>
    <clipPath id="clippath-1">
      <rect class="cls-8" x="1315.07" y="558.78" width="146.58" height="183.22"/>
    </clipPath>
  </defs>
  <rect class="cls-12" x="1.91" width="1919.18" height="1082.07"/>
  <path class="cls-43" d="m99.89,315.9l-.45-177.03c-.04-13.98,11.37-25.3,25.35-25.15l674.21,6.96c13.83.14,24.94,11.45,24.83,25.29l-1.34,170.37c-.11,13.78-11.32,24.9-25.1,24.89l-672.42-.3c-13.83,0-25.04-11.2-25.08-25.03Z"/>
  <rect class="cls-41" x="32.88" y="784.81" width="1312.33" height="298.63"/>
  <path class="cls-34" d="m223.67,222.34l.18-18.61-68.18-.67-.55,56.23,68.18.67.13-12.77,23.04-22.59-.58,58.4-113.82-1.12,1-101.86,113.82,1.12-.18,18.61-23.04,22.59Z"/>
  <path class="cls-34" d="m347.81,182.44l22.68.22-.47,48.07-13.91,14.31-31.46-.31-.38,38.75-22.68-.22.38-38.75-31.32-.31-13.76-14.58.47-48.07,22.68.22-.37,37.27,2,2.59,63.86.63,1.92-2.55.37-37.27Z"/>
  <path class="cls-34" d="m499.44,184.69l-.42,42.43,4.26.04-.56,57.06-111.46-.83.98-99.75,107.2,1.06Zm-85.27,41.59l62.51.62.2-20.08-62.51-.62-.2,20.08Zm66.55,23l-66.77-.66-.12,12.63,66.77.66.12-12.63Z"/>
  <path class="cls-34" d="m547.65,284.93l-22.34-.22.98-99.75,111.46,1.1-.98,99.75-22.34-.22.34-34.98-66.77-.66-.34,34.98Zm.57-57.32l66.77.66.2-20.08-66.77-.66-.2,20.08Z"/>
  <path class="cls-34" d="m777.19,251.14l7.76,36.12-22.48-.22-7.76-36.12-60.12-.59-.36,36.04-22.21-.22.98-99.75,111.46,1.1-.63,63.71-6.65-.07Zm-15.29-41.52l-66.77-.66-.19,19.02,66.77.66.19-19.02Z"/>
  <g>
    <polyline class="cls-5" points="141.78 270.35 142.54 190.43 141.78 270.35 235.81 271.77"/>
    <line class="cls-5" x1="231.55" y1="193.14" x2="142.54" y2="190.43"/>
    <line class="cls-5" x1="233.49" y1="204.02" x2="231.55" y2="193.14"/>
    <line class="cls-5" x1="268.22" y1="190.56" x2="268.53" y2="220.1"/>
    <line class="cls-5" x1="278.91" y1="233.73" x2="268.53" y2="220.1"/>
    <line class="cls-5" x1="350.72" y1="234.65" x2="278.91" y2="233.73"/>
    <line class="cls-5" x1="359.4" y1="226.3" x2="350.72" y2="234.65"/>
    <line class="cls-5" x1="358.61" y1="192.39" x2="359.89" y2="224.03"/>
    <line class="cls-5" x1="312.26" y1="234.48" x2="311.67" y2="275.94"/>
    <line class="cls-5" x1="401.04" y1="195.08" x2="400.84" y2="273.46"/>
    <line class="cls-5" x1="491.88" y1="274.47" x2="400.84" y2="273.46"/>
    <line class="cls-5" x1="492.22" y1="237.47" x2="491.88" y2="274.47"/>
    <line class="cls-5" x1="400.54" y1="237.27" x2="492.22" y2="237.47"/>
    <line class="cls-5" x1="487.69" y1="196.58" x2="487.6" y2="235.77"/>
    <line class="cls-5" x1="401.04" y1="195.08" x2="487.69" y2="196.58"/>
    <line class="cls-5" x1="534.92" y1="195.79" x2="534.48" y2="278.63"/>
    <line class="cls-5" x1="626.18" y1="238.91" x2="535.14" y2="237.9"/>
    <line class="cls-5" x1="627.41" y1="196.64" x2="626.81" y2="278.02"/>
    <line class="cls-5" x1="534.92" y1="195.79" x2="627.41" y2="196.64"/>
    <line class="cls-5" x1="682.91" y1="197.15" x2="683.69" y2="277.64"/>
    <line class="cls-5" x1="773.21" y1="198.24" x2="682.91" y2="197.15"/>
    <line class="cls-5" x1="683.87" y1="239.18" x2="773.52" y2="241.08"/>
    <line class="cls-5" x1="771.1" y1="199.21" x2="773.52" y2="241.08"/>
    <line class="cls-5" x1="760.95" y1="240.99" x2="771.15" y2="279.78"/>
    <line class="cls-5" x1="235.17" y1="245.97" x2="235.81" y2="271.77"/>
  </g>
  <rect class="cls-43" x="107.13" y="367.53" width="689.56" height="88.27" rx="25.08" ry="25.08" transform="translate(-.52 .57) rotate(-.07)"/>
  <text class="cls-33" transform="translate(132.15 425.39) scale(1.24 1)"><tspan x="0" y="0">COC</tspan><tspan class="cls-26" x="85.34" y="0">K</tspan><tspan class="cls-3" x="113.68" y="0">T</tspan><tspan x="135.38" y="0">AI</tspan><tspan class="cls-25" x="177.91" y="0">L</tspan><tspan x="202.24" y="0">S </tspan><tspan class="cls-15" x="240.85" y="0">F</tspan><tspan x="266.33" y="0">OR ROB</tspan><tspan class="cls-14" x="422.95" y="0">O</tspan><tspan class="cls-25" x="451.88" y="0">T</tspan><tspan x="476.92" y="0">S </tspan></text>
  <rect class="cls-43" x="116.52" y="333.72" width="70.21" height="20.21" transform="translate(497.67 197.35) rotate(90.85)"/>
  <rect class="cls-43" x="727.89" y="336.18" width="70.21" height="20.21" transform="translate(1120.62 -411.45) rotate(90.85)"/>
  <rect class="cls-9" x="1079.61" y="65.15" width="102.07" height="47.41" transform="translate(.15 -1.93) rotate(.1)"/>
  <rect class="cls-9" x="1180.29" y="64.46" width="102.07" height="47.41" transform="translate(.15 -2.1) rotate(.1)"/>
  <rect class="cls-6" x="1128.4" y="17.48" width="102.78" height="47.41" transform="translate(.07 -2.01) rotate(.1)"/>
  <rect class="cls-9" x="1390.41" y="611.66" width="102.07" height="47.41" transform="translate(1.09 -2.46) rotate(.1)"/>
  <rect class="cls-9" x="1491.09" y="610.96" width="102.07" height="47.41" transform="translate(1.09 -2.63) rotate(.1)"/>
  <rect class="cls-6" x="1439.2" y="563.98" width="102.78" height="47.41" transform="translate(1.01 -2.54) rotate(.1)"/>
  <rect class="cls-9" x="424.74" y="544.41" width="102.07" height="47.41" transform="translate(949.78 1137.7) rotate(-179.82)"/>
  <rect class="cls-9" x="324.05" y="544.96" width="102.07" height="47.41" transform="translate(748.4 1138.49) rotate(-179.82)"/>
  <rect class="cls-6" x="376.55" y="592.03" width="102.78" height="47.41" transform="translate(853.95 1232.8) rotate(-179.82)"/>
  <rect class="cls-9" x="376" y="688.89" width="102.07" height="47.41"/>
  <rect class="cls-9" x="476.69" y="688.08" width="102.07" height="47.41"/>
  <rect class="cls-6" x="424.73" y="641.16" width="102.78" height="47.41"/>
  <rect class="cls-9" x="1704.88" y="192.36" width="102.07" height="47.41" transform="translate(3511.15 437.58) rotate(-179.82)"/>
  <rect class="cls-9" x="1604.19" y="192.91" width="102.07" height="47.41" transform="translate(3309.77 438.37) rotate(-179.82)"/>
  <rect class="cls-6" x="1656.69" y="239.98" width="102.78" height="47.41" transform="translate(3415.32 532.68) rotate(-179.82)"/>
  <rect class="cls-9" x="1656.14" y="336.84" width="102.07" height="47.41"/>
  <rect class="cls-9" x="1756.83" y="336.02" width="102.07" height="47.41"/>
  <rect class="cls-6" x="1704.87" y="289.1" width="102.78" height="47.41"/>
  <rect class="cls-9" x="1453.42" y="144.53" width="102.07" height="47.41" transform="translate(.29 -2.57) rotate(.1)"/>
  <rect class="cls-9" x="1554.11" y="143.84" width="102.07" height="47.41" transform="translate(.29 -2.74) rotate(.1)"/>
  <rect class="cls-9" x="1393.91" y="284.61" width="102.07" height="47.41" transform="translate(2889.41 618.9) rotate(-179.91)"/>
  <rect class="cls-6" x="1502.21" y="96.86" width="102.78" height="47.41" transform="translate(.21 -2.65) rotate(.1)"/>
  <rect class="cls-9" x="1293.22" y="285.32" width="102.07" height="47.41" transform="translate(2688.03 620.15) rotate(-179.91)"/>
  <rect class="cls-6" x="1344.42" y="332.29" width="102.78" height="47.41" transform="translate(2791.07 714.19) rotate(-179.91)"/>
  <rect class="cls-9" x="859.54" y="560.06" width="102.07" height="47.41" transform="translate(1 -1.55) rotate(.1)"/>
  <rect class="cls-9" x="960.22" y="559.37" width="102.07" height="47.41" transform="translate(1 -1.73) rotate(.1)"/>
  <rect class="cls-6" x="908.33" y="512.39" width="102.78" height="47.41" transform="translate(.92 -1.64) rotate(.1)"/>
  <rect class="cls-9" x="952.7" y="654.08" width="102.07" height="47.41" transform="translate(1.16 -1.71) rotate(.1)"/>
  <rect class="cls-9" x="1053.39" y="653.39" width="102.07" height="47.41" transform="translate(1.16 -1.88) rotate(.1)"/>
  <rect class="cls-6" x="1001.49" y="606.4" width="102.78" height="47.41" transform="translate(1.08 -1.8) rotate(.1)"/>
  <rect class="cls-9" x="1063.65" y="558.69" width="102.07" height="47.41" transform="translate(1 -1.9) rotate(.1)"/>
  <rect class="cls-9" x="1164.33" y="558" width="102.07" height="47.41" transform="translate(.99 -2.07) rotate(.1)"/>
  <rect class="cls-6" x="1112.43" y="511.02" width="102.78" height="47.41" transform="translate(.91 -1.99) rotate(.1)"/>
  <line class="cls-4" x1="0" y1="790.29" x2="1920.55" y2="787.55"/>
  <path class="cls-42" d="m1920.55,569.57c-213.11-25.81-544.02-55.51-840.7-31.34-91.63,7.46-212.7,22.73-258.37,106.85-24.01,44.23-26.87,106.94,2.73,143.84,53.93,67.21,198.28,27.27,272.04-6.85,65.04-30.09,62.28-49.67,118.93-82.19,131.55-75.52,290.26-52.49,444.28-30.14,147.68,21.43,224.79,54.79,259.73,13.7.47-.55.91-1.13,1.35-1.7v-112.17Z"/>
  <path class="cls-19" d="m910.97,738.23c0-43.16,172.17-78.08,384.93-78.08"/>
  <polygon class="cls-37" points="790.33 681.7 809.6 673.48 973.98 740.6 959.18 740.6 790.33 681.7"/>
  <path class="cls-11" d="m966.58,816.95l181.37-53.42,27.4-49.32c-30.17,3.26-64.34,8.74-101.37,17.81-38.99,9.55-73.38,21.18-102.74,32.88-1.55,17.35-3.11,34.7-4.66,52.05Z"/>
  <path class="cls-19" d="m1541.97,673.32c.59-1.96-7.23-4.09-14.22-10.07-28.33-24.23-13.49-86.46-14.22-86.52-.67-.05-12.56,51.71-13.63,72.89-.06,1.21-.19,4.41-2.37,7.11-5.99,7.44-21.16,3.22-21.33,4.15-.35,1.9,64.08,18.06,65.78,12.44Z"/>
  <path class="cls-30" d="m0,1082.07l150.68,2.74c89.51-122.85,84.53-271.04,8.22-346.58C103.1,682.98,26.81,682.76,0,683.44"/>
  <polygon class="cls-2" points="784.94 745.08 790.42 894.85 972.61 969.74 1060.28 915.66 1112.34 782.53 1097.27 778.36 952.06 821.35 784.94 745.08"/>
  <path class="cls-19" d="m1733.76,681.61c.59-1.96-7.23-4.09-14.22-10.07-28.33-24.23-13.49-86.46-14.22-86.52-.67-.05-12.56,51.71-13.63,72.89-.06,1.21-.19,4.41-2.37,7.11-5.99,7.44-21.16,3.22-21.33,4.15-.35,1.9,64.08,18.06,65.78,12.44Z"/>
  <path class="cls-30" d="m1921.92,648.96c-242.57-7.9-432.4-1.53-551.48-1.37-30.19.04-103,4.92-177.85,42.33-59.16,29.57-87.84,69.38-93.75,77.84-30.35,43.46-36.71,85.67-39.98,109.25-4.78,34.45,2.9,88.25,44.04,132.45,49.86,53.57,131.66,63.89,148.45,72.6l669.73,2.53.84-435.64Z"/>
  <g class="cls-31">
    <g class="cls-22">
      <path class="cls-40" d="m1358.18,639.39c0,1.42-1.05,2.58-2.35,2.58s-2.35-1.15-2.35-2.58,1.05-2.58,2.35-2.58,2.35,1.15,2.35,2.58"/>
      <path class="cls-40" d="m1344.06,730.42c0,1.42-1.05,2.58-2.35,2.58s-2.35-1.15-2.35-2.58,1.05-2.58,2.35-2.58,2.35,1.15,2.35,2.58"/>
      <path class="cls-23" d="m1321.66,596.09c-2.03-3.04-4.81-9.41-2.75-12.1,1.83-2.39,6.26-.3,8.03-2.91,1.91-2.83-2.22-6.82-.42-10.31,1.78-3.46,8.4-4.53,10.99-2.02,1.72,1.67.93,4.24,2.75,5.15,1.57.79,4.11-.14,4.86-1.79.76-1.67-.86-2.86-.42-5.15.47-2.46,3.07-4.9,5.28-4.7,3.22.28,4.44,6,6.34,5.6,1.64-.35,1.4-4.79,3.17-5.15,1.36-.28,1.92,2.29,5.07,3.81,2.4,1.16,3.15.18,4.65,1.34,2.32,1.8,1.2,4.65,3.38,6.27,1.68,1.24,4.52,1.17,5.71-.22,1.41-1.66-.59-3.92.63-7.17.78-2.07,2.84-4.45,5.49-4.48,2.34-.03,4.49,1.77,5.28,3.81,1.11,2.88-.86,5.34.21,6.27,1.01.89,4.04-.21,4.86-2.24.89-2.21-1.4-4.15-.42-5.82.78-1.33,3.19-1.76,4.65-.9,1.35.8,1.11,2.24,2.75,4.93,0,0,1.09,1.79,2.75,3.36,3.72,3.52,6.65,1.96,8.03,4.26,1.95,3.24-2.65,8.39-.63,10.98.74.95,1.67.15,3.38,1.12,2.5,1.42,4.23,5.02,3.38,6.94-1.02,2.3-5.64,2.06-7.18,2.02-24.02-.75-76.25,19.4-89.81-.9"/>
      <path class="cls-20" d="m1321.68,595.83c-2.34-2.16-3.62-5.47-2.83-6.32,1.06-1.14,4.85,3.28,10.67,2.61,2.52-.29,3.8-1.34,6.75-.87.3.05.88.15,4.14,1.31,3.62,1.28,5.43,1.92,5.45,2.18.1,1.87-16.73,7.96-24.18,1.09"/>
      <path class="cls-21" d="m1412.95,736.36h-87.36c-2.54,0-4.6-2.06-4.6-4.6v-132.16c0-2.54,2.06-4.6,4.6-4.6h87.36c2.54,0,4.6,2.06,4.6,4.6v132.16c0,2.54-2.06,4.6-4.6,4.6"/>
      <line class="cls-1" x1="1348.54" y1="594.55" x2="1347.6" y2="736.11"/>
      <line class="cls-7" x1="1348.54" y1="594.55" x2="1347.6" y2="736.11"/>
      <path class="cls-1" d="m1418.97,633.53h-98.29c-2.67,0-4.84-2.17-4.84-4.84v-3.98c0-2.67,2.17-4.84,4.84-4.84h98.29c2.67,0,4.84,2.17,4.84,4.84v3.98c0,2.67-2.17,4.84-4.84,4.84"/>
      <path class="cls-1" d="m1433.76,607.02l-13.37,10.5c-1.85,1.45-2.92,3.67-2.92,6.02v25.6c0,2.35,1.08,4.57,2.92,6.02l13.37,10.5c2.78,2.18,6.68,2.18,9.46,0l13.37-10.5c1.85-1.45,2.92-3.67,2.92-6.02v-25.6c0-2.35-1.08-4.57-2.92-6.02l-13.37-10.5c-2.78-2.18-6.68-2.18-9.46,0m17.98,40.52l-13.25,10.42-13.25-10.42v-20.83l13.25-10.42,13.25,10.42v20.83Z"/>
      <path class="cls-1" d="m1356.38,730.42c0,1.42-1.05,2.58-2.35,2.58s-2.35-1.15-2.35-2.58,1.05-2.58,2.35-2.58,2.35,1.15,2.35,2.58"/>
      <path class="cls-1" d="m1413.29,730.42c0,1.42-1.05,2.58-2.35,2.58s-2.35-1.15-2.35-2.58,1.05-2.58,2.35-2.58,2.35,1.15,2.35,2.58"/>
      <path class="cls-1" d="m1414.63,639.39c0,1.42-1.05,2.58-2.35,2.58s-2.35-1.15-2.35-2.58,1.05-2.58,2.35-2.58,2.35,1.15,2.35,2.58"/>
      <path class="cls-1" d="m1357.28,600.86c0,1.42-1.05,2.58-2.35,2.58s-2.35-1.15-2.35-2.58,1.05-2.58,2.35-2.58,2.35,1.15,2.35,2.58"/>
      <path class="cls-1" d="m1357.28,615.79c0,1.42-1.05,2.58-2.35,2.58s-2.35-1.15-2.35-2.58,1.05-2.58,2.35-2.58,2.35,1.15,2.35,2.58"/>
      <path class="cls-1" d="m1414.18,615.79c0,1.42-1.05,2.58-2.35,2.58s-2.35-1.15-2.35-2.58,1.05-2.58,2.35-2.58,2.35,1.15,2.35,2.58"/>
      <path class="cls-40" d="m1414.41,600.86c0,1.42-1.05,2.58-2.35,2.58s-2.35-1.15-2.35-2.58,1.05-2.58,2.35-2.58,2.35,1.15,2.35,2.58"/>
      <path class="cls-1" d="m1342.94,639.39c0,1.42-1.05,2.58-2.35,2.58s-2.35-1.15-2.35-2.58,1.05-2.58,2.35-2.58,2.35,1.15,2.35,2.58"/>
      <path class="cls-1" d="m1343.84,615.79c0,1.42-1.05,2.58-2.35,2.58s-2.35-1.15-2.35-2.58,1.05-2.58,2.35-2.58,2.35,1.15,2.35,2.58"/>
      <path class="cls-1" d="m1344.06,600.86c0,1.42-1.05,2.58-2.35,2.58s-2.35-1.15-2.35-2.58,1.05-2.58,2.35-2.58,2.35,1.15,2.35,2.58"/>
      <path class="cls-23" d="m1365.9,591.91c-.57.74-2.12,2.73-1.52,4.57.53,1.65,2.67,2.86,4.57,2.83,2.27-.04,3.14-1.82,4.36-1.31.93.39.9,1.64,1.74,4.57.87,3.06,1.31,4.59,2.18,5.45,2.16,2.14,7.05,2.35,9.58.22,1.68-1.41,1.71-3.33,3.7-3.92,1.42-.42,2.72.16,2.83.22,1.83.85,1.5,2.53,3.05,3.49,1.79,1.11,4.92.54,6.32-1.09,1.02-1.19.49-2.2,1.96-4.14.65-.86,1.29-1.71,2.18-1.74,1.36-.06,1.6,1.84,3.49,2.61,2.17.89,4.6-.51,5.23-.87.4-.23,2.72-1.62,3.49-4.36,0,0,.5-1.79,0-3.7-1.91-7.33-46.28-11.66-53.15-2.83"/>
      <path class="cls-23" d="m1356.56,601.58c2.15,1.22,6.78-.38,9.27-3.54,3.02-3.84,1.32-8.02,1.02-8.75-1.32-3.25-4.41-4.25-6.56-4.96-2.36-.77-4.55-1.48-7.21-.32-3.76,1.65-5.34,5.69-5.63,6.42-1.23,3.13-1.22,7.18.56,7.65,1.7.44,3.71-2.74,5.6-2.33,2.07.46.64,4.51,2.95,5.82"/>
      <path class="cls-23" d="m1355.66,599.82c-.22,2,.54,5.07,2.06,11.19.24.98.59,2.32,1.37,2.46,1.02.19,2.15-1.76,2.29-2.01.49-.87.7-1.71.92-4.03.34-3.78,0-3.98.46-5.37.71-2.18,1.73-2.23,1.83-3.58.2-2.76-3.75-6.35-6.18-5.6-2.06.64-2.45,4.23-2.75,6.94"/>
      <path class="cls-23" d="m1397.59,620.53c.9.92,2.84,1.11,3.82.26,1.24-1.07.09-3.01.26-7.5.06-1.49.17-4.53,1.53-7.76,1.38-3.27,2.66-3.49,2.55-5.17-.19-2.85-4.07-5.21-7.39-5.69-.69-.1-4.67-.68-5.86,1.29-.27.45-.56,1.3,2.81,9.83.76,1.94,1.25,3.09,1.53,4.91.2,1.32.22,2.51.26,4.65.05,3.7-.17,4.48.51,5.17"/>
      <path class="cls-20" d="m1325.6,581.89c.02,1.93,8.45,4.9,10.24,2.61,1.59-2.04-1.97-8.47-6.54-10.02-.26-.09-2.22-.75-2.83,0-.79.97,1.55,3.23.65,5.45-.5,1.23-1.53,1.29-1.52,1.96"/>
      <path class="cls-20" d="m1345.42,585.15c1.22-2.8,5.59-4.47,8.06-2.83,1.88,1.26,2.31,4.22,1.74,4.57-.63.38-2.03-2.63-4.36-2.61-2.79.02-4.47,4.37-5.45,3.92-.55-.25-.52-1.85,0-3.05"/>
      <path class="cls-20" d="m1380.49,587.11c-.57.6-10.6-7.71-9.58-9.37.43-.69,3.3-1.04,3.74-1.07.02,0,.05,0,.05,0,0,0,.69-.04,1.33,0,.66.04,1.06.06,1.42.21,1.07.46,1.74,2.11,1.31,2.61-.56.66-2.77-.98-3.27-.44-.91.99,5.49,7.56,5.01,8.06"/>
      <path class="cls-20" d="m1391.1,595.98c.87,2.6,3.16,4.5,3.81,3.99.7-.55-.16-4.3-1.98-6.9-.13-.18-.45-.63-.96-1.17-2.36-2.5-5.15-3.16-5.28-2.82-.14.36,2.93,1.41,3.96,4.72.31.98.12,1.17.46,2.18"/>
      <path class="cls-20" d="m1396.18,580.36c.01,1.94,7.4,4.42,8.71,2.61.6-.83-.47-2.73-2.61-6.54-.76-1.35-1.41-2.38-4.4-6.82-2.76-4.1-3.27-4.81-3.44-4.72-.36.18.74,4.06,2.61,7.84,1.1,2.21,1.97,3.38,1.52,4.79-.54,1.71-2.4,1.86-2.4,2.83"/>
      <path class="cls-20" d="m1353.4,595.74c1.59-2.8,2.38-2.87,2.69-2.8,1.2.28,1.43,4.32,1.52,5.84.07,1.27-.02,1.58.12,3.15.16,1.83.31,1.82.47,3.62.18,2.1,0,2.44.35,3.62.16.52.45,1.32.7,1.99.21.58.58,1.52.58,1.52-.2.62-.49,1.29-.82,1.29-.47-.01-.76-1.45-1.17-3.04-.35-1.37-.9-3.25-1.75-5.49"/>
      <path class="cls-20" d="m1346.44,563.84c1.38-.09,1.59,3.04,3.97,3.86,1.62.55,2.68-.49,3.39.23.83.85.39,3.32-1.05,4.09-.92.49-1.98.13-2.69-.12-1.59-.55-1.5-1.32-3.62-2.45-.98-.52-1.43-.59-1.75-1.17-.5-.89-.13-1.96,0-2.34.06-.16.7-2.04,1.75-2.1"/>
      <path class="cls-20" d="m1359.29,577.4c.37.12,3.73-4.73,1.75-6.66-1.58-1.55-5.29.02-5.26.35.02.24,2.13-.34,3.27.82,1.63,1.64-.08,5.39.23,5.49"/>
      <path class="cls-20" d="m1363.26,589.31c1.29-.17,1.69,4.02,4.44,4.91,2.1.67,3.78-1.16,4.79-.23.42.38.45,1.04.47,1.4.08,1.15-.53,1.98-.71,2.22-1.26,1.71-3.56,1.64-3.74,1.64-1.29-.06-2.18-.66-2.92-1.17-.67-.46-3.96-2.87-3.62-6.19.09-.92.52-2.47,1.29-2.57"/>
      <path class="cls-20" d="m1377.63,600.64c3.03.41,5.88.22,5.81,2.8-.08,3.27-3.68,5.7-5.61,5.09-1.13-.36-1.64-1.76-2.5-4.1-.74-2.02-1.03-3.8-1.15-5.06"/>
      <path class="cls-24" d="m1315.71,628.33c-.04.2-.45,2.4,1.17,4.09,1.75,1.82,4.19,1.31,4.32,1.29,32.09-.08,64.18-.16,96.26-.23l.23-5.49-101.99.35Z"/>
      <polygon class="cls-24" points="1417.7 627.98 1419.05 628.28 1418.83 649.83 1417.19 649.94 1417.7 627.98"/>
      <path class="cls-24" d="m1418.17,647.72l20.09,15.07,21.26-13.67c0,.76-.09,2.31-1.05,3.85-.42.67-.88,1.16-1.29,1.52-4.87,3.89-9.74,7.79-14.6,11.68-.61.38-2.03,1.13-3.97,1.17-2.24.04-3.85-.9-4.44-1.29-4.95-3.93-9.89-7.87-14.84-11.8-.36-.37-.79-.87-1.17-1.52-.64-1.09-.88-2.12-.98-2.8.33-.74.65-1.48.98-2.22"/>
      <path class="cls-24" d="m1425.02,626.51l-.43-2.29,13.32-10.25,14.54,10.78-.7,2.02-13.49-9.37-13.17,9.16s-.07,0-.07-.03"/>
    </g>
  </g>
  <path class="cls-18" d="m1524.84,684.41l14.33,120.95,4.26-.03,6.14-.04,55.44-.33s18.77-117.56,19.11-118.34c.11-.26-25.52-11.83-51.35-11.94-26.17-.11-47.94,9.73-47.94,9.73Z"/>
  <polyline class="cls-29" points="1542.38 798.71 1599.54 798.94 1617.43 701.34 1531.15 699.95"/>
  <path class="cls-10" d="m1531.19,699.34c-.87-6.64,4.54-15.36,9.95-16.78,8.18-2.14,12.62,13.39,24.61,13.33.15,0,.27-.01.46-.03,9.45-.61,11.11-4.59,17.32-4.57,2.91.01,3.96.9,7.5.39,1.86-.27,4.38-.66,4.95-2.33.72-2.14-2.32-4.76-1.7-5.64.51-.73,3.1.38,4.98,1.83,1.65,1.27,1.74,2.03,3.89,3.81.25.2.92.75,3.07,2.14,3.15,2.03,3.85,2.25,5.46,3.3,2.99,1.97,5.74,3.78,5.77,5.77.04,2.88-5.85,4.72-7.02,5.67-18.2,14.94-76.63,12.88-79.23-6.9h0Z"/>
  <path class="cls-10" d="m1558.36,685.6c.24,4.4,4.13,6.9,5.03,7.44,5.3,3.15,11.69.33,11.77.78.13.7-15.54,6.11-18.49,11.71-.02.04-.04.17-.16.27-1.52,1.38-13.18.75-16.44-3.72-1.54-2.1,0-3.39-1.78-9.13-.84-2.71-1.31-2.84-1.41-4.39-.12-1.88,1.48-6.1,3.67-8.76,3.1-3.77,10.22-8,19.94-10.85,4.67-.86,8.9.66,10.92,4.08,1.9,3.23,1.72,7.99.51,8.55-1.4.65-3.04-4.85-6.48-5.05-3.24-.19-7.34,4.37-7.08,9.07Z"/>
  <rect class="cls-16" x="1551.26" y="695.44" width="14.54" height="14.27" rx="3.58" ry="3.58" transform="translate(-40.31 1307.83) rotate(-45)"/>
  <path class="cls-10" d="m1588.01,671.26c-.44,1.41,2.62,3.04,2.37,5.64-.17,1.77-1.75,2.59-1.58,2.92.25.46,4.05-.19,4.74-3.69.42-2.11-.43-4.56-2.05-5.44-1.32-.72-3.17-.4-3.48.58h0Z"/>
  <rect class="cls-16" x="1569.01" y="737.03" width="14.54" height="14.27" rx="3.58" ry="3.58" transform="translate(-64.52 1332.56) rotate(-45)"/>
  <rect class="cls-16" x="1555.02" y="765.33" width="11.96" height="17.61" rx="3.61" ry="3.61" transform="translate(-136.91 382.83) rotate(-13.4)"/>
  <rect class="cls-16" x="1592.19" y="718.21" width="9.92" height="10.87" rx="2.72" ry="2.72" transform="translate(-43.9 1341.31) rotate(-45)"/>
  <path class="cls-18" d="m1526.75,684.41l14.33,120.95,65.85-.39s18.77-117.59,19.11-118.34c.06-.13-5.05,9.24-24.64,13.97-18.46,4.45-43.14,1.52-44.21,1.32-26.58-4.83-30.44-17.51-30.44-17.51Z"/>
  <g>
    <rect class="cls-28" x="288.32" y="661.97" width="324.44" height="90" rx="34.25" ry="34.25"/>
    <rect class="cls-35" x="288.32" y="670.23" width="324.44" height="90" rx="34.25" ry="34.25"/>
  </g>
  <g>
    <path class="cls-34" d="m342.53,714.44v-6.34h-23.25v19.17h23.25v-4.35l7.78-7.78v19.91h-38.81v-34.73h38.81v6.34l-7.78,7.78Z"/>
    <path class="cls-34" d="m450.57,700.32h38.81v26.35l-8.52,8.38h-30.29v-34.73Zm7.78,26.95h18.8l4.45-4.31v-14.87h-23.25v19.17Z"/>
    <path class="cls-34" d="m413.42,708.1v6.62h28.67l-7.73,7.78h-20.93v4.77h31.03v7.78h-38.81v-34.73h38.81v7.78h-31.03Z"/>
    <path class="cls-34" d="m504.51,735.05h-7.46v-34.73h7.46v34.73Z"/>
    <path class="cls-34" d="m394.9,722.07l2.82,12.55h-7.83l-2.82-12.55h-20.93v12.55h-7.73v-34.73h38.81v22.18h-2.32Zm-5.46-14.4h-23.25v6.62h23.25v-6.62Z"/>
    <path class="cls-34" d="m558.99,699.88h38.81v5.74l-7.78,7.78v-5.74h-23.25v5.88h31.03v21.07h-38.81v-5.56l7.78-7.73v5.51h23.25v-5.51h-31.03v-21.44Z"/>
    <path class="cls-34" d="m512.05,699.88h38.81v7.78h-15.51v26.95h-7.78v-26.95h-15.51v-7.78Z"/>
  </g>
  <g>
    <rect class="cls-28" x="1374.53" y="858.28" width="324.44" height="90" rx="34.25" ry="34.25"/>
    <rect class="cls-35" x="1374.53" y="869.28" width="324.44" height="90" rx="34.25" ry="34.25"/>
  </g>
  <g>
    <path class="cls-34" d="m1547.04,930.86h-7.6v-33.94h37.92v33.94h-7.6v-11.9h-22.72v11.9Zm0-19.51h22.72v-6.83h-22.72v6.83Z"/>
    <path class="cls-34" d="m1503.05,923.26h30.32v7.6h-37.92v-33.94h7.6v26.34Z"/>
    <path class="cls-34" d="m1451.8,896.7h37.92v21.68h-30.46v12.26h-7.47v-33.94Zm7.6,14.07h22.72v-6.47h-22.72v6.47Z"/>
    <path class="cls-34" d="m1614.1,896.7h7.6v16.11l-4.62,4.84h-10.54v12.99h-7.6v-12.99h-10.5l-4.66-4.84v-16.11h7.6v12.49l.68.86h21.41l.63-.86v-12.49Z"/>
  </g>
  <g>
    <rect class="cls-28" x="288.32" y="800.75" width="324.44" height="90" rx="34.25" ry="34.25"/>
    <rect class="cls-35" x="288.32" y="811.75" width="324.44" height="90" rx="34.25" ry="34.25"/>
  </g>
  <g>
    <path class="cls-34" d="m478.33,873.41h-7.49v-34.89h7.49v34.89Z"/>
    <path class="cls-34" d="m413.25,874.34l-1.3-1.3-37.91.05v-34.93h39.21v36.19Zm-7.86-28.33h-23.49v19.21l22.24-.05-.6-.7v-11.07l1.86,2.05v-9.44Z"/>
    <path class="cls-34" d="m488.06,838.15h38.98v7.82h-15.58v27.07h-7.81v-27.07h-15.58v-7.82Z"/>
    <path class="cls-34" d="m453.21,838.15h7.81v34.89h-38.98v-34.89h7.81v27.07h23.35v-27.07Z"/>
  </g>
  <g>
    <rect class="cls-28" x="288.32" y="521.62" width="324.44" height="90" rx="34.25" ry="34.25"/>
    <rect class="cls-35" x="288.32" y="532.62" width="324.44" height="90" rx="34.25" ry="34.25"/>
  </g>
  <g>
    <path class="cls-34" d="m499.2,559.59h38.87v34.79h-38.87v-34.79Zm7.79,27h23.29v-19.21h-23.29v19.21Z"/>
    <path class="cls-34" d="m354.79,559.59h38.87v7.79h-15.54v27h-7.79v-27h-15.54v-7.79Z"/>
    <path class="cls-34" d="m434.03,559.59h7.79v34.79h-38.87v-34.79h7.79v27h23.29v-27Z"/>
    <path class="cls-34" d="m449.88,559.85h38.87v7.79h-15.54v27h-7.79v-27h-15.54v-7.79Z"/>
  </g>
  <polygon class="cls-2" points="949.49 825.9 784.94 750.56 790.33 680.7 960.28 742.34 949.49 825.9"/>
  <polygon class="cls-17" points="966.58 815.11 973.98 741.28 959.18 741.28 950.72 823.16 966.58 815.11"/>
  <path class="cls-19" d="m985.73,695.06c-.59-1.96,7.23-4.09,14.22-10.07,28.33-24.23,13.49-86.46,14.22-86.52.67-.05,12.56,51.71,13.63,72.89.06,1.21.19,4.41,2.37,7.11,5.99,7.44,21.16,3.22,21.33,4.15.35,1.9-64.08,18.06-65.78,12.44Z"/>
  <path class="cls-19" d="m1133.7,680.43c-.59-1.96,7.23-4.09,14.22-10.07,28.33-24.23,13.49-86.46,14.22-86.52.67-.05,12.56,51.71,13.63,72.89.06,1.21.19,4.41,2.37,7.11,5.99,7.44,21.16,3.22,21.33,4.15.35,1.9-64.08,18.06-65.78,12.44Z"/>
  <polygon class="cls-36" points="76.79 608.43 76.79 706.94 37.64 728.41 42.69 874.91 85.63 898.9 147.51 887.54 147.51 729.67 115.94 706.94 114.68 608.43 76.79 608.43"/>
  <polygon class="cls-32" points="92.57 740.94 92.29 747.32 85.63 898.9 42.69 874.91 37.64 728.41 92.57 740.94"/>
  <polygon class="cls-13" points="76.79 706.94 99.52 709.08 92.57 740.94 37.64 728.41 76.79 706.94"/>
  <polygon class="cls-36" points="85.63 898.9 147.51 887.54 147.51 729.67 92.57 740.94 85.63 898.9"/>
  <polygon class="cls-39" points="99.52 709.08 115.94 706.94 114.68 608.43 92.57 608.43 99.52 709.08"/>
  <polygon class="cls-36" points="1186.14 769.9 1200.49 823.05 1219.98 830.23 1219.98 867.15 1203.06 891.03 1234.34 904.49 1262.02 891.03 1243.56 870.22 1237.41 831.26 1256.11 821 1268.18 764.6 1227.16 755.37 1186.14 769.9"/>
  <polygon class="cls-27" points="1227.16 835.36 1227.16 777.2 1186.14 769.9 1200.49 823.05 1227.16 835.36"/>
  <polygon class="cls-38" points="1268.18 764.39 1256.11 825.25 1227.16 835.21 1227.16 777.99 1268.18 764.39"/>
  <polygon class="cls-36" points="18.28 920.22 34.64 980.77 56.83 988.94 56.83 1031 37.56 1058.21 73.19 1073.54 104.73 1058.21 83.7 1034.5 76.69 990.11 97.99 978.43 111.74 914.18 65.01 903.67 18.28 920.22"/>
  <polygon class="cls-27" points="65.01 994.78 65.01 928.53 18.28 920.22 34.64 980.77 65.01 994.78"/>
  <polygon class="cls-38" points="112.13 913.39 98.38 983.13 65.41 994.54 65.41 928.96 112.13 913.39"/>
  <polygon class="cls-36" points="1885.84 606.74 1875.62 648.48 1861.75 654.12 1861.75 683.11 1873.8 701.86 1851.52 712.43 1831.81 701.86 1844.95 685.52 1849.33 654.92 1836.02 646.87 1827.43 602.58 1856.63 595.33 1885.84 606.74"/>
  <polygon class="cls-27" points="1856.63 658.14 1856.63 612.47 1885.84 606.74 1875.62 648.48 1856.63 658.14"/>
  <polygon class="cls-38" points="1827.43 604.41 1836.02 648.7 1856.63 655.95 1856.63 614.31 1827.43 604.41"/>
  <polygon class="cls-44" points="1247.66 770.85 1227.16 766.17 1206.66 773.53 1227.16 777.23 1247.66 770.85"/>
  <polygon class="cls-44" points="1876.13 609.81 1856.27 602.9 1835.08 607.95 1855.05 613.89 1876.13 609.81"/>
  <polygon class="cls-44" points="100.1 918.14 67.4 909.93 34.69 922.86 67.4 929.35 100.1 918.14"/>
</svg>