<?xml version="1.0" encoding="UTF-8"?><svg id="Calque_1" xmlns="http://www.w3.org/2000/svg" viewBox="0 0 417 204"><defs><style>.cls-1{opacity:.72;}.cls-2{fill:#4d6587;}.cls-3{fill:#f02b61;}.cls-4{opacity:.6;}</style></defs><g class="cls-1"><rect class="cls-2" x="3" y="3" width="411" height="198" rx="35.24" ry="35.24"/><path class="cls-3" d="m378.76,6c17.78,0,32.24,14.46,32.24,32.24v127.51c0,17.78-14.46,32.24-32.24,32.24H38.24c-17.78,0-32.24-14.46-32.24-32.24V38.24C6,20.46,20.46,6,38.24,6h340.51m0-6H38.24C17.12,0,0,17.12,0,38.24v127.51c0,21.12,17.12,38.24,38.24,38.24h340.51c21.12,0,38.24-17.12,38.24-38.24V38.24c0-21.12-17.12-38.24-38.24-38.24h0Z"/></g><g class="cls-4"><rect class="cls-2" x="6.5" y="40" width="404" height="40"/></g><g class="cls-4"><rect class="cls-2" x="6.5" y="105" width="404" height="20"/></g><g class="cls-4"><rect class="cls-2" x="6.5" y="134" width="404" height="34"/></g><path class="cls-3" d="m378.76,6c17.78,0,32.24,14.46,32.24,32.24v127.51c0,17.78-14.46,32.24-32.24,32.24H38.24c-17.78,0-32.24-14.46-32.24-32.24V38.24C6,20.46,20.46,6,38.24,6h340.51m0-6H38.24C17.12,0,0,17.12,0,38.24v127.51c0,21.12,17.12,38.24,38.24,38.24h340.51c21.12,0,38.24-17.12,38.24-38.24V38.24c0-21.12-17.12-38.24-38.24-38.24h0Z"/></svg>