<?xml version="1.0" encoding="UTF-8"?><svg id="Calque_1" xmlns="http://www.w3.org/2000/svg" viewBox="0 0 417 204"><defs><style>.cls-1{fill:#97ceb3;}.cls-2{fill:#f02b61;}</style></defs><rect class="cls-1" x="5.5" y="5.5" width="406" height="193" rx="32.74" ry="32.74"/><path class="cls-2" d="m378.76,11c15.02,0,27.24,12.22,27.24,27.24v127.51c0,15.02-12.22,27.24-27.24,27.24H38.24c-15.02,0-27.24-12.22-27.24-27.24V38.24c0-15.02,12.22-27.24,27.24-27.24h340.51m0-11H38.24C17.12,0,0,17.12,0,38.24v127.51c0,21.12,17.12,38.24,38.24,38.24h340.51c21.12,0,38.24-17.12,38.24-38.24V38.24c0-21.12-17.12-38.24-38.24-38.24h0Z"/></svg>