<?xml version="1.0" encoding="UTF-8"?><svg id="Calque_1" xmlns="http://www.w3.org/2000/svg" viewBox="0 0 324.44 101"><defs><style>.cls-1{fill:#f4457b;}.cls-2{fill:#fe9553;}.cls-3{fill:#f02b61;}</style></defs><rect class="cls-1" width="324.44" height="90" rx="34.25" ry="34.25"/><rect class="cls-3" y="11" width="324.44" height="90" rx="34.25" ry="34.25"/><path class="cls-2" d="m126.46,46.47v6.58h28.49l-7.69,7.73h-20.8v4.74h30.83v7.73h-38.57v-34.52h38.57v7.73h-30.83Z"/><path class="cls-2" d="m89.69,48.22l19.01-9.48v34.52h-7.55v-22.09l-11.41,4.69-11.37-4.69v22.09h-7.64l-.05-34.52,19.01,9.48Z"/><path class="cls-2" d="m197.98,39.32h7.73v34.56h-7.73v-14.82l-23.33-8.93v23.75h-7.78l-.09-35.76,31.2,13.16v-11.97Z"/><path class="cls-2" d="m246.02,38.74h7.73v34.52h-38.57v-34.52h7.73v26.78h23.1v-26.78Z"/></svg>