<?xml version="1.0" encoding="UTF-8"?><svg id="Calque_1" xmlns="http://www.w3.org/2000/svg" viewBox="0 0 324.44 94"><defs><style>.cls-1{fill:#c11b57;}.cls-2{fill:#f4457b;}.cls-3{fill:#c66028;}</style></defs><rect class="cls-2" width="324.44" height="90" rx="34.25" ry="34.25"/><rect class="cls-1" y="4" width="324.44" height="90" rx="34.25" ry="34.25"/><path class="cls-3" d="m50.1,44.97v-6.34h-23.25v19.17h23.25v-4.35l7.78-7.78v19.91H19.08V30.85h38.81v6.34l-7.78,7.78Z"/><path class="cls-3" d="m158.14,30.85h38.81v26.35l-8.52,8.38h-30.29V30.85Zm7.78,26.95h18.8l4.45-4.31v-14.87h-23.25v19.17Z"/><path class="cls-3" d="m120.99,38.63v6.62h28.67l-7.73,7.78h-20.93v4.77h31.03v7.78h-38.81V30.85h38.81v7.78h-31.03Z"/><path class="cls-3" d="m212.08,65.58h-7.46V30.85h7.46v34.73Z"/><path class="cls-3" d="m102.47,52.6l2.82,12.55h-7.83l-2.82-12.55h-20.93v12.55h-7.73V30.42h38.81v22.18h-2.32Zm-5.46-14.4h-23.25v6.62h23.25v-6.62Z"/><path class="cls-3" d="m266.56,30.42h38.81v5.74l-7.78,7.78v-5.74h-23.25v5.88h31.03v21.07h-38.81v-5.56l7.78-7.73v5.51h23.25v-5.51h-31.03v-21.44Z"/><path class="cls-3" d="m219.62,30.42h38.81v7.78h-15.51v26.95h-7.78v-26.95h-15.51v-7.78Z"/></svg>