<?xml version="1.0" encoding="UTF-8"?><svg id="Calque_1" xmlns="http://www.w3.org/2000/svg" viewBox="0 0 324.44 101"><defs><style>.cls-1{fill:#ff94c0;}.cls-2{fill:#fca677;}.cls-3{fill:#f7548f;}</style></defs><rect class="cls-1" width="324.44" height="90" rx="34.25" ry="34.25"/><rect class="cls-3" y="11" width="324.44" height="90" rx="34.25" ry="34.25"/><path class="cls-2" d="m172.51,71.58h-7.6v-33.94h37.92v33.94h-7.6v-11.9h-22.72v11.9Zm0-19.51h22.72v-6.83h-22.72v6.83Z"/><path class="cls-2" d="m128.52,63.98h30.32v7.6h-37.92v-33.94h7.6v26.34Z"/><path class="cls-2" d="m77.27,37.42h37.92v21.68h-30.46v12.26h-7.47v-33.94Zm7.6,14.07h22.72v-6.47h-22.72v6.47Z"/><path class="cls-2" d="m239.57,37.42h7.6v16.11l-4.62,4.84h-10.54v12.99h-7.6v-12.99h-10.5l-4.66-4.84v-16.11h7.6v12.49l.68.86h21.41l.63-.86v-12.49Z"/></svg>