<?xml version="1.0" encoding="UTF-8"?><svg id="Calque_1" xmlns="http://www.w3.org/2000/svg" viewBox="0 0 324.44 94"><defs><style>.cls-1{fill:#c11b57;}.cls-2{fill:#f4457b;}.cls-3{fill:#c66028;}</style></defs><rect class="cls-2" x="0" y="0" width="324.44" height="90" rx="34.25" ry="34.25"/><rect class="cls-1" x="0" y="4" width="324.44" height="90" rx="34.25" ry="34.25"/><path class="cls-3" d="m172.51,65.08h-7.6V31.14h37.92v33.94h-7.6v-11.9h-22.72v11.9Zm0-19.51h22.72v-6.83h-22.72v6.83Z"/><path class="cls-3" d="m128.52,57.48h30.32v7.6h-37.92V31.14h7.6v26.34Z"/><path class="cls-3" d="m77.27,30.92h37.92v21.68h-30.46v12.26h-7.47V30.92Zm7.6,14.07h22.72v-6.47h-22.72v6.47Z"/><path class="cls-3" d="m239.57,30.92h7.6v16.11l-4.62,4.84h-10.54v12.99h-7.6v-12.99h-10.5l-4.66-4.84v-16.11h7.6v12.49l.68.86h21.41l.63-.86v-12.49Z"/></svg>