<?xml version="1.0" encoding="UTF-8"?>
<svg id="Layer_2" data-name="Layer 2" xmlns="http://www.w3.org/2000/svg" viewBox="0 0 124.91 181.37">
  <defs>
    <style>
      .cls-1 {
        fill: #fdd405;
      }

      .cls-2 {
        fill: #fff;
      }

      .cls-3 {
        fill: #8aabc3;
      }

      .cls-4 {
        fill: #946145;
      }

      .cls-5 {
        fill: #bedbf3;
      }

      .cls-6 {
        fill: #f79456;
      }
    </style>
  </defs>
  <path class="cls-4" d="m38.2,161.73c.04-.19.12-.45.3-.74.2-.33.43-.54.59-.67,15.58-.05,31.16-.1,46.74-.15.14.16.3.37.44.63.18.32.3.61.37.85l-48.44.07Z"/>
  <path class="cls-4" d="m38.33,169.01c.04-.29.17-.9.65-1.46.41-.49.88-.71,1.11-.81.57-.26,1.08-.3,1.37-.3,14.01.01,28.02.02,42.04.04.44.08.79.2,1.04.3.34.13.65.25,1,.52.16.12.45.34.7.74.22.35.32.67.37.89-16.09.03-32.19.06-48.28.09Z"/>
  <path class="cls-4" d="m38.22,176.37c.04-.29.17-.9.65-1.46.41-.49.88-.71,1.11-.81.57-.26,1.08-.3,1.37-.3,14.01.01,28.02.02,42.04.04.44.08.79.2,1.04.3.34.13.65.25,1,.52.16.12.45.34.7.74.22.35.32.67.37.89-16.09.03-32.19.06-48.28.09Z"/>
  <path class="cls-4" d="m86.45,178.81c-.04.29-.18.9-.65,1.46-.42.49-.89.71-1.11.81-.57.25-1.08.29-1.37.29-14.01-.08-28.02-.15-42.04-.23-.44-.08-.79-.2-1.04-.3-.34-.13-.65-.26-1-.52-.15-.12-.45-.35-.7-.74-.22-.35-.32-.67-.37-.89,16.09.04,32.19.09,48.28.13Z"/>
  <path class="cls-4" d="m86.6,171.66c-.04.29-.18.9-.65,1.46-.42.49-.89.71-1.11.81-.57.25-1.08.29-1.37.29-14.01-.08-28.02-.15-42.04-.23-.44-.08-.79-.2-1.04-.3-.34-.13-.65-.26-1-.52-.15-.12-.45-.35-.7-.74-.22-.35-.32-.67-.37-.89,16.09.04,32.19.09,48.28.13Z"/>
  <path class="cls-4" d="m86.52,164.25c-.04.29-.18.9-.65,1.46-.42.49-.89.71-1.11.81-.57.25-1.08.29-1.37.29-14.01-.08-28.02-.15-42.04-.23-.44-.08-.79-.2-1.04-.3-.34-.13-.65-.26-1-.52-.15-.12-.45-.35-.7-.74-.22-.35-.32-.67-.37-.89,16.09.04,32.19.09,48.28.13Z"/>
  <g id="Layer_1" data-name="Layer 1">
    <rect class="cls-6" x="38.08" y="166.5" width="48.75" height="7.32" rx="3.66" ry="3.66"/>
    <path class="cls-5" d="m92.48,120.89c5.11-3,14.29-9.31,21.69-20.66,8.8-13.49,10.24-26.69,10.53-32.72.24-4.05,1.21-27.6-16.93-47.14C89.83,1.06,66.64.1,62.52,0c-4.06.08-28.28.93-46.29,21.05C.22,38.93.05,59.8.13,64.58c-.11,5.82.45,18.22,7.63,31.53,7.99,14.81,19.64,22.35,24.69,25.22,0,10.89.01,21.78.02,32.67.09.58.49,2.83,2.52,4.58,1.98,1.72,4.21,1.82,4.81,1.83l45.54-.23c.76-.13,2.94-.6,4.81-2.52,2.06-2.11,2.38-4.58,2.45-5.31-.04-10.49-.08-20.98-.12-31.47Z"/>
    <rect class="cls-6" x="38.08" y="159.15" width="48.75" height="7.36" rx="3.68" ry="3.68"/>
    <rect class="cls-6" x="37.97" y="173.83" width="48.75" height="7.32" rx="3.66" ry="3.66"/>
    <path class="cls-3" d="m1.29,52.86c6.6,28.77,31.55,49.76,61.28,49.66,29.56-.11,54.81-20.37,61.37-48.97.92,5.93,3.68,24.77-7.74,43.94-7.54,12.65-17.62,19.67-23.14,22.95-20.21.15-40.42.3-60.63.44-5.09-2.92-18.23-11.34-26.5-28.2C-2.68,75.1.35,58.53,1.29,52.86Z"/>
    <path class="cls-3" d="m32.14,120.87l60.63-.44-.15,31.92c-.09.76-.55,3.72-3.13,5.89-1.58,1.33-3.25,1.77-4.12,1.93l-45.54.23c-.65-.04-3.19-.29-5.23-2.38-1.5-1.54-1.95-3.28-2.09-4.02-.12-11.04-.25-22.09-.37-33.13Z"/>
    <g>
      <polygon class="cls-1" points="53.24 135.7 28.07 44.16 29.67 42.56 53.93 133.41 53.24 135.7"/>
      <polygon class="cls-1" points="71.67 135.7 96.84 44.16 95.23 42.56 70.98 133.41 71.67 135.7"/>
    </g>
    <path class="cls-1" d="m29.67,42.69c4.66,2.9,16.25,9.25,32.37,9.36,16.6.11,28.54-6.47,33.19-9.36.07,1.13.14,2.26.2,3.39-5.51,2.89-17.32,8.15-33.17,8.05-15.63-.1-27.25-5.36-32.74-8.28.05-1.06.09-2.11.14-3.17Z"/>
    <path class="cls-2" d="m17.6,28.35c-.41-.46,17.92-22.62,43.42-23.22,25.57-.6,46.23,20.76,46.25,20.75,0-.01-7.95-6.95-21.94-11.26-3.83-1.18-15.71-4.72-29.85-3.16-23.28,2.57-37.53,17.29-37.88,16.89Z"/>
  </g>
</svg>