<?xml version="1.0" encoding="UTF-8"?>
<svg id="Layer_1" data-name="Layer 1" xmlns="http://www.w3.org/2000/svg" viewBox="0 0 193.72 197.27">
  <defs>
    <style>
      .cls-1 {
        fill: #1b2b45;
      }

      .cls-2 {
        fill: #0c1624;
      }
    </style>
  </defs>
  <path class="cls-2" d="m176.69,57.44l.53.5,10.35,9.83c5.09,4.84,7.23,12,5.62,18.81l-17.45,73.76c-1.61,6.81-6.73,12.25-13.45,14.3l-71.62,21.77c-6.84,2.08-14.28.32-19.47-4.6l-16.15-15.34,74.49-47.37,47.15-71.66Z"/>
  <path class="cls-2" d="m131.04,68.42l-13.43-14.3c-2.72-2.74-6.7-3.8-10.42-2.78l-38.94,10.73c-3.65,1.01-6.5,3.88-7.48,7.54l-10.57,39.66c-.98,3.66.06,7.57,2.73,10.26l11.39,13.04-30.14-25.89,11.78-53.28,37.39-14.13,29.73-2.06,23.85,17.07-5.89,14.13Z"/>
  <path class="cls-1" d="m177.35,57.34L122.98,5.49c-5.19-4.95-12.65-6.72-19.51-4.62L31.62,22.87c-6.74,2.06-11.88,7.55-13.51,14.41L.53,111.59c-1.62,6.86.52,14.07,5.62,18.94l54.37,51.86c5.19,4.95,12.65,6.72,19.51,4.62l71.84-22c6.74-2.06,11.88-7.55,13.51-14.41l17.58-74.31c1.62-6.86-.52-14.07-5.62-18.94Zm-36.31,28.49l-10.57,39.66c-.98,3.66-3.82,6.53-7.48,7.54l-38.94,10.73c-3.72,1.02-7.7-.04-10.42-2.78l-28.43-28.69c-2.67-2.69-3.71-6.6-2.73-10.26l10.57-39.66c.98-3.66,3.82-6.53,7.48-7.54l38.94-10.73c3.72-1.03,7.7.04,10.42,2.78l28.43,28.69c2.67,2.69,3.71,6.6,2.73,10.26Z"/>
</svg>