<?xml version="1.0" encoding="UTF-8"?>
<svg id="Layer_1" data-name="Layer 1" xmlns="http://www.w3.org/2000/svg" viewBox="0 0 194.89 199.21">
  <defs>
    <style>
      .cls-1 {
        fill: #179959;
      }

      .cls-2 {
        fill: #0f844b;
      }

      .cls-3 {
        fill: #11613c;
      }
    </style>
  </defs>
  <path class="cls-3" d="m34.94,119.12c-3.58-13.2-27.64-8.61-32.76-20.7C-2.16,88.19-.29,60.9,10.22,58.47c1.99-.46,2.06-16.48,11.86-21.08,14.06-6.6,10.87-18.77,12.62-21.12.46-.62,4.21-5.36,10.28-4.22,6.28,1.18,8.13,3.79,11.18,2.58,2.54-1.01,1.59-1.71,5.2-5.54,2.97-3.14,8.17-4.53,12.15-2.96,3.33,1.31,4.24,4.06,6.34,3.55,2.06-.5,2.07-3.34,4.23-5.92C87.88-.75,94.63-.09,97.83.23c2.83.28,10.56,1.03,14.27,7.1,2.03,3.33,25.82-4.11,29.59-3.55,3.55.52,5.83.18,8.46,1.77.43.26,6.3,3.96,6.87,10.06.32,3.41,2.26,8.76,4.76,10.06.82-.35,8.18-3.42,12.15.59,2.15,2.17,2.77,5.87,3.17,8.28.85,5.05,4.46,9.74,8.46,11.24,1.41.53,7.45,2.79,8.98,8.28,1.26,4.49-1.13,8.85-2.11,10.65-.61,1.12-2.58,4.42-6.34,6.51-6.61,3.66-16.87,10.3-18.02,12.17-2.35,3.81-4.62,6.81-7.87,10.9-2.01,2.53-3.17,7.1-3.17,7.1-.27,1.89-1.12,6.17-4.23,10.06-1.1,1.37-4.64,5.8-9.51,5.92-1.85.04-2.63-.57-10.04-4.73-7.81-4.39-8.7-4.69-10.04-4.73-5.67-.17-9.93,4.58-10.57,5.32-2.01,2.3-1.67,3.25-3.7,6.51-1.38,2.22-5.22,8.39-11.1,10.06-6.41,1.82-12.49-2.5-14.8-4.14-5.76-4.09-5.55-7.62-10.04-8.87-3.23-.9-6.03.19-11.63,2.37-3.96,1.54-4.59,2.36-10.57,5.32-11.18,5.54-14.77-1.32-15.85-5.32Z"/>
  <polygon class="cls-1" points="20.43 80.15 64.27 127.47 71.24 197.21 108.11 199.21 122.05 127.47 164.89 73.67 154.93 68.19 120.06 98.58 137 61.72 128.03 57.73 104.12 98.08 88.18 46.28 73.24 50.26 84.19 94.1 60.78 69.69 54.8 71.68 67.76 97.09 26.91 67.7 20.43 80.15"/>
  <path class="cls-3" d="m110.1,29.34c-.26,6.82-7.7,11.08-17.93,16.94-10.79,6.18-17.61,10.08-25.9,7.97-9.34-2.38-18.33-11.84-16.94-19.93.95-5.52,6.4-8.4,15.94-13.45,11.52-6.1,20.94-11.08,30.89-7.47,6.6,2.39,14.21,8.86,13.95,15.94Z"/>
  <path class="cls-3" d="m106.61,46.77c1.21,2.93,5.37,11.92,14.94,15.94,9.1,3.82,18.04,1.03,22.91-.5,10.28-3.21,15.91-9.05,16.94-7.97.62.66-.72,3.62-8.97,13.45"/>
  <ellipse class="cls-3" cx="23.51" cy="72.68" rx="11.99" ry="8.59"/>
  <ellipse class="cls-3" cx="54.29" cy="67.01" rx="10.37" ry="9.07"/>
  <ellipse class="cls-3" cx="162.98" cy="61.17" rx="20.9" ry="14.26"/>
  <polygon class="cls-2" points="20.92 81.26 65.3 128.24 76.32 127.59 20.92 81.26"/>
  <polygon class="cls-2" points="57.2 76.08 75.99 115.28 79.23 120.46 85.39 114.31 57.2 76.08"/>
  <polygon class="cls-2" points="76.32 127.59 93.17 198.54 71.24 197.21 64.27 127.47 76.32 127.59"/>
  <polygon class="cls-2" points="104.12 98.08 124.59 63.77 131.11 64.7 100.94 122.41 104.12 98.08"/>
  <polygon class="cls-2" points="88.95 185.1 122.05 127.47 108.11 199.21 93.17 198.54 88.95 185.1"/>
  <polygon class="cls-2" points="145.65 98.43 163.31 75.43 150.12 72.35 137.79 83.04 145.65 98.43"/>
  <polygon class="cls-2" points="73.89 54.61 88.78 47.92 83.71 93.86 73.89 54.61"/>
</svg>