<svg id="Layer_1" data-name="Layer 1" xmlns="http://www.w3.org/2000/svg" viewBox="0 0 200 200"><defs><style>.cls-1{fill:#101021;}.cls-2{fill:#f47d62;}.cls-3{fill:#ee2d62;}.cls-4{fill:#fed404;}.cls-5{fill:#11613c;}.cls-6{fill:none;stroke:#101021;stroke-miterlimit:10;stroke-width:3px;}</style></defs><ellipse class="cls-1" cx="100" cy="103.5" rx="22.27" ry="65.91"/><path class="cls-2" d="M71,31c-15.4-17.26-21.74-12.9-35.22-17.23C14.87,7.07,6.6-2.68,2.53.69c-7.24,6,3,10.3,6.62,32.9C11,45,8,56.69,18.77,70.06S35.7,83.38,43,92.36c-12.13,5.77-29.76,16.46-22.75,30.3,8.84,30.39-27.45,64.15-17.67,77C5.5,203.43,25.93,177,38.5,181.47s24.16-.64,32.35-15.16S85.6,159.66,89,151.46c9.77-23.34,7.59-47.39-4.06-59.62C94.65,78.7,89.87,52.17,71,31Z"/><path class="cls-1" d="M73.67,38c-13.44-15.06-19-11.26-30.74-15-18.22-5.86-25.44-14.36-29-11.43-6.32,5.23,2.62,9,5.78,28.72,1.59,9.91-1,20.16,8.39,31.83S42.89,83.7,49.27,91.53c-10.58,5-26,14.36-19.86,26.45C37.13,144.5,5.46,174,14,185.15c2.55,3.32,20.37-19.74,31.35-15.85s21.08-.55,28.23-13.23,12.87-5.8,15.86-13c8.53-20.37,6.63-41.36-3.54-52C94.34,79.61,90.16,56.46,73.67,38Z"/><path class="cls-3" d="M81.33,137c-2.17,5.21-6.33.22-11.53,9.43S57.27,158.87,49.29,156,28.36,170,26.51,167.55c-6.21-8.12,16.81-29.54,11.2-48.81-2.31-4.57,2.09-17.4,9.15-7.49S42.57,134.38,49,138.2C58.68,144,83.13,132.72,81.33,137Z"/><path class="cls-4" d="M32.94,26.54c2.78,3.42,3.19,7.68.92,9.53s-6.35.56-9.13-2.86S14.14,17.67,16.47,15.58,30.16,23.12,32.94,26.54Z"/><path class="cls-5" d="M76.09,68.45c-14.19,7.64-21.92-.25-20-12.32S37.35,34.19,41.58,30.22s24.74,1.51,29.22,14S89,61.53,76.09,68.45Z"/><path class="cls-5" d="M49.55,52.18c-.85,4.9-7.74,2.67-6,11.82s11,22,8.36,20.75c-2.41-1.17-18-15.49-18-15.49C27.59,61,25.69,53.21,30.47,46.17c2.79-3.61,5.73-4.24,10.28-3.88S50.4,47.28,49.55,52.18Z"/><path class="cls-5" d="M62.25,76.16c3.48-.21,3.66,5,9.36,2.26s12.06-11.28,11.84-9.23c-.19,1.87-6,15.1-6,15.1-4,5.76-8.74,8.36-14.6,6.17-3.09-1.35-4.22-3.3-5.09-6.54S58.77,76.37,62.25,76.16Z"/><path class="cls-3" d="M87.56,104.67c6.2,13.29,1,32.07-2.42,22.73S62.64,141,56.36,131c-2.6-3.19,1.43-13,1-18.72s-11.69-6.56-7.2-13.63,9-1.93,17.37,1.62S81.36,91.39,87.56,104.67Z"/><path class="cls-2" d="M129,31c15.4-17.26,21.74-12.9,35.22-17.23C185.13,7.07,193.4-2.68,197.47.69c7.24,6-3,10.3-6.62,32.9C189,45,192,56.69,181.23,70.06S164.3,83.38,157,92.36c12.13,5.77,29.76,16.46,22.75,30.3-8.84,30.39,27.45,64.15,17.67,77-2.91,3.81-23.34-22.61-35.91-18.15s-24.16-.64-32.35-15.16S114.4,159.66,111,151.46c-9.77-23.34-7.59-47.39,4.06-59.62C105.35,78.7,110.13,52.17,129,31Z"/><path class="cls-1" d="M126.33,38c13.44-15.06,19-11.26,30.74-15,18.22-5.86,25.44-14.36,29-11.43,6.32,5.23-2.62,9-5.78,28.72-1.59,9.91,1,20.16-8.39,31.83S157.11,83.7,150.73,91.53c10.58,5,26,14.36,19.86,26.45-7.72,26.52,23.95,56,15.42,67.17-2.55,3.32-20.37-19.74-31.35-15.85s-21.08-.55-28.23-13.23-12.87-5.8-15.86-13c-8.53-20.37-6.63-41.36,3.54-52C105.66,79.61,109.84,56.46,126.33,38Z"/><path class="cls-3" d="M118.67,137c2.17,5.21,6.33.22,11.53,9.43s12.53,12.44,20.51,9.61,20.93,13.93,22.78,11.51c6.21-8.12-16.81-29.54-11.2-48.81,2.31-4.57-2.09-17.4-9.15-7.49s4.29,23.13-2.12,26.95C141.32,144,116.87,132.72,118.67,137Z"/><path class="cls-4" d="M167.06,26.54c-2.78,3.42-3.19,7.68-.92,9.53s6.35.56,9.13-2.86,10.59-15.54,8.26-17.63S169.84,23.12,167.06,26.54Z"/><path class="cls-5" d="M123.91,68.45c14.19,7.64,21.92-.25,20-12.32s18.73-21.94,14.5-25.91-24.74,1.51-29.22,14S111.05,61.53,123.91,68.45Z"/><path class="cls-5" d="M150.45,52.18c.85,4.9,7.74,2.67,6,11.82s-11,22-8.36,20.75c2.41-1.17,18-15.49,18-15.49,6.32-8.27,8.22-16.05,3.44-23.09-2.79-3.61-5.73-4.24-10.28-3.88S149.6,47.28,150.45,52.18Z"/><path class="cls-5" d="M137.75,76.16c-3.48-.21-3.66,5-9.36,2.26s-12.06-11.28-11.84-9.23c.19,1.87,6,15.1,6,15.1,4,5.76,8.74,8.36,14.6,6.17,3.09-1.35,4.22-3.3,5.09-6.54S141.23,76.37,137.75,76.16Z"/><path class="cls-3" d="M112.44,104.67c-6.2,13.29-1,32.07,2.42,22.73S137.36,141,143.64,131c2.6-3.19-1.43-13-.95-18.72s11.69-6.56,7.2-13.63-9-1.93-17.37,1.62S118.64,91.39,112.44,104.67Z"/><path class="cls-1" d="M81.46,13.22c-.07,2.88-1.88,4.69-4,3.49-1.92-1.1-3.47-1.64-4-3.49-1-3.33,1.31-4.19,4-3.5C79.6,10.28,81.51,11.29,81.46,13.22Z"/><path class="cls-1" d="M116.81,10.19c1.29-2.57,3.71-3.45,5.12-1.45,1.28,1.81,2.44,3,2.15,4.86-.53,3.43-3,3.23-5.12,1.46C117.25,13.65,116,11.92,116.81,10.19Z"/><path class="cls-6" d="M92.12,66.38S99.25-.35,76,13.31"/><path class="cls-6" d="M107,66.38S99.87-.35,123.15,13.31"/></svg>