<?xml version="1.0" encoding="UTF-8"?>
<svg id="Layer_1" data-name="Layer 1" xmlns="http://www.w3.org/2000/svg" viewBox="0 0 144.6 195.99">
  <defs>
    <style>
      .cls-1 {
        fill: #c61f43;
      }

      .cls-2 {
        fill: #8c1e3c;
      }

      .cls-3 {
        fill: #9e1b3a;
      }

      .cls-4 {
        fill: #ee2f63;
      }
    </style>
  </defs>
  <path class="cls-4" d="m143.77,21l-13.81-15.34c-1.79-1.99-4.33-3.15-7.01-3.21l-56.72-1.18c-.75-.02-1.49.23-2.07.7l-22.14,17.65c-.57.45-1.28.7-2.01.7h-6.08c-1.75,0-3.18-1.39-3.22-3.14l-.17-7.3c-.04-1.75-1.47-3.14-3.22-3.14H5.62c-1.8,0-3.25,1.48-3.22,3.28.09,4.68.26,12.97.26,15.47,0,55.73-.22,111.45-.32,167.18,0,1.78,1.45,3.23,3.23,3.22l133.62-.62c1.76,0,3.18-1.42,3.2-3.18l2.21-168.9c.01-.81-.28-1.59-.83-2.2Zm-17.1.57l-62.7-.87c-1.44-.02-2.11-1.8-1.03-2.76l8.14-7.24c.29-.26.68-.4,1.07-.4l48.45.63c.47,0,.91.22,1.2.58l6.11,7.47c.85,1.04.1,2.6-1.25,2.58Z"/>
  <path class="cls-3" d="m.1,7.04L1.18,2.4C1.51.98,2.61,0,3.85,0h24.32c.25.01.94.08,1.6.6.74.57.96,1.33,1.01,1.57.43,1.43.87,2.86,1.3,4.29.64,2.11-.68,4.33-2.58,4.35l-26.7.35c-1.84.02-3.19-2.03-2.7-4.12Z"/>
  <path class="cls-1" d="m30.75,66.72c-.87.9,18.17,16.85,20.46,39.51,2.77,27.51-20.32,53.31-19.42,54.03.57.46,6.17-12.95,18.38-20.97,11.37-7.47,23.15-6.77,28.43-6.45,6.9.41,15.77.94,23.58,7.66,9.69,8.35,12.36,21.6,12.83,21.37.72-.36-14.96-26.9-11.79-55.64,2.43-22.03,15.24-39.05,14.56-39.51-.62-.43-6.77,17.55-21.5,25.4-7.34,3.92-14.4,4.02-16.99,4.03-3.42.01-10.5-.43-20.46-5.64-17.61-9.23-27.35-24.55-28.09-23.79Z"/>
  <path class="cls-2" d="m63.77,20.81l-1.11-2.03c-.09-.16-.05-.37.08-.49l8.83-7.7.44-.16,49.88,1.34c.11,0-.07-.09,0,0l6.38,7.49c.1.12.12.28.07.42l-.74,1.77,1.07-.03c1.2-.04,2.14-1.05,2.09-2.26h0c0-.08-.03-.16-.08-.23l-7.8-10.05c-.07-.1-.19-.15-.31-.16l-51.06-1.36c-.11,0-.21.04-.29.11l-10.03,9.41s-.06.07-.09.11c-.52.94-.77,2.46-.86,3.19-.03.23.14.44.38.45l3.15.19Z"/>
  <path class="cls-2" d="m2.45,180.53c.15,2.17.72,5.41,2.82,8.33,1.26,1.75,2.35,2.38,2.68,2.57,2.28,1.26,4.64.85,5.52.65,39.43-.45,78.87-.9,118.3-1.34,1.1.05,3.1-.02,5.21-1.11,4.27-2.22,5.37-6.77,5.54-7.51-.14,8.77-.46,11.65-.81,12-.01.01-.54.54-1.26,1.27,0,0,0,0,0,0l-133.92.51c-.19.05-1.71.39-3-.65-1.02-.82-1.22-1.97-1.26-2.24.06-4.16.12-8.32.18-12.48Z"/>
</svg>