<?xml version="1.0" encoding="UTF-8"?>
<svg id="Layer_5" data-name="Layer 5" xmlns="http://www.w3.org/2000/svg" viewBox="0 0 83.42 191.66">
  <defs>
    <style>
      .cls-1 {
        fill: #0f151d;
      }

      .cls-2 {
        fill: #253f66;
      }

      .cls-3 {
        fill: #0d1013;
      }

      .cls-4 {
        fill: #fed402;
      }

      .cls-5 {
        fill: #1b2b45;
        stroke: #1b2b45;
        stroke-linejoin: round;
        stroke-width: .93px;
      }

      .cls-6 {
        fill: #f79456;
      }

      .cls-7 {
        fill: #927c2e;
      }

      .cls-8 {
        fill: #8c5430;
      }
    </style>
  </defs>
  <g id="Layer_3" data-name="Layer 3">
    <g id="Layer_2" data-name="Layer 2">
      <g id="Layer_4" data-name="Layer 4">
        <g id="Layer_1" data-name="Layer 1">
          <rect class="cls-5" x=".47" y="10.28" width="82.45" height="170.58" rx="15.78" ry="15.78"/>
        </g>
        <path class="cls-1" d="m2.5,173.61c-.1-.24-.27-.61-.5-1.05-.19-.35-.33-.6-.39-.69-.46-.78-.76-1.66-.91-2.11-.35-1.04-.75-3.08-.67-5.7,13.22-1.8,26.44-3.6,39.66-5.41l43.58,4.96c.17,1.35.26,3.66-.59,6.3-.54,1.66-1.29,2.95-1.92,3.85-26.09-.05-52.17-.1-78.26-.15Z"/>
      </g>
      <path class="cls-1" d="m83.27,164.67c-.47,1.75-17.48-4.12-41.38-4.08-16.41.03-30.6,1.99-41.87,4.32C.1,118.21.18,71.51.26,24.81c0,0,0,0,0,0,0,0,.08.93.08.94.14,1.76,21.26,92.78,27.08,108.83,1,2.76,2.79,7.5,7.31,10.67,3.78,2.64,7.71,2.97,9.09,3.11,15.28,1.58,40.03,14.15,39.46,16.32Z"/>
      <g>
        <polygon class="cls-4" points="50.08 44.68 25.03 88.36 39.49 91.85 50.08 44.68"/>
        <polygon class="cls-4" points="31.79 128.84 56.13 84.54 41.57 81.51 31.79 128.84"/>
      </g>
      <path class="cls-1" d="m.17,164.66c.47,1.76,17.48-4.13,41.38-4.09,16.41.03,30.6,2,41.87,4.33-.08-46.86-.16-93.72-.24-140.58,0,0,0,0,0,0,0,0-.08.93-.08.94-.14,1.76-21.26,93.09-27.08,109.2-1,2.77-2.79,7.53-7.31,10.7-3.78,2.65-7.71,2.98-9.09,3.12-15.28,1.59-40.03,14.2-39.46,16.37Z"/>
    </g>
    <path class="cls-2" d="m81.13,17.99c-.03-.52-1.83-3.4-4.67-5.33s-6.83-2.97-7.05-3c0,0,0,0,0,0l-53.03-.59c-1.39.08-5.2.95-9.03,3.37-3.49,2.21-4.77,4.41-5.11,5.41.5.63,1.04,1.45,2.39,2.25,1.46.86,3.12,1.38,6.67,1.92,2.63.4,4.25.5,10.22.9,6.76.45,6.69.46,8.12.53,4.1.2,7.21.26,9.39.3,4.61.08,8.09.04,10.9,0,3.66-.04,5.49-.07,8.19-.19,1.21-.05,4.59-.22,8.98-.65,2.66-.26,4.6-.51,6.75-.91,3.73-.69,5.16-1.29,6.14-2.2.7-.66,1.01-1.34,1.15-1.8Z"/>
    <rect class="cls-4" x="24.56" width="35.51" height="15.35" rx="4.6" ry="4.6"/>
    <path class="cls-3" d="m2.22,173.34c1.32,2.06,2.75,3.47,3.8,4.35,1.22,1.03,4.03,3.33,8.03,3.82,0,0,0,0,0,0l53.03-.16c1.39-.1,5.67-.52,9.47-3,3.45-2.26,4.52-4.91,4.84-5.92-.5-.63-1.35-1.5-2.72-2.28-1.47-.84-3.14-1.33-6.7-1.82-2.64-.36-4.26-.44-10.23-.75-6.76-.36-6.69-.37-8.12-.42-4.1-.15-7.21-.16-9.39-.16-4.61-.01-8.09.08-10.89.15-3.66.1-5.49.14-8.18.3-1.21.07-4.59.28-8.97.78-2.65.3-4.59.58-6.74,1-3.72.74-5.15,1.36-6.1,2.29-.69.67-.99,1.36-1.13,1.81Z"/>
    <rect class="cls-7" x="24.92" y="176.31" width="35.51" height="15.35" rx="4.6" ry="4.6"/>
  </g>
  <path class="cls-6" d="m24.53,3.69v7.65c0,.34.08,1.65,1.11,2.77.88.96,1.93,1.21,2.3,1.27h28.37c.46-.08,1.27-.29,2.07-.9,1.26-.96,1.66-2.26,1.78-2.7-.07-2.82-.15-5.65-.22-8.47-.58,1.58-1.82,4.25-4.44,6.45-.9.75-1.79,1.31-2.59,1.72-6.99.07-13.98.15-20.96.22-.87-.27-1.95-.72-3.04-1.5-3.02-2.16-4.05-5.32-4.37-6.52Z"/>
  <path class="cls-8" d="m60.14,188.22c.03-2.55.06-5.1.09-7.65,0-.34-.06-1.65-1.08-2.79-.87-.97-1.92-1.23-2.28-1.3-9.46-.11-18.91-.21-28.37-.32-.46.07-1.27.27-2.08.88-1.27.94-1.69,2.24-1.81,2.68.04,2.83.08,5.65.13,8.48.59-1.58,1.87-4.23,4.52-6.4.91-.74,1.81-1.29,2.61-1.7,6.99,0,13.98,0,20.96.01.87.28,1.94.74,3.02,1.53,3,2.19,3.99,5.37,4.3,6.57Z"/>
</svg>